<?xml version="1.0" encoding="UTF-8"?> <svg xmlns="http://www.w3.org/2000/svg" xmlns:xlink="http://www.w3.org/1999/xlink" width="488px" height="70px" viewBox="0 0 488 70"><!-- Generator: Sketch 55.1 (78136) - https://sketchapp.com --><title>Group 26</title><desc>Created with Sketch.</desc><defs><polygon id="path-1" points="0.00442781051 0.894389744 31.6648453 0.894389744 31.6648453 69.1538462 0.00442781051 69.1538462"></polygon><polygon id="path-3" points="0.308762585 0.7506612 26.8705132 0.7506612 26.8705132 66.5423132 0.308762585 66.5423132"></polygon></defs><g id="Final-Designs" stroke="none" stroke-width="1" fill="none" fill-rule="evenodd"><g id="1-Home" transform="translate(-354.000000, -3782.000000)"><g id="video_placeholder" transform="translate(0.000000, 3493.000000)"><g id="Group-26" transform="translate(354.000000, 289.000000)"><polygon id="Fill-1" fill="#FEFEFE" points="0.817795883 1.11538462 0.817795883 65.8076923 13.2566443 65.8076923 13.2566443 38.4154539 22.5882107 38.4154539 22.5882107 27.8276738 13.2566443 27.8276738 13.2566443 11.7064026 26.3791595 11.7064026 26.3791595 1.11538462"></polygon><path d="M36.9778532,1.11538462 L27.4905232,65.8076923 L38.8355578,65.8076923 L39.911071,55.4141834 L47.3418895,55.4141834 L48.2218548,65.8076923 L60.8314322,65.8076923 L51.4451353,1.11538462 L36.9778532,1.11538462 Z M44.1120907,20.1539617 L46.2631171,45.3088435 L41.279906,45.3088435 L44.1120907,20.1539617 Z" id="Fill-2" fill="#FEFEFE"></path><g id="Group-25" transform="translate(65.276887, 0.000000)"><path d="M18.5342502,15.7110952 C18.5342502,13.5409817 17.7500912,12.750652 16.3778131,12.750652 L13.2411773,12.750652 L13.2411773,31.3201062 L16.3778131,31.3201062 C17.7500912,31.3201062 18.5342502,30.5297766 18.5342502,28.35637 L18.5342502,15.7110952 Z M21.870193,67.8728535 C19.9065283,67.8728535 18.8283098,61.8465897 18.8283098,57.697359 L18.8283098,44.5581282 C18.8283098,42.8786777 17.946131,41.1004359 16.1817733,41.1004359 L13.2411773,41.1004359 L13.2411773,67.8728535 L0.599881594,67.8728535 L0.599881594,2.07790842 L18.0474182,2.07790842 C24.2194025,2.07790842 30.590694,6.03284982 30.590694,14.8219744 L30.590694,27.9644982 C30.590694,31.221315 28.6302966,34.1850513 25.395641,36.0653773 C28.6302966,37.843619 30.7867337,40.9028535 30.7867337,44.1662564 L30.7867337,56.9070293 C30.7867337,61.0562601 31.5708927,64.4151612 32.4530715,67.5764799 L32.4530715,67.8728535 L21.870193,67.8728535 Z" id="Fill-3" fill="#FEFEFE"></path><polygon id="Fill-5" fill="#FEFEFE" points="70.3168397 67.8721949 70.3168397 20.6499971 68.2584224 36.2590081 63.7495085 67.8721949 55.7118793 67.8721949 51.5983122 36.2590081 49.7326673 20.6499971 49.7326673 67.8721949 38.6596895 67.8721949 38.6596895 2.08054286 55.2250473 2.08054286 59.2405946 27.8650484 60.7141599 41.1985685 62.1844579 27.8650484 66.1019853 2.08054286 82.3732835 2.08054286 82.3732835 67.8721949"></polygon><path d="M235.377724,42.4831835 C235.377724,40.4085681 234.492278,39.5227403 233.123267,39.5227403 L229.986631,39.5227403 L229.986631,57.3018648 L233.123267,57.3018648 C234.492278,57.3018648 235.377724,56.5115352 235.377724,54.3414216 L235.377724,42.4831835 Z M235.377724,15.7107659 C235.377724,13.5406524 234.492278,12.7503227 233.123267,12.7503227 L229.986631,12.7503227 L229.986631,30.1342824 L233.123267,30.1342824 C234.492278,30.1342824 235.377724,29.2451615 235.377724,27.1738392 L235.377724,15.7107659 Z M235.178417,67.8725242 L217.342068,67.8725242 L217.342068,2.07757912 L235.178417,2.07757912 C241.356936,2.07757912 247.238128,5.63735568 247.238128,14.327689 L247.238128,25.2935132 C247.238128,29.2451615 245.76783,32.9992275 241.258916,34.3823044 C245.57179,36.065048 247.238128,39.3218648 247.238128,43.4710956 L247.238128,55.6224143 C247.238128,64.4148319 241.356936,67.8725242 235.178417,67.8725242 L235.178417,67.8725242 Z" id="Fill-7" fill="#FEFEFE"></path><g id="Group-11" transform="translate(253.907546, 0.000000)"><mask id="mask-2" fill="white"><use xlink:href="#path-1"></use></mask><g id="Clip-10"></g><path d="M18.8242425,15.219115 C18.8242425,13.4408733 17.5499842,12.35417 15.8836465,12.35417 C14.2173087,12.35417 12.8450306,13.4408733 12.8450306,15.219115 L12.8450306,54.7323055 C12.8450306,56.5105473 14.2173087,57.5972505 15.8836465,57.5972505 C17.5499842,57.5972505 18.8242425,56.5105473 18.8242425,54.7323055 L18.8242425,15.219115 Z M15.8836465,69.155822 C6.96383846,69.155822 0.00442781051,62.9319758 0.00442781051,53.9452689 L0.00442781051,16.0094447 C0.00442781051,7.01944469 6.96383846,0.894389744 15.8836465,0.894389744 C24.7054346,0.894389744 31.6648453,7.01944469 31.6648453,16.0094447 L31.6648453,53.9452689 C31.6648453,62.9319758 24.7054346,69.155822 15.8836465,69.155822 L15.8836465,69.155822 Z" id="Fill-9" fill="#FEFEFE" mask="url(#mask-2)"></path></g><polygon id="Fill-12" fill="#FEFEFE" points="313.008806 13.6368092 313.008806 67.8731828 300.462263 67.8731828 300.462263 13.6368092 291.444435 13.6368092 291.444435 2.07823773 322.026634 2.07823773 322.026634 13.6368092"></polygon><polygon id="Fill-14" fill="#FEFEFE" points="348.598186 13.6368092 348.598186 67.8731828 336.051643 67.8731828 336.051643 13.6368092 327.033815 13.6368092 327.033815 2.07823773 357.616014 2.07823773 357.616014 13.6368092"></polygon><polygon id="Fill-16" fill="#FEFEFE" points="363.722325 67.8721949 363.722325 2.08054286 376.268869 2.08054286 376.268869 56.6099971 389.501551 56.6099971 389.501551 67.8721949"></polygon><g id="Group-20" transform="translate(395.346802, 1.329882)"><mask id="mask-4" fill="white"><use xlink:href="#path-3"></use></mask><g id="Clip-19"></g><polygon id="Fill-18" fill="#FEFEFE" mask="url(#mask-4)" points="0.308762585 66.5423132 0.308762585 0.7506612 26.8721469 0.7506612 26.8721469 11.9140678 12.8553057 11.9140678 12.8553057 27.62187 22.0691734 27.62187 22.0691734 37.8961557 12.8553057 37.8961557 12.8553057 54.9837418 26.8721469 54.9837418 26.8721469 66.5423132"></polygon></g><g id="Group-8" transform="translate(77.716033, 4.321127)" fill="#FFF2D6"><polygon id="Fill-21" points="86.1408405 13.5831326 84.4058888 15.331737 84.4058888 22.8036454 86.1408405 24.5522498 97.7888682 24.5522498 99.5238198 22.8036454 99.5238198 15.331737 97.7888682 13.5831326"></polygon><path d="M107.289281,24.9381941 L102.966604,29.2948864 L80.9611439,29.2948864 L76.6384677,24.9381941 L76.6384677,13.1985055 L80.9611439,8.83852015 L102.966604,8.83852015 L107.289281,13.1985055 L107.289281,24.9381941 Z M70.969652,17.4959231 L65.0231133,17.4959231 L65.0231133,13.4356044 L60.0861793,13.4356044 L60.0861793,24.8492821 L64.8499449,24.8492821 L64.8499449,29.2948864 L47.5527055,29.2948864 L47.5527055,24.8492821 L52.3197384,24.8492821 L52.3197384,13.4356044 L47.3762697,13.4356044 L47.3762697,17.4959231 L41.4362657,17.4959231 L41.4362657,8.83852015 L70.969652,8.83852015 L70.969652,17.4959231 Z M153.335747,47.3275751 C149.901785,39.2760916 142.135344,40.3199853 142.217027,40.3232784 C137.76039,40.3232784 135.75425,33.5560806 133.434447,25.7219377 C131.349891,18.7011758 129.072563,11.0909597 124.4885,6.66511355 C124.498302,6.49387546 124.501569,6.32922344 124.501569,6.15798535 C124.501569,5.90771429 124.485233,5.6640293 124.465629,5.42034432 C124.446025,5.22605495 124.416619,5.03505861 124.383946,4.84735531 C124.334936,4.55098168 124.272856,4.2579011 124.187906,3.97469963 C124.165035,3.91213187 124.138896,3.85615018 124.116025,3.79358242 C123.364539,1.60371062 121.485825,2.23820962e-13 118.247902,2.23820962e-13 L115.03285,2.23820962e-13 L31.7682393,2.23820962e-13 L14.0593164,39.2003516 L9.73664025,39.2003516 L9.73664025,41.7919744 L4.26325641e-13,41.7919744 C4.26325641e-13,41.7919744 2.17604108,48.4406227 9.73664025,44.9664652 L9.73664025,49.2572967 C9.73664025,49.2572967 15.7289215,57.9377509 15.7289215,63.5523846 L21.4532818,63.5523846 C21.4532818,59.986022 31.8303186,52.0333297 28.3342766,43.6031465 C28.4094252,43.8007289 32.480517,39.309022 36.7966586,34.4748388 C38.4368577,37.9786337 40.8285425,40.04337 43.2104253,40.8962674 C43.3313165,41.4001026 43.4946829,41.9072308 43.5927028,42.4011868 C43.8638911,43.7414542 44.0337922,45.111359 43.9978516,46.4779707 C43.9815149,47.1069414 43.9259703,47.7359121 43.8116138,48.3484176 C43.7299306,48.7830989 43.2398313,49.7018571 43.3051778,50.0937289 C43.9847823,54.2725971 40.9200277,59.7686813 36.2020047,63.5523846 L42.6778507,63.5523846 C42.6778507,63.5523846 42.9523063,58.7412527 45.5204269,58.7412527 C46.8632991,58.7412527 47.2161706,58.026663 47.3468637,56.7917729 C47.5821114,54.5360403 47.6866659,52.3725128 48.3237951,50.1727619 C49.0524094,46.8171538 50.4573609,43.3364103 52.2249858,40.1783846 C54.6722152,43.4615458 56.8809296,47.1958535 57.0050881,50.0937289 C59.5895453,54.2725971 59.0275647,59.7686813 56.0314241,63.5523846 L62.1184579,63.5523846 C62.1184579,63.5523846 60.2005358,58.7412527 62.7686564,58.7412527 C67.0390553,58.7412527 58.6812278,53.6699707 62.2458837,39.2003516 L66.5554906,39.2003516 L96.7129368,39.2003516 C98.3466012,43.237619 103.074426,45.5065238 108.050568,45.6086081 C107.33829,51.3878938 103.53512,57.9608022 97.6702641,63.5523846 L104.714625,63.5523846 C105.315814,62.6402125 106.096705,61.4711832 106.978884,60.0881062 C111.896214,60.0881062 108.700767,53.6765568 113.99384,44.6338681 C116.460673,43.7414542 118.672655,42.2101905 120.23117,39.9775092 C126.386818,49.6392894 121.988993,59.0409194 116.921366,63.5523846 L123.018202,63.5523846 L125.034144,60.0452967 C125.034144,60.0452967 127.321274,59.9530916 127.321274,56.4460037 L127.321274,38.001685 C125.233451,37.2870952 123.619391,36.1411172 122.322261,34.8008498 C122.962657,31.0731282 122.29939,26.3113919 119.685527,20.4366081 C120.067804,19.3828352 120.450082,18.3586996 120.822557,17.3839597 C121.24731,16.2577399 121.658993,15.200674 122.044538,14.2325201 C122.423548,13.2643663 122.769885,12.3851245 123.070479,11.6310183 C123.478895,10.5970037 123.782757,9.80338095 123.965727,9.27978755 C127.579393,13.485 129.562662,20.1632857 131.395634,26.3377363 C133.852665,34.6230256 136.172468,42.4538755 142.350987,42.4538755 L142.364057,42.4538755 C142.422869,42.4472894 142.765938,42.4242381 143.226632,42.4110659 C144.151286,44.8577949 146.889307,48.549293 152.303271,48.8193223 L154.008817,48.9049414 L153.335747,47.3275751 Z" id="Fill-23"></path></g></g></g></g></g></g></svg> 