<?xml version="1.0" encoding="UTF-8"?> <svg xmlns="http://www.w3.org/2000/svg" xmlns:xlink="http://www.w3.org/1999/xlink" width="467px" height="313px" viewBox="0 0 467 313"><!-- Generator: Sketch 54.1 (76490) - https://sketchapp.com --><title>higher_standard</title><desc>Created with Sketch.</desc><g id="Ian-From-Wireframes" stroke="none" stroke-width="1" fill="none" fill-rule="evenodd"><g id="1-Home" transform="translate(-362.000000, -5179.000000)" fill="#FBF4EC"><path d="M606.270188,5274.01919 C606.270188,5278.52708 604.707035,5282.54851 598.772243,5281.60477 C593.132569,5280.70968 591.595361,5277.0158 591.478611,5273.03329 C591.478611,5273.01059 591.468882,5272.99437 591.468882,5272.97492 L591.468882,5272.52088 L591.468882,5270.62368 L591.468882,5270.55557 C591.468882,5269.96533 591.945611,5269.56319 592.535847,5269.65724 L595.285958,5270.09505 C595.876194,5270.1891 596.356167,5270.74367 596.352924,5271.33391 L596.352924,5271.39878 L596.352924,5273.39327 C596.352924,5275.71857 597.066396,5277.16174 598.914938,5277.45686 C600.815368,5277.75522 601.3375,5276.03639 601.3375,5273.99649 C601.3375,5270.57827 600.578625,5269.41725 597.20909,5266.17741 C593.79091,5262.92783 591.945611,5260.92685 591.945611,5256.23086 C591.942368,5252.05376 593.223375,5248.03558 598.963583,5248.95013 C604.347056,5249.80631 605.527528,5253.54558 605.679951,5256.84056 C605.683194,5256.87623 605.69941,5256.90867 605.69941,5256.94434 L605.69941,5257.65782 L605.69941,5259.36368 C605.69941,5259.95392 605.225924,5260.35607 604.632444,5260.26202 C603.734118,5260.11932 602.829306,5259.97662 601.927736,5259.83393 C601.3375,5259.74312 600.860771,5259.18855 600.864014,5258.59831 L600.864014,5257.0319 C600.860771,5254.80066 600.481333,5253.41262 598.869535,5253.15641 C597.257736,5252.90021 596.829653,5254.20717 596.829653,5256.29572 C596.829653,5258.57237 597.254493,5259.73339 600.056493,5262.2176 C604.801083,5266.48226 606.270188,5268.70377 606.270188,5274.01919 L606.270188,5274.01919 Z M735.123271,5281.75719 C735.123271,5285.02947 734.653028,5287.12774 731.426188,5287.38071 C730.904056,5287.41962 730.385167,5287.45854 729.859792,5287.49746 L729.859792,5264.20237 C730.385167,5264.16669 730.904056,5264.12778 731.426188,5264.08562 C734.653028,5263.83265 735.123271,5265.62284 735.123271,5268.52216 L735.123271,5281.75719 Z M731.756979,5259.83717 C729.850062,5259.98635 727.946389,5260.11608 726.042715,5260.22959 C725.449236,5260.26526 724.97575,5260.76794 724.97575,5261.35818 L724.97575,5290.91243 C724.97575,5291.50267 725.452479,5291.95346 726.042715,5291.92103 C727.946389,5291.80752 729.850062,5291.67779 731.756979,5291.52861 C739.303569,5290.9027 740.107847,5285.41539 740.107847,5280.59941 L740.107847,5268.40865 C740.11109,5262.50948 738.492806,5259.28909 731.756979,5259.83717 L731.756979,5259.83717 Z M715.528729,5269.72859 C715.531972,5273.18896 714.581757,5274.16837 712.019743,5274.21053 L710.881431,5274.2235 L710.881431,5264.78288 C711.341944,5264.77639 711.799215,5264.76991 712.259729,5264.76342 C715.058486,5264.71802 715.528729,5266.16768 715.528729,5268.63567 L715.528729,5269.72859 Z M712.781861,5260.72253 C710.874944,5260.75497 708.968028,5260.77118 707.064354,5260.77118 C706.470875,5260.77118 705.997389,5261.24791 705.997389,5261.83491 L705.997389,5291.3924 C705.997389,5291.98264 706.470875,5292.46262 707.064354,5292.46262 C707.978896,5292.46262 708.899924,5292.45938 709.817708,5292.44965 C710.404701,5292.44641 710.881431,5291.96319 710.881431,5291.37294 L710.881431,5278.25466 L712.019743,5278.24169 C714.867146,5278.19628 715.343875,5279.07516 715.343875,5282.92146 C715.343875,5284.92893 715.308201,5289.09954 715.541701,5291.4151 C715.596833,5291.95346 716.06059,5292.34263 716.602181,5292.32966 C717.477806,5292.30371 718.350187,5292.27452 719.222569,5292.24533 C719.841993,5292.21939 720.334937,5291.68104 720.286292,5291.06485 C720.101437,5288.72334 720.133868,5284.71489 720.133868,5282.48364 C720.133868,5279.29893 719.540389,5277.76495 718.502611,5276.86013 C718.019396,5276.43529 718.029125,5275.69911 718.522069,5275.24832 C719.507958,5274.34998 720.467903,5272.67655 720.46466,5269.32969 L720.46466,5268.14272 C720.467903,5262.44461 717.6205,5260.64146 712.781861,5260.72253 L712.781861,5260.72253 Z M694.144021,5279.27948 C693.722424,5279.26326 693.304069,5279.25029 692.885715,5279.23407 C692.240347,5279.20813 691.740917,5278.61789 691.828479,5277.98548 C692.441417,5273.42246 693.287854,5267.55247 693.375417,5265.16232 C693.440278,5265.16556 693.501896,5265.16556 693.566757,5265.16881 C693.917007,5268.47027 694.510486,5273.12085 695.198014,5278.09575 C695.285576,5278.74112 694.789389,5279.30218 694.144021,5279.27948 L694.144021,5279.27948 Z M696.076882,5260.60254 C694.390493,5260.55065 692.697618,5260.49228 691.011229,5260.41768 C690.489097,5260.39498 690.041556,5260.75497 689.957236,5261.26737 C688.361653,5271.04852 686.769312,5280.81994 685.176972,5290.58163 C685.073194,5291.22376 685.575868,5291.84319 686.230965,5291.87887 C687.161722,5291.92751 688.089236,5291.97616 689.023236,5292.01832 C689.561583,5292.04426 690.009125,5291.66482 690.080472,5291.1362 C690.365861,5288.94063 690.648007,5286.74182 690.930153,5284.54625 C691.0015,5284.01762 691.455528,5283.63494 691.990632,5283.65764 C692.995979,5283.69656 694.007812,5283.73548 695.01316,5283.76791 C695.541778,5283.78412 695.995806,5284.18951 696.067153,5284.71489 C696.391458,5286.94613 696.715764,5289.17738 697.036826,5291.40538 C697.11466,5291.934 697.562201,5292.3329 698.094062,5292.34911 C699.073465,5292.37182 700.052868,5292.39452 701.035514,5292.40749 C701.693854,5292.42046 702.196528,5291.83346 702.086264,5291.1816 C700.432306,5281.3064 698.78159,5271.42148 697.130875,5261.52358 C697.043312,5261.00793 696.599014,5260.61876 696.076882,5260.60254 L696.076882,5260.60254 Z M676.959069,5281.79287 C676.959069,5285.0619 676.485583,5287.07586 673.258743,5286.81641 C672.736611,5286.77425 672.217722,5286.72884 671.69559,5286.68668 L671.69559,5263.39159 C672.217722,5263.437 672.736611,5263.47916 673.258743,5263.52456 C676.485583,5263.78401 676.962313,5265.65851 676.959069,5268.55783 L676.959069,5281.79287 Z M673.592778,5259.32801 C671.685861,5259.17234 669.782188,5259.00694 667.875271,5258.83182 C667.285035,5258.77668 666.808306,5259.21126 666.808306,5259.79826 L666.808306,5289.35574 C666.808306,5289.94599 667.285035,5290.46812 667.875271,5290.52326 C669.782188,5290.69838 671.685861,5290.86378 673.592778,5291.01945 C681.136125,5291.60969 681.943646,5286.29751 681.940403,5281.4718 L681.940403,5269.28104 C681.940403,5263.38835 680.328604,5259.86312 673.592778,5259.32801 L673.592778,5259.32801 Z M661.350243,5259.2599 L661.350243,5288.81415 C661.350243,5289.40439 660.873514,5289.83248 660.283278,5289.76762 C659.099563,5289.64438 657.912604,5289.51466 656.728889,5289.38493 C656.235944,5289.3298 655.811104,5288.95036 655.691111,5288.46065 C654.209035,5282.39608 652.726958,5276.32502 651.244882,5270.24748 C650.816799,5268.53837 650.583299,5267.13412 650.391958,5266.16119 C650.378986,5266.15795 650.362771,5266.15795 650.346556,5266.1547 C650.583299,5270.02695 650.534653,5274.28837 650.534653,5279.98323 L650.534653,5287.59799 C650.534653,5288.18823 650.057924,5288.60983 649.464444,5288.53849 C648.660167,5288.43795 647.852646,5288.33742 647.045125,5288.23688 C646.458132,5288.16229 645.97816,5287.62394 645.97816,5287.03694 L645.97816,5257.47945 C645.97816,5256.88921 646.458132,5256.47085 647.045125,5256.54544 C648.300188,5256.70435 649.552007,5256.85678 650.800583,5257.00596 C651.287042,5257.06433 651.711882,5257.44377 651.835118,5257.93024 C653.171257,5263.21323 654.510639,5268.49621 655.846778,5273.77271 C656.417556,5276.15963 656.748347,5278.09575 657.033736,5279.50325 L657.082382,5279.50649 C656.845639,5275.59209 656.845639,5271.13284 656.845639,5265.96336 L656.845639,5258.77344 C656.845639,5258.1832 657.322368,5257.75835 657.912604,5257.82322 C658.70391,5257.91078 659.491972,5257.9951 660.283278,5258.07942 C660.873514,5258.14104 661.350243,5258.66966 661.350243,5259.2599 L661.350243,5259.2599 Z M634.128035,5273.56516 C633.706438,5273.50678 633.288083,5273.44841 632.869729,5273.39003 C632.224361,5273.29598 631.728174,5272.65709 631.812493,5272.03118 C632.425431,5267.53302 633.271868,5261.74735 633.362674,5259.36692 C633.424292,5259.37665 633.489153,5259.38638 633.547528,5259.39287 C633.901021,5262.73325 634.4945,5267.44545 635.182028,5272.49494 C635.26959,5273.15004 634.773403,5273.65596 634.128035,5273.56516 L634.128035,5273.56516 Z M636.064139,5255.09578 C634.371264,5254.86228 632.684875,5254.62553 630.995243,5254.3823 C630.469868,5254.30771 630.025569,5254.62553 629.94125,5255.12821 C628.34891,5264.75045 626.753326,5274.36944 625.160986,5283.98519 C625.057208,5284.62084 625.556639,5285.28243 626.214979,5285.37972 C627.145736,5285.51593 628.076493,5285.65214 629.00725,5285.78511 C629.542354,5285.86294 629.993139,5285.53215 630.064486,5285.01001 C630.349875,5282.84038 630.632021,5280.67076 630.91741,5278.50113 C630.982271,5277.979 631.436299,5277.64496 631.974646,5277.72279 C632.979993,5277.86549 633.988583,5278.00494 634.997174,5278.14764 C635.525792,5278.21899 635.976576,5278.67302 636.05441,5279.20813 C636.375472,5281.4718 636.699778,5283.73872 637.02084,5286.00564 C637.098674,5286.54075 637.549458,5286.99153 638.078076,5287.06288 C639.057479,5287.19585 640.036882,5287.32882 641.019528,5287.45854 C641.677868,5287.5461 642.177299,5287.01748 642.070278,5286.35265 C640.416319,5276.28286 638.768847,5266.20984 637.114889,5256.13032 C637.027326,5255.60494 636.583028,5255.16713 636.064139,5255.09578 L636.064139,5255.09578 Z M623.44541,5254.34663 L623.44541,5256.76597 C623.44541,5257.35297 622.962194,5257.7616 622.375201,5257.67079 C621.379583,5257.52161 620.383965,5257.37243 619.388347,5257.22 C618.798111,5257.13244 618.321382,5257.53458 618.321382,5258.12482 L618.321382,5283.12902 C618.321382,5283.71602 617.84141,5284.1214 617.254417,5284.0306 C616.336632,5283.89114 615.418847,5283.74845 614.501063,5283.609 C613.910826,5283.51819 613.434097,5282.96362 613.434097,5282.37662 L613.434097,5257.37243 C613.434097,5256.78543 612.957368,5256.23086 612.367132,5256.14005 C611.384486,5255.98763 610.405083,5255.8352 609.425681,5255.67954 C608.835444,5255.58873 608.358715,5255.03416 608.358715,5254.44392 L608.358715,5252.02782 C608.358715,5251.43758 608.835444,5251.03544 609.425681,5251.12624 C613.742188,5251.80405 618.058694,5252.46888 622.375201,5253.1175 C622.962194,5253.2083 623.442167,5253.75639 623.44541,5254.34663 L623.44541,5254.34663 Z M576.142201,5254.93038 C576.142201,5258.394 575.195229,5259.19504 572.633215,5258.80263 C572.253778,5258.74425 571.87434,5258.68588 571.49166,5258.6275 L571.49166,5249.18688 C571.952174,5249.25822 572.412688,5249.32633 572.869958,5249.39768 C575.668715,5249.82576 576.142201,5251.37272 576.142201,5253.83746 L576.142201,5254.93038 Z M573.39209,5245.44435 C571.485174,5245.15248 569.5815,5244.86384 567.674583,5244.57845 C567.084347,5244.49413 566.607618,5244.89952 566.607618,5245.48976 L566.607618,5275.044 C566.607618,5275.63425 567.084347,5276.18233 567.674583,5276.26989 C568.592368,5276.4061 569.510153,5276.54555 570.424694,5276.68501 C571.014931,5276.77257 571.494903,5276.36718 571.49166,5275.77694 L571.49166,5262.6619 C571.87434,5262.72028 572.253778,5262.77541 572.633215,5262.83378 C575.477375,5263.2716 575.950861,5264.24453 575.950861,5268.08758 C575.954104,5270.0983 575.918431,5274.26242 576.155174,5276.62014 C576.207062,5277.16823 576.674062,5277.64172 577.215653,5277.72604 C578.088035,5277.86225 578.960417,5277.99521 579.832799,5278.13142 C580.455465,5278.22872 580.945167,5277.78441 580.896521,5277.1585 C580.711667,5274.78131 580.74734,5270.77935 580.744097,5268.5481 C580.744097,5265.36339 580.150618,5263.71266 579.116083,5262.61001 C578.629625,5262.09112 578.639354,5261.35818 579.135542,5261.00144 C580.118187,5260.2912 581.078132,5258.80911 581.074889,5255.45901 L581.074889,5254.27528 C581.074889,5248.58042 578.230729,5246.18702 573.39209,5245.44435 L573.39209,5245.44435 Z M562.738653,5272.24846 C562.631632,5273.02356 562.524611,5273.79866 562.41759,5274.57376 C562.343,5275.09265 561.892215,5275.4202 561.357111,5275.34237 C557.912986,5274.84618 554.465618,5274.36296 551.021493,5273.90244 C550.431257,5273.82136 549.954528,5273.27977 549.954528,5272.69277 L549.954528,5243.13852 C549.954528,5242.54504 550.431257,5242.12992 551.021493,5242.211 C553.197583,5242.50288 555.370431,5242.81421 557.546521,5243.11906 C557.565979,5243.1223 557.582194,5243.11258 557.604896,5243.11582 C558.775639,5243.28122 559.952868,5243.44986 561.126854,5243.6185 C561.71709,5243.70282 562.193819,5244.2509 562.193819,5244.84114 L562.193819,5247.26048 C562.193819,5247.85072 561.71709,5248.25935 561.126854,5248.17179 C559.385333,5247.92207 557.647056,5247.6756 555.908778,5247.43237 C555.318542,5247.35129 554.841812,5247.76316 554.841812,5248.3534 L554.841812,5254.37581 C554.841812,5254.96606 555.318542,5255.51089 555.908778,5255.59197 C557.520576,5255.81899 559.135618,5256.046 560.747417,5256.27951 C561.337653,5256.36383 561.814382,5256.91191 561.814382,5257.49891 L561.814382,5259.87285 C561.814382,5260.45984 561.337653,5260.86847 560.747417,5260.78415 C559.135618,5260.55389 557.520576,5260.32364 555.908778,5260.09986 C555.318542,5260.01879 554.841812,5260.43066 554.841812,5261.0209 L554.841812,5268.84647 C554.841812,5269.43671 555.318542,5269.98155 555.908778,5270.06262 C557.83191,5270.3318 559.758285,5270.60422 561.681417,5270.88312 C562.330028,5270.97717 562.829458,5271.61931 562.738653,5272.24846 L562.738653,5272.24846 Z M544.545111,5242.43477 L544.545111,5271.99226 C544.545111,5272.5825 544.068382,5273.00086 543.478146,5272.92627 C542.560361,5272.80952 541.642576,5272.69925 540.728035,5272.58899 C540.137799,5272.51764 539.657826,5271.98253 539.657826,5271.39229 L539.657826,5258.81884 C539.657826,5258.2286 539.181097,5257.69349 538.590861,5257.62539 C537.54984,5257.50215 536.502333,5257.38216 535.461313,5257.26216 C534.871076,5257.1973 534.391104,5257.62214 534.391104,5258.21239 L534.391104,5270.78259 C534.391104,5271.37283 533.914375,5271.79767 533.324139,5271.73281 C532.409597,5271.63228 531.491813,5271.53174 530.574028,5271.43769 C529.983792,5271.37607 529.507063,5270.84745 529.507063,5270.25721 L529.507063,5240.70296 C529.507063,5240.11272 529.983792,5239.68463 530.574028,5239.74625 C531.491813,5239.8403 532.409597,5239.94084 533.324139,5240.04137 C533.914375,5240.10623 534.391104,5240.6381 534.391104,5241.22834 L534.391104,5251.61595 C534.391104,5252.20619 534.871076,5252.73806 535.461313,5252.80292 C536.502333,5252.92291 537.54984,5253.04291 538.590861,5253.16614 C539.181097,5253.23425 539.657826,5252.81265 539.657826,5252.22565 L539.657826,5241.8348 C539.657826,5241.2478 540.137799,5240.8262 540.728035,5240.89755 C541.642576,5241.00781 542.560361,5241.11808 543.478146,5241.23483 C544.068382,5241.30942 544.545111,5241.84777 544.545111,5242.43477 L544.545111,5242.43477 Z M524.334389,5254.13583 L524.334389,5269.7448 C524.334389,5270.33504 523.85766,5270.76637 523.267424,5270.71124 C522.660972,5270.65611 522.054521,5270.60098 521.444826,5270.54584 C520.906479,5270.50044 520.449208,5270.05938 520.38759,5269.51454 C520.325972,5269.00862 520.280569,5268.4573 520.254625,5268.07137 C519.398458,5270.08208 517.549917,5270.6853 515.510035,5270.52639 C510.862736,5270.16965 509.344986,5266.72549 509.341743,5261.31278 L509.341743,5246.46268 C509.341743,5241.29969 511.336222,5237.55717 516.88509,5237.99499 C523.526868,5238.54631 524.24034,5243.53418 524.24034,5246.93942 L524.24034,5247.98369 C522.612326,5247.83127 520.981069,5247.68208 519.353056,5247.54587 L519.353056,5246.26486 C519.353056,5244.60764 519.067667,5242.6326 516.839688,5242.45099 C515.085194,5242.31153 514.323076,5243.48877 514.323076,5246.00541 L514.323076,5262.22733 C514.323076,5264.79261 515.036549,5266.17092 516.839688,5266.31362 C518.924972,5266.48226 519.447104,5264.72775 519.450347,5261.45223 L519.450347,5257.92051 C519.447104,5257.33027 518.970375,5256.81137 518.380139,5256.76273 C518.175826,5256.74651 517.968271,5256.72705 517.763958,5256.71084 C517.173722,5256.66219 516.696993,5256.14654 516.696993,5255.55954 L516.696993,5253.47099 C516.696993,5252.88075 517.173722,5252.43969 517.763958,5252.48834 C519.599528,5252.64076 521.431854,5252.79967 523.267424,5252.96832 C523.85766,5253.02345 524.334389,5253.54883 524.334389,5254.13583 L524.334389,5254.13583 Z M504.506347,5238.70522 L504.506347,5268.26271 C504.503104,5268.84971 504.026375,5269.30374 503.436139,5269.27455 C502.518354,5269.22591 501.603812,5269.18375 500.686028,5269.14159 C500.095792,5269.11564 499.619062,5268.61945 499.619062,5268.02921 L499.619062,5238.47496 C499.619062,5237.88472 500.095792,5237.4242 500.686028,5237.45339 C501.603812,5237.49231 502.518354,5237.53447 503.436139,5237.58311 C504.026375,5237.6123 504.503104,5238.11822 504.506347,5238.70522 L504.506347,5238.70522 Z M494.161,5238.28362 L494.161,5267.83787 C494.161,5268.42811 493.681028,5268.89187 493.094035,5268.8789 C492.17625,5268.8562 491.258465,5268.83349 490.340681,5268.81728 C489.750444,5268.80755 489.273715,5268.32433 489.273715,5267.73409 L489.273715,5255.16388 C489.273715,5254.5704 488.793743,5254.08718 488.20675,5254.08069 C487.162486,5254.06772 486.118222,5254.05799 485.077201,5254.05475 C484.483722,5254.05475 484.010236,5254.53148 484.006993,5255.12172 L484.006993,5267.69193 C484.006993,5268.28217 483.530264,5268.7589 482.940028,5268.76215 C482.022243,5268.76215 481.107701,5268.76863 480.189917,5268.7816 C479.599681,5268.78809 479.119708,5268.3146 479.119708,5267.7276 L479.119708,5238.17011 C479.119708,5237.57987 479.599681,5237.09665 480.189917,5237.09016 C481.107701,5237.08043 482.022243,5237.07395 482.940028,5237.07071 C483.530264,5237.06746 484.010236,5237.54744 484.006993,5238.13768 L484.006993,5248.52529 C484.010236,5249.11553 484.483722,5249.59551 485.077201,5249.59551 C486.118222,5249.59875 487.162486,5249.60848 488.20675,5249.62145 C488.796986,5249.62794 489.273715,5249.15445 489.273715,5248.56745 L489.273715,5238.1766 C489.273715,5237.5896 489.750444,5237.11611 490.340681,5237.12908 C491.258465,5237.14205 492.17625,5237.16476 493.094035,5237.18746 C493.684271,5237.20043 494.161,5237.69338 494.161,5238.28362 L494.161,5238.28362 Z M459.865688,5256.69138 C459.450576,5256.72381 459.032222,5256.75624 458.613868,5256.79191 C457.9685,5256.8438 457.469069,5256.31518 457.553389,5255.66981 C458.169569,5251.03219 459.012764,5245.05843 459.100326,5242.66179 L459.291667,5242.64557 C459.641917,5245.90812 460.235396,5250.4906 460.922924,5255.39739 C461.010486,5256.03303 460.514299,5256.64273 459.865688,5256.69138 L459.865688,5256.69138 Z M461.801792,5237.81013 C460.11216,5237.93012 458.425771,5238.05985 456.736139,5238.20903 C456.210764,5238.25443 455.763222,5238.67279 455.682146,5239.19817 C454.089806,5249.19336 452.497465,5259.20477 450.905125,5269.22915 C450.801347,5269.89074 451.300778,5270.42261 451.955875,5270.3545 C452.886632,5270.25721 453.817389,5270.1664 454.744903,5270.07884 C455.28325,5270.02695 455.737278,5269.58913 455.805382,5269.05078 C456.087528,5266.81305 456.372917,5264.57856 456.658306,5262.34408 C456.72641,5261.80573 457.177194,5261.36791 457.715542,5261.32251 C458.720889,5261.23819 459.729479,5261.16035 460.738069,5261.08576 C461.269931,5261.04684 461.717472,5261.40683 461.795306,5261.92572 C462.116368,5264.12453 462.440674,5266.32335 462.761736,5268.5254 C462.839569,5269.04429 463.290354,5269.40428 463.818972,5269.3686 C464.798375,5269.30698 465.777778,5269.25185 466.757181,5269.19996 C467.418764,5269.16429 467.918194,5268.5481 467.811174,5267.90273 C466.157215,5258.13455 464.5065,5248.3761 462.855785,5238.63063 C462.768222,5238.12471 462.323924,5237.77446 461.801792,5237.81013 L461.801792,5237.81013 Z M788.069396,5281.0956 C780.967104,5283.36252 773.868056,5285.23378 766.762521,5286.78722 C765.452326,5287.07261 764.232938,5286.08671 764.232938,5284.75056 L764.232938,5236.19832 C764.232938,5235.43943 763.830799,5234.7519 763.182188,5234.37894 C761.839563,5233.61358 760.247222,5233.00063 758.573806,5232.50768 C756.430146,5231.87852 756.595542,5228.78786 758.810549,5228.37599 C767.955965,5226.67986 777.104625,5224.4551 786.250042,5221.61091 C788.007778,5221.06607 789.557958,5222.8141 788.789354,5224.49077 C784.24259,5234.43732 779.695826,5244.22495 775.145819,5253.87314 C774.837729,5254.52824 774.879889,5255.29361 775.256083,5255.89682 C779.92284,5263.38187 784.583111,5270.71448 789.249868,5277.88495 C790.008743,5279.05895 789.424993,5280.66427 788.069396,5281.0956 L788.069396,5281.0956 Z M758.333819,5300.33359 C758.333819,5301.38435 757.565215,5302.30539 756.527437,5302.487 C649.386611,5321.3196 542.245785,5268.49946 435.108201,5287.05315 C433.820708,5287.27368 432.666181,5286.31697 432.666181,5285.01974 L432.666181,5229.25811 C432.666181,5228.20735 433.434785,5227.28631 434.472563,5227.1047 C541.613389,5208.2721 648.754215,5261.09225 755.895042,5242.53855 C757.176049,5242.31802 758.333819,5243.27473 758.333819,5244.57196 L758.333819,5300.33359 Z M431.475979,5301.34868 C422.564063,5303.02535 413.655389,5305.21119 404.746715,5307.98079 C402.988979,5308.52563 401.442042,5306.78085 402.207403,5305.10093 C406.754167,5295.15763 411.304174,5285.36675 415.850937,5275.71857 C416.162271,5275.06346 416.116868,5274.29809 415.740674,5273.69488 C411.07716,5266.20984 406.413646,5258.87722 401.750132,5251.70675 C400.988014,5250.536 401.575007,5248.93067 402.927361,5248.4961 C410.029653,5246.23242 417.131944,5244.35792 424.234236,5242.80448 C425.544431,5242.51909 426.767063,5243.50499 426.767063,5244.84114 L426.767063,5293.60743 C426.767063,5294.25605 427.052451,5294.86899 427.564854,5295.25816 C428.644792,5296.08191 430.110653,5296.72728 431.745153,5297.2332 C433.859625,5297.88506 433.674771,5300.93356 431.475979,5301.34868 L431.475979,5301.34868 Z M781.962722,5254.08069 C781.580042,5253.47748 781.531396,5252.71211 781.836243,5252.05052 C787.420785,5240.0284 793.005326,5227.78251 798.589868,5215.29014 C799.348743,5213.58752 797.740188,5211.81679 795.992181,5212.44595 C777.691618,5219.0359 759.394299,5223.0249 741.093736,5225.12318 C740.004069,5225.24641 739.167361,5226.17394 739.167361,5227.2701 L739.167361,5236.99611 C739.167361,5238.10849 738.314438,5239.06196 737.205313,5239.17223 C634.309646,5249.482 531.417222,5201.64323 428.521556,5222.32763 C427.506479,5222.52871 426.767063,5223.43677 426.767063,5224.46807 L426.767063,5234.60596 C426.767063,5235.62105 426.047104,5236.49992 425.051486,5236.71721 C414.349403,5239.02629 403.647319,5242.07479 392.945236,5246.04433 C391.638285,5246.52755 391.11291,5248.11017 391.878271,5249.2485 C397.595778,5257.75187 403.316528,5266.51469 409.034035,5275.51101 C409.419958,5276.11422 409.468604,5276.87959 409.160514,5277.54118 C403.579215,5289.5633 397.991431,5301.8092 392.406889,5314.30481 C391.648014,5316.00419 393.256569,5317.77491 395.004576,5317.14575 C413.305139,5310.5558 431.602458,5306.5668 449.903021,5304.46853 C450.992687,5304.34529 451.826153,5303.41777 451.826153,5302.3216 L451.826153,5292.59559 C451.826153,5291.48321 452.685563,5290.53299 453.791444,5290.42272 C556.687111,5280.10971 659.579535,5327.94847 762.478444,5307.26407 C763.490278,5307.05975 764.232938,5306.15493 764.232938,5305.12363 L764.232938,5294.98574 C764.232938,5293.97066 764.952896,5293.09178 765.945271,5292.87449 C776.647354,5290.56542 787.352681,5287.51691 798.054764,5283.54738 C799.358472,5283.06416 799.88709,5281.48153 799.121729,5280.34645 C793.400979,5271.83984 787.680229,5263.07702 781.962722,5254.08069 L781.962722,5254.08069 Z M784.119354,5422.32877 L784.119354,5425.52321 C784.119354,5426.05184 783.688028,5426.48317 783.15941,5426.48317 L780.094722,5426.48317 C779.566104,5426.48317 779.134778,5426.91126 779.134778,5427.43988 L779.134778,5442.1343 C779.134778,5442.66293 778.706694,5443.09101 778.178076,5443.09101 L773.290792,5443.09101 C772.758931,5443.09101 772.330847,5442.66293 772.330847,5442.1343 L772.330847,5427.43988 C772.330847,5426.91126 771.902764,5426.48317 771.370903,5426.48317 L768.306215,5426.48317 C767.777597,5426.48317 767.349514,5426.05184 767.349514,5425.52321 L767.349514,5422.32877 C767.349514,5421.79691 767.777597,5421.37206 768.306215,5421.37206 L783.15941,5421.37206 C783.688028,5421.37206 784.119354,5421.79691 784.119354,5422.32877 L784.119354,5422.32877 Z M763.516222,5422.32877 L763.516222,5442.1343 C763.516222,5442.66293 763.084896,5443.09101 762.556278,5443.09101 L757.672236,5443.09101 C757.140375,5443.09101 756.715535,5442.66293 756.715535,5442.1343 L756.715535,5435.55408 C756.715535,5435.02546 756.284208,5434.59413 755.75559,5434.59413 L750.070514,5434.59413 C749.541896,5434.59413 749.110569,5435.02546 749.110569,5435.55408 L749.110569,5442.1343 C749.110569,5442.66293 748.682486,5443.09101 748.150625,5443.09101 L743.26334,5443.09101 C742.734722,5443.09101 742.306639,5442.66293 742.306639,5442.1343 L742.306639,5422.32877 C742.306639,5421.79691 742.734722,5421.37206 743.26334,5421.37206 L748.150625,5421.37206 C748.682486,5421.37206 749.110569,5421.79691 749.110569,5422.32877 L749.110569,5428.52631 C749.110569,5429.05494 749.541896,5429.48627 750.070514,5429.48627 L755.75559,5429.48627 C756.284208,5429.48627 756.715535,5429.05494 756.715535,5428.52631 L756.715535,5422.32877 C756.715535,5421.79691 757.140375,5421.37206 757.672236,5421.37206 L762.556278,5421.37206 C763.084896,5421.37206 763.516222,5421.79691 763.516222,5422.32877 L763.516222,5422.32877 Z M736.877764,5426.06805 L736.877764,5427.72851 L731.173229,5428.5555 C730.595965,5428.64306 730.077076,5428.19227 730.077076,5427.60852 L730.077076,5427.43988 C730.077076,5426.91126 729.64575,5426.48317 729.117132,5426.48317 L725.510854,5426.48317 C724.978993,5426.48317 724.55091,5426.91126 724.55091,5427.43988 L724.55091,5436.70213 C724.55091,5437.23076 724.978993,5437.66209 725.510854,5437.66209 L729.117132,5437.66209 C729.64575,5437.66209 730.077076,5437.23076 730.077076,5436.70213 L730.077076,5436.19297 C730.077076,5435.66435 729.64575,5435.23302 729.117132,5435.23302 L728.28691,5435.23302 C727.758292,5435.23302 727.326965,5434.80493 727.326965,5434.2763 L727.326965,5431.39969 C727.326965,5430.87106 727.758292,5430.43973 728.28691,5430.43973 L735.924306,5430.43973 C736.452924,5430.43973 736.877764,5430.87106 736.877764,5431.39969 L736.877764,5437.75614 C736.877764,5440.50303 734.993549,5443.09101 730.712715,5443.09101 L724.868729,5443.09101 C720.237646,5443.09101 717.743736,5440.5387 717.743736,5436.95834 L717.743736,5426.9599 C717.743736,5422.96766 720.811667,5421.37206 724.839542,5421.37206 L731.351597,5421.37206 C735.635674,5421.37206 736.877764,5423.31792 736.877764,5426.06805 L736.877764,5426.06805 Z M712.318104,5422.32877 L712.318104,5442.1343 C712.318104,5442.66293 711.886778,5443.09101 711.35816,5443.09101 L706.470875,5443.09101 C705.939014,5443.09101 705.514174,5442.66293 705.514174,5442.1343 L705.514174,5422.32877 C705.514174,5421.79691 705.939014,5421.37206 706.470875,5421.37206 L711.35816,5421.37206 C711.886778,5421.37206 712.318104,5421.79691 712.318104,5422.32877 L712.318104,5422.32877 Z M693.06084,5429.80409 C693.06084,5431.3705 692.577625,5431.39969 691.108521,5431.39969 L688.264361,5431.39969 C687.735743,5431.39969 687.30766,5430.9716 687.30766,5430.43973 L687.30766,5426.80099 C687.30766,5426.27237 687.735743,5425.84104 688.264361,5425.84104 L691.108521,5425.84104 C692.642486,5425.84104 693.06084,5425.93833 693.06084,5427.5696 L693.06084,5429.80409 Z M694.400222,5421.37206 L681.463674,5421.37206 C680.931812,5421.37206 680.503729,5421.79691 680.503729,5422.32877 L680.503729,5442.1343 C680.503729,5442.66293 680.931812,5443.09101 681.463674,5443.09101 L686.347715,5443.09101 C686.876333,5443.09101 687.30766,5442.66293 687.30766,5442.1343 L687.30766,5436.83186 C687.30766,5436.29999 687.735743,5435.8719 688.264361,5435.8719 L688.643799,5435.8719 C689.000535,5435.8719 689.328083,5436.07297 689.493479,5436.38755 L692.723563,5442.57861 C692.888958,5442.89319 693.21975,5443.09101 693.573243,5443.09101 L698.852938,5443.09101 C699.59884,5443.09101 700.059354,5442.27051 699.670188,5441.63487 L696.813056,5436.98104 C696.491993,5436.4589 696.712521,5435.74218 697.293028,5435.56057 C698.797806,5435.08383 699.861528,5433.99416 699.861528,5431.72075 L699.861528,5425.62051 C699.861528,5422.29634 698.103792,5421.37206 694.400222,5421.37206 L694.400222,5421.37206 Z M665.335958,5438.6188 L665.335958,5442.1343 C665.335958,5442.66293 664.904632,5443.09101 664.376014,5443.09101 L648.725028,5443.09101 C648.19641,5443.09101 647.768326,5442.66293 647.768326,5442.1343 L647.768326,5422.32877 C647.768326,5421.79691 648.19641,5421.37206 648.725028,5421.37206 L664.217104,5421.37206 C664.745722,5421.37206 665.173806,5421.79691 665.173806,5422.32877 L665.173806,5425.52321 C665.173806,5426.05184 664.745722,5426.48317 664.217104,5426.48317 L655.525715,5426.48317 C654.997097,5426.48317 654.572257,5426.91126 654.572257,5427.43988 L654.572257,5428.52631 C654.572257,5429.05494 654.997097,5429.48627 655.525715,5429.48627 L659.777361,5429.48627 C660.305979,5429.48627 660.734062,5429.91111 660.734062,5430.43973 L660.734062,5433.63742 C660.734062,5434.16604 660.305979,5434.59413 659.777361,5434.59413 L655.525715,5434.59413 C654.997097,5434.59413 654.572257,5435.02546 654.572257,5435.55408 L654.572257,5436.70213 C654.572257,5437.23076 654.997097,5437.66209 655.525715,5437.66209 L664.376014,5437.66209 C664.904632,5437.66209 665.335958,5438.09017 665.335958,5438.6188 L665.335958,5438.6188 Z M643.137243,5438.6188 L643.137243,5442.1343 C643.137243,5442.66293 642.705917,5443.09101 642.177299,5443.09101 L628.634299,5443.09101 C628.105681,5443.09101 627.677597,5442.66293 627.677597,5442.1343 L627.677597,5422.32877 C627.677597,5421.79691 628.105681,5421.37206 628.634299,5421.37206 L633.521583,5421.37206 C634.050201,5421.37206 634.478285,5421.79691 634.478285,5422.32877 L634.478285,5436.70213 C634.478285,5437.23076 634.909611,5437.66209 635.438229,5437.66209 L642.177299,5437.66209 C642.705917,5437.66209 643.137243,5438.09017 643.137243,5438.6188 L643.137243,5438.6188 Z M615.765854,5429.80409 C615.765854,5431.3705 615.285882,5431.39969 613.816778,5431.39969 L610.972618,5431.39969 C610.444,5431.39969 610.015917,5430.9716 610.015917,5430.43973 L610.015917,5426.80099 C610.015917,5426.27237 610.444,5425.84104 610.972618,5425.84104 L613.816778,5425.84104 C615.350743,5425.84104 615.765854,5425.93833 615.765854,5427.5696 L615.765854,5429.80409 Z M617.108479,5421.37206 L604.171931,5421.37206 C603.640069,5421.37206 603.211986,5421.79691 603.211986,5422.32877 L603.211986,5442.1343 C603.211986,5442.66293 603.640069,5443.09101 604.171931,5443.09101 L609.055972,5443.09101 C609.58459,5443.09101 610.015917,5442.66293 610.015917,5442.1343 L610.015917,5436.83186 C610.015917,5436.29999 610.444,5435.8719 610.972618,5435.8719 L617.552778,5435.8719 C620.238028,5435.8719 622.566542,5435.0741 622.566542,5431.72075 L622.566542,5425.62051 C622.566542,5422.29634 620.812049,5421.37206 617.108479,5421.37206 L617.108479,5421.37206 Z M590.979181,5436.70213 C590.979181,5437.23076 590.547854,5437.66209 590.019236,5437.66209 L584.655222,5437.66209 C584.126604,5437.66209 583.698521,5437.23076 583.698521,5436.70213 L583.698521,5427.43988 C583.698521,5426.91126 584.126604,5426.48317 584.655222,5426.48317 L590.019236,5426.48317 C590.547854,5426.48317 590.979181,5426.91126 590.979181,5427.43988 L590.979181,5436.70213 Z M590.661361,5421.37206 L584.01634,5421.37206 C579.417688,5421.37206 576.891347,5423.35035 576.891347,5426.99233 L576.891347,5436.92591 C576.891347,5440.50303 579.385257,5443.09101 584.01634,5443.09101 L590.661361,5443.09101 C595.260014,5443.09101 597.783111,5440.50303 597.783111,5436.92591 L597.783111,5426.99233 C597.783111,5423.35035 595.260014,5421.37206 590.661361,5421.37206 L590.661361,5421.37206 Z M572.263507,5438.6188 L572.263507,5442.1343 C572.263507,5442.66293 571.832181,5443.09101 571.303563,5443.09101 L555.652576,5443.09101 C555.123958,5443.09101 554.695875,5442.66293 554.695875,5442.1343 L554.695875,5422.32877 C554.695875,5421.79691 555.123958,5421.37206 555.652576,5421.37206 L571.144653,5421.37206 C571.673271,5421.37206 572.101354,5421.79691 572.101354,5422.32877 L572.101354,5425.52321 C572.101354,5426.05184 571.673271,5426.48317 571.144653,5426.48317 L562.456507,5426.48317 C561.927889,5426.48317 561.496563,5426.91126 561.496563,5427.43988 L561.496563,5428.52631 C561.496563,5429.05494 561.927889,5429.48627 562.456507,5429.48627 L566.70491,5429.48627 C567.233528,5429.48627 567.664854,5429.91111 567.664854,5430.43973 L567.664854,5433.63742 C567.664854,5434.16604 567.233528,5434.59413 566.70491,5434.59413 L562.456507,5434.59413 C561.927889,5434.59413 561.496563,5435.02546 561.496563,5435.55408 L561.496563,5436.70213 C561.496563,5437.23076 561.927889,5437.66209 562.456507,5437.66209 L571.303563,5437.66209 C571.832181,5437.66209 572.263507,5438.09017 572.263507,5438.6188 L572.263507,5438.6188 Z M542.784132,5429.80409 C542.784132,5431.3705 542.30416,5431.39969 540.835056,5431.39969 L537.990896,5431.39969 C537.462278,5431.39969 537.034194,5430.9716 537.034194,5430.43973 L537.034194,5426.80099 C537.034194,5426.27237 537.462278,5425.84104 537.990896,5425.84104 L540.835056,5425.84104 C542.369021,5425.84104 542.784132,5425.93833 542.784132,5427.5696 L542.784132,5429.80409 Z M544.123514,5421.37206 L531.190208,5421.37206 C530.658347,5421.37206 530.230264,5421.79691 530.230264,5422.32877 L530.230264,5442.1343 C530.230264,5442.66293 530.658347,5443.09101 531.190208,5443.09101 L536.07425,5443.09101 C536.606111,5443.09101 537.034194,5442.66293 537.034194,5442.1343 L537.034194,5436.83186 C537.034194,5436.29999 537.462278,5435.8719 537.990896,5435.8719 L544.571056,5435.8719 C547.256306,5435.8719 549.584819,5435.0741 549.584819,5431.72075 L549.584819,5425.62051 C549.584819,5422.29634 547.830326,5421.37206 544.123514,5421.37206 L544.123514,5421.37206 Z M516.019194,5422.32877 L516.019194,5425.52321 C516.019194,5426.05184 515.591111,5426.48317 515.05925,5426.48317 L511.994563,5426.48317 C511.465944,5426.48317 511.034618,5426.91126 511.034618,5427.43988 L511.034618,5442.1343 C511.034618,5442.66293 510.606535,5443.09101 510.077917,5443.09101 L505.190632,5443.09101 C504.662014,5443.09101 504.233931,5442.66293 504.233931,5442.1343 L504.233931,5427.43988 C504.233931,5426.91126 503.802604,5426.48317 503.273986,5426.48317 L500.206056,5426.48317 C499.677438,5426.48317 499.249354,5426.05184 499.249354,5425.52321 L499.249354,5422.32877 C499.249354,5421.79691 499.677438,5421.37206 500.206056,5421.37206 L515.05925,5421.37206 C515.591111,5421.37206 516.019194,5421.79691 516.019194,5422.32877 L516.019194,5422.32877 Z M485.609063,5434.14658 L483.468646,5434.14658 C482.813549,5434.14658 482.349792,5433.50121 482.56059,5432.87853 L483.624312,5429.76193 C483.919431,5428.89927 485.138819,5428.89602 485.437181,5429.75869 L486.513875,5432.87529 C486.73116,5433.49796 486.267403,5434.14658 485.609063,5434.14658 L485.609063,5434.14658 Z M488.699694,5421.95906 C488.550514,5421.60557 488.203507,5421.37206 487.817583,5421.37206 L481.613618,5421.37206 C481.211479,5421.37206 480.857986,5421.61854 480.715292,5421.99149 L473.259507,5441.79378 C473.026007,5442.42294 473.486521,5443.09101 474.157833,5443.09101 L478.532715,5443.09101 C478.944583,5443.09101 479.311049,5442.82832 479.444014,5442.43591 L480.280722,5439.91279 C480.413687,5439.52038 480.780153,5439.25769 481.192021,5439.25769 L487.89866,5439.25769 C488.307285,5439.25769 488.67375,5439.51713 488.803472,5439.9063 L489.669368,5442.44564 C489.802333,5442.83157 490.168799,5443.09101 490.577424,5443.09101 L496.058188,5443.09101 C496.742472,5443.09101 497.206229,5442.39699 496.943542,5441.76783 L488.699694,5421.95906 Z M470.058611,5438.6188 L470.058611,5442.1343 C470.058611,5442.66293 469.630528,5443.09101 469.10191,5443.09101 L453.447681,5443.09101 C452.919062,5443.09101 452.490979,5442.66293 452.490979,5442.1343 L452.490979,5422.32877 C452.490979,5421.79691 452.919062,5421.37206 453.447681,5421.37206 L468.939757,5421.37206 C469.468375,5421.37206 469.899701,5421.79691 469.899701,5422.32877 L469.899701,5425.52321 C469.899701,5426.05184 469.468375,5426.48317 468.939757,5426.48317 L460.251611,5426.48317 C459.722993,5426.48317 459.29491,5426.91126 459.29491,5427.43988 L459.29491,5428.52631 C459.29491,5429.05494 459.722993,5429.48627 460.251611,5429.48627 L464.500014,5429.48627 C465.028632,5429.48627 465.459958,5429.91111 465.459958,5430.43973 L465.459958,5433.63742 C465.459958,5434.16604 465.028632,5434.59413 464.500014,5434.59413 L460.251611,5434.59413 C459.722993,5434.59413 459.29491,5435.02546 459.29491,5435.55408 L459.29491,5436.70213 C459.29491,5437.23076 459.722993,5437.66209 460.251611,5437.66209 L469.10191,5437.66209 C469.630528,5437.66209 470.058611,5438.09017 470.058611,5438.6188 L470.058611,5438.6188 Z M440.034403,5429.80409 C440.034403,5431.3705 439.557674,5431.39969 438.085326,5431.39969 L435.24441,5431.39969 C434.712549,5431.39969 434.284465,5430.9716 434.284465,5430.43973 L434.284465,5426.80099 C434.284465,5426.27237 434.712549,5425.84104 435.24441,5425.84104 L438.085326,5425.84104 C439.619292,5425.84104 440.034403,5425.93833 440.034403,5427.5696 L440.034403,5429.80409 Z M441.377028,5421.37206 L428.440479,5421.37206 C427.908618,5421.37206 427.480535,5421.79691 427.480535,5422.32877 L427.480535,5442.1343 C427.480535,5442.66293 427.908618,5443.09101 428.440479,5443.09101 L433.327764,5443.09101 C433.856382,5443.09101 434.284465,5442.66293 434.284465,5442.1343 L434.284465,5436.83186 C434.284465,5436.29999 434.712549,5435.8719 435.24441,5435.8719 L435.620604,5435.8719 C435.97734,5435.8719 436.304889,5436.07297 436.470285,5436.38755 L439.703611,5442.57861 C439.865764,5442.89319 440.193313,5443.09101 440.550049,5443.09101 L445.8265,5443.09101 C446.575646,5443.09101 447.03616,5442.27051 446.64375,5441.63487 L443.786618,5436.98104 C443.468799,5436.4589 443.689326,5435.74218 444.269833,5435.56057 C445.774611,5435.08383 446.838333,5433.99416 446.838333,5431.72075 L446.838333,5425.62051 C446.838333,5422.29634 445.080597,5421.37206 441.377028,5421.37206 L441.377028,5421.37206 Z M423.650486,5422.32877 L423.650486,5425.52321 C423.650486,5426.05184 423.222403,5426.48317 422.693785,5426.48317 L419.625854,5426.48317 C419.097236,5426.48317 418.66591,5426.91126 418.66591,5427.43988 L418.66591,5442.1343 C418.66591,5442.66293 418.237826,5443.09101 417.709208,5443.09101 L412.821924,5443.09101 C412.293306,5443.09101 411.861979,5442.66293 411.861979,5442.1343 L411.861979,5427.43988 C411.861979,5426.91126 411.433896,5426.48317 410.905278,5426.48317 L407.837347,5426.48317 C407.308729,5426.48317 406.880646,5426.05184 406.880646,5425.52321 L406.880646,5422.32877 C406.880646,5421.79691 407.308729,5421.37206 407.837347,5421.37206 L422.693785,5421.37206 C423.222403,5421.37206 423.650486,5421.79691 423.650486,5422.32877 L423.650486,5422.32877 Z M754.111361,5397.92455 L738.460375,5397.92455 C737.931757,5397.92455 737.500431,5397.49646 737.500431,5396.96784 L737.500431,5377.16555 C737.500431,5376.63693 737.931757,5376.2056 738.460375,5376.2056 L753.949208,5376.2056 C754.477826,5376.2056 754.909153,5376.63693 754.909153,5377.16555 L754.909153,5380.35675 C754.909153,5380.88537 754.477826,5381.3167 753.949208,5381.3167 L745.261063,5381.3167 C744.732444,5381.3167 744.304361,5381.74479 744.304361,5382.27341 L744.304361,5383.35985 C744.304361,5383.88847 744.732444,5384.3198 745.261063,5384.3198 L749.512708,5384.3198 C750.041326,5384.3198 750.46941,5384.74789 750.46941,5385.27651 L750.46941,5388.47095 C750.46941,5388.99958 750.041326,5389.43091 749.512708,5389.43091 L745.261063,5389.43091 C744.732444,5389.43091 744.304361,5389.85899 744.304361,5390.38762 L744.304361,5391.53567 C744.304361,5392.06429 744.732444,5392.49562 745.261063,5392.49562 L754.111361,5392.49562 C754.639979,5392.49562 755.068063,5392.92371 755.068063,5393.45233 L755.068063,5396.96784 C755.068063,5397.49646 754.639979,5397.92455 754.111361,5397.92455 L754.111361,5397.92455 Z M720.221431,5397.92455 C715.590347,5397.92455 713.096437,5395.37224 713.096437,5391.79187 L713.096437,5381.79344 C713.096437,5377.8012 716.167611,5376.2056 720.189,5376.2056 L726.707542,5376.2056 C730.985132,5376.2056 732.233708,5378.15145 732.233708,5380.90159 L732.233708,5382.75339 C732.233708,5383.23337 731.883458,5383.63551 731.413215,5383.70362 L726.525931,5384.41385 C725.945424,5384.49817 725.429778,5384.05063 725.429778,5383.46687 L725.429778,5382.27341 C725.429778,5381.74479 724.998451,5381.3167 724.469833,5381.3167 L720.860312,5381.3167 C720.331694,5381.3167 719.903611,5381.74479 719.903611,5382.27341 L719.903611,5391.53567 C719.903611,5392.06429 720.331694,5392.49562 720.860312,5392.49562 L724.469833,5392.49562 C724.998451,5392.49562 725.429778,5392.06429 725.429778,5391.53567 L725.429778,5389.81359 C725.429778,5389.20389 725.990826,5388.74986 726.587549,5388.87634 L731.47159,5389.90764 C731.915889,5390.00169 732.233708,5390.3941 732.233708,5390.84489 L732.233708,5392.59291 C732.233708,5395.33657 730.349493,5397.92455 726.065417,5397.92455 L720.221431,5397.92455 Z M706.714104,5397.92455 L701.823576,5397.92455 C701.294958,5397.92455 700.866875,5397.49646 700.866875,5396.96784 L700.866875,5377.16555 C700.866875,5376.63693 701.294958,5376.2056 701.823576,5376.2056 L706.714104,5376.2056 C707.242722,5376.2056 707.670806,5376.63693 707.670806,5377.16555 L707.670806,5396.96784 C707.670806,5397.49646 707.242722,5397.92455 706.714104,5397.92455 L706.714104,5397.92455 Z M681.447458,5397.28566 L674.513806,5377.48013 C674.299764,5376.85746 674.760278,5376.2056 675.418618,5376.2056 L681.097208,5376.2056 C681.531778,5376.2056 681.907972,5376.49423 682.021479,5376.91259 L685.180215,5388.4742 C685.436417,5389.4082 686.75634,5389.41793 687.025514,5388.49041 L690.385319,5376.89962 C690.502069,5376.48775 690.878264,5376.2056 691.303104,5376.2056 L696.177417,5376.2056 C696.832514,5376.2056 697.293028,5376.85097 697.085472,5377.4704 L690.359375,5397.27593 C690.22641,5397.6651 689.859944,5397.92455 689.448076,5397.92455 L682.349028,5397.92455 C681.943646,5397.92455 681.580424,5397.66835 681.447458,5397.28566 L681.447458,5397.28566 Z M663.850639,5384.63762 C663.850639,5386.20403 663.367424,5386.23647 661.898319,5386.23647 L659.057403,5386.23647 C658.528785,5386.23647 658.097458,5385.80838 658.097458,5385.27976 L658.097458,5381.63777 C658.097458,5381.10915 658.528785,5380.67782 659.057403,5380.67782 L661.898319,5380.67782 C663.435528,5380.67782 663.850639,5380.77186 663.850639,5382.40314 L663.850639,5384.63762 Z M665.190021,5376.2056 L652.253472,5376.2056 C651.724854,5376.2056 651.296771,5376.63693 651.296771,5377.16555 L651.296771,5396.96784 C651.296771,5397.49646 651.724854,5397.92455 652.253472,5397.92455 L657.144,5397.92455 C657.672618,5397.92455 658.097458,5397.49646 658.097458,5396.96784 L658.097458,5391.66539 C658.097458,5391.13677 658.528785,5390.70544 659.057403,5390.70544 L659.43684,5390.70544 C659.793576,5390.70544 660.117882,5390.90651 660.283278,5391.22433 L663.516604,5397.41214 C663.682,5397.72996 664.009549,5397.92455 664.366285,5397.92455 L669.642736,5397.92455 C670.391882,5397.92455 670.852396,5397.10405 670.459986,5396.4684 L667.602854,5391.81457 C667.281792,5391.29568 667.502319,5390.57572 668.086069,5390.3941 C669.587604,5389.91737 670.654569,5388.82769 670.654569,5386.55429 L670.654569,5380.45404 C670.654569,5377.13312 668.896833,5376.2056 665.190021,5376.2056 L665.190021,5376.2056 Z M646.506778,5393.45233 L646.506778,5396.96784 C646.506778,5397.49646 646.075451,5397.92455 645.546833,5397.92455 L629.895847,5397.92455 C629.367229,5397.92455 628.935903,5397.49646 628.935903,5396.96784 L628.935903,5377.16555 C628.935903,5376.63693 629.367229,5376.2056 629.895847,5376.2056 L645.391167,5376.2056 C645.919785,5376.2056 646.344625,5376.63693 646.344625,5377.16555 L646.344625,5380.35675 C646.344625,5380.88537 645.919785,5381.3167 645.391167,5381.3167 L636.699778,5381.3167 C636.17116,5381.3167 635.743076,5381.74479 635.743076,5382.27341 L635.743076,5383.35985 C635.743076,5383.88847 636.17116,5384.3198 636.699778,5384.3198 L640.948181,5384.3198 C641.476799,5384.3198 641.904882,5384.74789 641.904882,5385.27651 L641.904882,5388.47095 C641.904882,5388.99958 641.476799,5389.43091 640.948181,5389.43091 L636.699778,5389.43091 C636.17116,5389.43091 635.743076,5389.85899 635.743076,5390.38762 L635.743076,5391.53567 C635.743076,5392.06429 636.17116,5392.49562 636.699778,5392.49562 L645.546833,5392.49562 C646.075451,5392.49562 646.506778,5392.92371 646.506778,5393.45233 L646.506778,5393.45233 Z M623.510271,5388.43852 L623.510271,5393.03722 C623.510271,5396.04032 621.369854,5397.92455 618.048965,5397.92455 L609.390007,5397.92455 C605.971826,5397.92455 604.343813,5396.04032 604.343813,5393.03722 C604.343813,5392.65453 604.376243,5392.33347 604.470292,5391.73025 L609.711069,5390.83516 C610.294819,5390.73463 610.826681,5391.18542 610.826681,5391.7789 L610.826681,5392.01889 C610.826681,5392.54751 611.258007,5392.9756 611.786625,5392.9756 L615.749639,5392.9756 C616.278257,5392.9756 616.70634,5392.54751 616.70634,5392.01889 L616.70634,5390.06655 C616.70634,5389.53793 616.278257,5389.10984 615.749639,5389.10984 L610.028889,5389.10984 C606.610708,5389.10984 605.206465,5387.67315 605.206465,5384.8614 L605.206465,5380.83673 C605.206465,5377.83687 606.610708,5376.2056 610.028889,5376.2056 L617.890056,5376.2056 C622.167646,5376.2056 623.12759,5377.83687 623.12759,5380.83673 C623.12759,5381.34913 623.091917,5381.63777 623.062729,5381.92316 L618.058694,5382.83447 C617.471701,5382.94149 616.930111,5382.4907 616.930111,5381.89397 L616.930111,5381.63777 C616.930111,5381.10915 616.498785,5380.67782 615.970167,5380.67782 L612.967097,5380.67782 C612.438479,5380.67782 612.010396,5381.10915 612.010396,5381.63777 L612.010396,5383.35985 C612.010396,5383.88847 612.438479,5384.3198 612.967097,5384.3198 L618.558125,5384.3198 C621.178514,5384.3198 623.510271,5385.30894 623.510271,5388.43852 L623.510271,5388.43852 Z M577.867507,5381.3167 L574.802819,5381.3167 C574.274201,5381.3167 573.842875,5380.88537 573.842875,5380.35675 L573.842875,5377.16555 C573.842875,5376.63693 574.274201,5376.2056 574.802819,5376.2056 L589.652771,5376.2056 C590.184632,5376.2056 590.612715,5376.63693 590.612715,5377.16555 L590.612715,5380.35675 C590.612715,5380.88537 590.184632,5381.3167 589.652771,5381.3167 L586.588083,5381.3167 C586.059465,5381.3167 585.631382,5381.74479 585.631382,5382.27341 L585.631382,5396.96784 C585.631382,5397.49646 585.200056,5397.92455 584.671438,5397.92455 L579.784153,5397.92455 C579.255535,5397.92455 578.827451,5397.49646 578.827451,5396.96784 L578.827451,5382.27341 C578.827451,5381.74479 578.396125,5381.3167 577.867507,5381.3167 L577.867507,5381.3167 Z M558.321611,5397.92455 C553.690528,5397.92455 551.199861,5395.37224 551.199861,5391.79187 L551.199861,5381.79344 C551.199861,5377.8012 554.264549,5376.2056 558.289181,5376.2056 L564.804479,5376.2056 C569.085312,5376.2056 570.330646,5378.15145 570.330646,5380.90159 L570.330646,5382.75339 C570.330646,5383.23337 569.983639,5383.63551 569.513396,5383.70362 L564.626111,5384.41385 C564.045604,5384.49817 563.529958,5384.05063 563.529958,5383.46687 L563.529958,5382.27341 C563.529958,5381.74479 563.098632,5381.3167 562.570014,5381.3167 L558.960493,5381.3167 C558.431875,5381.3167 558.003792,5381.74479 558.003792,5382.27341 L558.003792,5391.53567 C558.003792,5392.06429 558.431875,5392.49562 558.960493,5392.49562 L562.570014,5392.49562 C563.098632,5392.49562 563.529958,5392.06429 563.529958,5391.53567 L563.529958,5389.81359 C563.529958,5389.20389 564.087764,5388.74986 564.684486,5388.87634 L569.571771,5389.90764 C570.016069,5390.00169 570.330646,5390.3941 570.330646,5390.84489 L570.330646,5392.59291 C570.330646,5395.33657 568.446431,5397.92455 564.16884,5397.92455 L558.321611,5397.92455 Z M545.608833,5397.92455 L529.96109,5397.92455 C529.429229,5397.92455 529.001146,5397.49646 529.001146,5396.96784 L529.001146,5377.16555 C529.001146,5376.63693 529.429229,5376.2056 529.96109,5376.2056 L545.449924,5376.2056 C545.978542,5376.2056 546.409868,5376.63693 546.409868,5377.16555 L546.409868,5380.35675 C546.409868,5380.88537 545.978542,5381.3167 545.449924,5381.3167 L536.761778,5381.3167 C536.23316,5381.3167 535.805076,5381.74479 535.805076,5382.27341 L535.805076,5383.35985 C535.805076,5383.88847 536.23316,5384.3198 536.761778,5384.3198 L541.010181,5384.3198 C541.542042,5384.3198 541.970125,5384.74789 541.970125,5385.27651 L541.970125,5388.47095 C541.970125,5388.99958 541.542042,5389.43091 541.010181,5389.43091 L536.761778,5389.43091 C536.23316,5389.43091 535.805076,5389.85899 535.805076,5390.38762 L535.805076,5391.53567 C535.805076,5392.06429 536.23316,5392.49562 536.761778,5392.49562 L545.608833,5392.49562 C546.137451,5392.49562 546.568778,5392.92371 546.568778,5393.45233 L546.568778,5396.96784 C546.568778,5397.49646 546.137451,5397.92455 545.608833,5397.92455 L545.608833,5397.92455 Z M525.171097,5377.16555 L525.171097,5380.35675 C525.171097,5380.88537 524.739771,5381.3167 524.211153,5381.3167 L515.523007,5381.3167 C514.994389,5381.3167 514.566306,5381.74479 514.566306,5382.27341 L514.566306,5384.63762 C514.566306,5385.16625 514.994389,5385.59433 515.523007,5385.59433 L519.77141,5385.59433 C520.300028,5385.59433 520.728111,5386.02566 520.728111,5386.55429 L520.728111,5389.75197 C520.728111,5390.28059 520.300028,5390.70544 519.77141,5390.70544 L515.523007,5390.70544 C514.994389,5390.70544 514.566306,5391.13677 514.566306,5391.66539 L514.566306,5396.96784 C514.566306,5397.49646 514.134979,5397.92455 513.606361,5397.92455 L508.719076,5397.92455 C508.190458,5397.92455 507.762375,5397.49646 507.762375,5396.96784 L507.762375,5377.16555 C507.762375,5376.63693 508.190458,5376.2056 508.719076,5376.2056 L524.211153,5376.2056 C524.739771,5376.2056 525.171097,5376.63693 525.171097,5377.16555 L525.171097,5377.16555 Z M495.305799,5384.63762 C495.305799,5386.20403 494.825826,5386.23647 493.356722,5386.23647 L490.515806,5386.23647 C489.987188,5386.23647 489.555861,5385.80838 489.555861,5385.27976 L489.555861,5381.63777 C489.555861,5381.10915 489.987188,5380.67782 490.515806,5380.67782 L493.356722,5380.67782 C494.890687,5380.67782 495.305799,5380.77186 495.305799,5382.40314 L495.305799,5384.63762 Z M501.915146,5396.4684 L499.058014,5391.81457 C498.740194,5391.29244 498.960722,5390.57572 499.541229,5390.3941 C501.046007,5389.91737 502.109729,5388.82769 502.109729,5386.55429 L502.109729,5380.45404 C502.109729,5377.13312 500.351993,5376.2056 496.645181,5376.2056 L483.711875,5376.2056 C483.180014,5376.2056 482.751931,5376.63693 482.751931,5377.16555 L482.751931,5396.96784 C482.751931,5397.49646 483.180014,5397.92455 483.711875,5397.92455 L488.59916,5397.92455 C489.127778,5397.92455 489.555861,5397.49646 489.555861,5396.96784 L489.555861,5391.66539 C489.555861,5391.13677 489.987188,5390.70544 490.515806,5390.70544 L490.892,5390.70544 C491.248736,5390.70544 491.576285,5390.90651 491.741681,5391.22433 L494.975007,5397.41214 C495.13716,5397.72996 495.464708,5397.92455 495.821444,5397.92455 L501.097896,5397.92455 C501.850285,5397.92455 502.307556,5397.10405 501.915146,5396.4684 L501.915146,5396.4684 Z M461.351007,5376.2056 L476.846326,5376.2056 C477.374944,5376.2056 477.803028,5376.63693 477.803028,5377.16555 L477.803028,5380.35675 C477.803028,5380.88537 477.374944,5381.3167 476.846326,5381.3167 L468.158181,5381.3167 C467.629563,5381.3167 467.198236,5381.74479 467.198236,5382.27341 L467.198236,5383.35985 C467.198236,5383.88847 467.629563,5384.3198 468.158181,5384.3198 L472.406583,5384.3198 C472.935201,5384.3198 473.363285,5384.74789 473.363285,5385.27651 L473.363285,5388.47095 C473.363285,5388.99958 472.935201,5389.43091 472.406583,5389.43091 L468.158181,5389.43091 C467.629563,5389.43091 467.198236,5389.85899 467.198236,5390.38762 L467.198236,5391.53567 C467.198236,5392.06429 467.629563,5392.49562 468.158181,5392.49562 L477.005236,5392.49562 C477.533854,5392.49562 477.965181,5392.92371 477.965181,5393.45233 L477.965181,5396.96784 C477.965181,5397.49646 477.533854,5397.92455 477.005236,5397.92455 L461.351007,5397.92455 C460.822389,5397.92455 460.394306,5397.49646 460.394306,5396.96784 L460.394306,5377.16555 C460.394306,5376.63693 460.822389,5376.2056 461.351007,5376.2056 L461.351007,5376.2056 Z M448.482563,5384.63762 C448.482563,5386.20403 448.00259,5386.23647 446.533486,5386.23647 L443.692569,5386.23647 C443.163951,5386.23647 442.732625,5385.80838 442.732625,5385.27976 L442.732625,5381.63777 C442.732625,5381.10915 443.163951,5380.67782 443.692569,5380.67782 L446.533486,5380.67782 C448.067451,5380.67782 448.482563,5380.77186 448.482563,5382.40314 L448.482563,5384.63762 Z M455.286493,5386.55429 L455.286493,5380.45404 C455.286493,5377.13312 453.528757,5376.2056 449.825187,5376.2056 L436.888639,5376.2056 C436.356778,5376.2056 435.928694,5376.63693 435.928694,5377.16555 L435.928694,5396.96784 C435.928694,5397.49646 436.356778,5397.92455 436.888639,5397.92455 L441.772681,5397.92455 C442.304542,5397.92455 442.732625,5397.49646 442.732625,5396.96784 L442.732625,5391.66539 C442.732625,5391.13677 443.163951,5390.70544 443.692569,5390.70544 L450.269486,5390.70544 C452.954736,5390.70544 455.286493,5389.90764 455.286493,5386.55429 L455.286493,5386.55429 Z M761.933611,5346.61568 L761.933611,5346.85242 C761.933611,5347.38105 762.364937,5347.80913 762.893556,5347.80913 L766.853326,5347.80913 C767.381944,5347.80913 767.813271,5347.38105 767.813271,5346.85242 L767.813271,5344.90333 C767.813271,5344.37146 767.381944,5343.94662 766.853326,5343.94662 L761.135819,5343.94662 C757.717639,5343.94662 756.313396,5342.50669 756.313396,5339.69493 L756.313396,5335.67026 C756.313396,5332.66716 757.717639,5331.03913 761.135819,5331.03913 L768.993743,5331.03913 C773.274576,5331.03913 774.234521,5332.66716 774.234521,5335.67026 C774.234521,5336.18267 774.198847,5336.4713 774.166417,5336.7567 L769.165625,5337.668 C768.578632,5337.77827 768.037042,5337.32424 768.037042,5336.72751 L768.037042,5336.4713 C768.037042,5335.94268 767.605715,5335.51135 767.077097,5335.51135 L764.074028,5335.51135 C763.54541,5335.51135 763.114083,5335.94268 763.114083,5336.4713 L763.114083,5338.19663 C763.114083,5338.72525 763.54541,5339.15334 764.074028,5339.15334 L769.665056,5339.15334 C772.282201,5339.15334 774.617201,5340.14572 774.617201,5343.27206 L774.617201,5347.87075 C774.617201,5350.87709 772.476785,5352.76133 769.155896,5352.76133 L760.496937,5352.76133 C757.078757,5352.76133 755.450743,5350.87709 755.450743,5347.87075 C755.450743,5347.48807 755.483174,5347.17349 755.577222,5346.56379 L760.814757,5345.6687 C761.40175,5345.56816 761.933611,5346.01895 761.933611,5346.61568 L761.933611,5346.61568 Z M739.355458,5336.15024 L736.287528,5336.15024 C735.75891,5336.15024 735.330826,5335.72215 735.330826,5335.19353 L735.330826,5331.99909 C735.330826,5331.46722 735.75891,5331.03913 736.287528,5331.03913 L751.140722,5331.03913 C751.66934,5331.03913 752.100667,5331.46722 752.100667,5331.99909 L752.100667,5335.19353 C752.100667,5335.72215 751.66934,5336.15024 751.140722,5336.15024 L748.076035,5336.15024 C747.547417,5336.15024 747.11609,5336.58157 747.11609,5337.11019 L747.11609,5351.80137 C747.11609,5352.33 746.688007,5352.76133 746.159389,5352.76133 L741.272104,5352.76133 C740.743486,5352.76133 740.31216,5352.33 740.31216,5351.80137 L740.31216,5337.11019 C740.31216,5336.58157 739.884076,5336.15024 739.355458,5336.15024 L739.355458,5336.15024 Z M725.014667,5338.30041 L725.014667,5337.11019 C725.014667,5336.58157 724.58334,5336.15024 724.054722,5336.15024 L720.445201,5336.15024 C719.916583,5336.15024 719.4885,5336.58157 719.4885,5337.11019 L719.4885,5346.37245 C719.4885,5346.90107 719.916583,5347.32916 720.445201,5347.32916 L724.054722,5347.32916 C724.58334,5347.32916 725.014667,5346.90107 725.014667,5346.37245 L725.014667,5344.64713 C725.014667,5344.04067 725.575715,5343.58339 726.172438,5343.70987 L731.059722,5344.74442 C731.500778,5344.83522 731.818597,5345.22764 731.818597,5345.68167 L731.818597,5347.42645 C731.818597,5350.17334 729.934382,5352.76133 725.653549,5352.76133 L719.806319,5352.76133 C715.175236,5352.76133 712.684569,5350.20578 712.684569,5346.62865 L712.684569,5336.63022 C712.684569,5332.63798 715.7525,5331.03913 719.777132,5331.03913 L726.292431,5331.03913 C730.573264,5331.03913 731.818597,5332.98823 731.818597,5335.73512 L731.818597,5337.59017 C731.818597,5338.0669 731.468347,5338.46905 730.998104,5338.54039 L726.110819,5339.25063 C725.530313,5339.33495 725.014667,5338.88416 725.014667,5338.30041 L725.014667,5338.30041 Z M700.130701,5352.76133 L694.445625,5352.76133 C689.817785,5352.76133 687.323875,5350.17334 687.323875,5346.59622 L687.323875,5331.99909 C687.323875,5331.46722 687.751958,5331.03913 688.280576,5331.03913 L693.171104,5331.03913 C693.699722,5331.03913 694.127806,5331.46722 694.127806,5331.99909 L694.127806,5346.37245 C694.127806,5346.90107 694.559132,5347.32916 695.08775,5347.32916 L699.495063,5347.32916 C700.023681,5347.32916 700.451764,5346.90107 700.451764,5346.37245 L700.451764,5331.99909 C700.451764,5331.46722 700.88309,5331.03913 701.411708,5331.03913 L706.298993,5331.03913 C706.827611,5331.03913 707.258938,5331.46722 707.258938,5331.99909 L707.258938,5346.59622 C707.258938,5350.17334 704.732597,5352.76133 700.130701,5352.76133 L700.130701,5352.76133 Z M671.293451,5347.32916 L668.673063,5347.32916 C668.144444,5347.32916 667.713118,5346.90107 667.713118,5346.37245 L667.713118,5337.11019 C667.713118,5336.58157 668.144444,5336.15024 668.673063,5336.15024 L671.293451,5336.15024 C674.967833,5336.15024 675.253222,5337.23667 675.253222,5341.38782 C675.253222,5345.86004 675.061882,5347.32916 671.293451,5347.32916 L671.293451,5347.32916 Z M682.057153,5341.5143 C682.057153,5334.20114 679.851875,5331.03913 672.567972,5331.03913 L661.869132,5331.03913 C661.337271,5331.03913 660.912431,5331.46722 660.912431,5331.99909 L660.912431,5351.80137 C660.912431,5352.33 661.337271,5352.76133 661.869132,5352.76133 L672.567972,5352.76133 C679.851875,5352.76133 682.057153,5348.95719 682.057153,5341.5143 L682.057153,5341.5143 Z M642.355667,5347.32916 C641.827049,5347.32916 641.395722,5346.90107 641.395722,5346.37245 L641.395722,5337.11019 C641.395722,5336.58157 641.827049,5336.15024 642.355667,5336.15024 L647.719681,5336.15024 C648.248299,5336.15024 648.676382,5336.58157 648.676382,5337.11019 L648.676382,5346.37245 C648.676382,5346.90107 648.248299,5347.32916 647.719681,5347.32916 L642.355667,5347.32916 Z M655.483556,5346.59622 L655.483556,5336.66265 C655.483556,5333.02066 652.957215,5331.03913 648.361806,5331.03913 L641.716785,5331.03913 C637.114889,5331.03913 634.591792,5333.02066 634.591792,5336.66265 L634.591792,5346.59622 C634.591792,5350.17334 637.085701,5352.76133 641.716785,5352.76133 L648.361806,5352.76133 C652.957215,5352.76133 655.483556,5350.17334 655.483556,5346.59622 L655.483556,5346.59622 Z M622.294125,5339.4744 C622.294125,5341.03757 621.817396,5341.07 620.348292,5341.07 L617.504132,5341.07 C616.975514,5341.07 616.547431,5340.64191 616.547431,5340.11329 L616.547431,5336.4713 C616.547431,5335.94268 616.975514,5335.51135 617.504132,5335.51135 L620.348292,5335.51135 C621.879014,5335.51135 622.294125,5335.60864 622.294125,5337.23667 L622.294125,5339.4744 Z M626.532799,5345.22764 C628.037576,5344.75415 629.101299,5343.66447 629.101299,5341.38782 L629.101299,5335.29082 C629.101299,5331.96666 627.343562,5331.03913 623.63675,5331.03913 L610.700201,5331.03913 C610.171583,5331.03913 609.740257,5331.46722 609.740257,5331.99909 L609.740257,5351.80137 C609.740257,5352.33 610.171583,5352.76133 610.700201,5352.76133 L615.587486,5352.76133 C616.116104,5352.76133 616.547431,5352.33 616.547431,5351.80137 L616.547431,5346.50217 C616.547431,5345.97355 616.975514,5345.54222 617.504132,5345.54222 L617.883569,5345.54222 C618.237062,5345.54222 618.567854,5345.74005 618.73325,5346.05787 L621.963333,5352.24568 C622.128729,5352.5635 622.456278,5352.76133 622.813014,5352.76133 L628.089465,5352.76133 C628.838611,5352.76133 629.299125,5351.93758 628.903472,5351.30194 L626.049583,5346.65135 C625.731764,5346.12922 625.949049,5345.41249 626.532799,5345.22764 L626.532799,5345.22764 Z M597.831757,5339.4744 C597.831757,5341.03757 597.351785,5341.07 595.882681,5341.07 L593.038521,5341.07 C592.509903,5341.07 592.081819,5340.64191 592.081819,5340.11329 L592.081819,5336.4713 C592.081819,5335.94268 592.509903,5335.51135 593.038521,5335.51135 L595.882681,5335.51135 C597.416646,5335.51135 597.831757,5335.60864 597.831757,5337.23667 L597.831757,5339.4744 Z M604.635688,5341.38782 L604.635688,5335.29082 C604.635688,5331.96666 602.877951,5331.03913 599.174382,5331.03913 L586.23459,5331.03913 C585.705972,5331.03913 585.277889,5331.46722 585.277889,5331.99909 L585.277889,5351.80137 C585.277889,5352.33 585.705972,5352.76133 586.23459,5352.76133 L591.125118,5352.76133 C591.653736,5352.76133 592.081819,5352.33 592.081819,5351.80137 L592.081819,5346.50217 C592.081819,5345.97355 592.509903,5345.54222 593.038521,5345.54222 L599.618681,5345.54222 C602.300687,5345.54222 604.635688,5344.74442 604.635688,5341.38782 L604.635688,5341.38782 Z M559.281556,5351.80137 L559.281556,5337.11019 C559.281556,5336.58157 558.850229,5336.15024 558.321611,5336.15024 L555.256924,5336.15024 C554.725063,5336.15024 554.296979,5335.72215 554.296979,5335.19353 L554.296979,5331.99909 C554.296979,5331.46722 554.725063,5331.03913 555.256924,5331.03913 L570.110118,5331.03913 C570.638736,5331.03913 571.066819,5331.46722 571.066819,5331.99909 L571.066819,5335.19353 C571.066819,5335.72215 570.638736,5336.15024 570.110118,5336.15024 L567.042187,5336.15024 C566.513569,5336.15024 566.082243,5336.58157 566.082243,5337.11019 L566.082243,5351.80137 C566.082243,5352.33 565.65416,5352.76133 565.125542,5352.76133 L560.238257,5352.76133 C559.709639,5352.76133 559.281556,5352.33 559.281556,5351.80137 L559.281556,5351.80137 Z M550.78475,5335.73512 L550.78475,5337.59017 C550.78475,5338.0669 550.437743,5338.46905 549.9675,5338.54039 L545.076972,5339.25063 C544.499708,5339.33495 543.980819,5338.88416 543.980819,5338.30041 L543.980819,5337.11019 C543.980819,5336.58157 543.552736,5336.15024 543.024118,5336.15024 L539.414597,5336.15024 C538.882736,5336.15024 538.454653,5336.58157 538.454653,5337.11019 L538.454653,5346.37245 C538.454653,5346.90107 538.882736,5347.32916 539.414597,5347.32916 L543.024118,5347.32916 C543.552736,5347.32916 543.980819,5346.90107 543.980819,5346.37245 L543.980819,5344.64713 C543.980819,5344.04067 544.541868,5343.58339 545.135347,5343.70987 L550.025875,5344.74442 C550.466931,5344.83522 550.78475,5345.22764 550.78475,5345.68167 L550.78475,5347.42645 C550.78475,5350.17334 548.900535,5352.76133 544.619701,5352.76133 L538.775715,5352.76133 C534.141389,5352.76133 531.650722,5350.20578 531.650722,5346.62865 L531.650722,5336.63022 C531.650722,5332.63798 534.718653,5331.03913 538.743285,5331.03913 L545.261826,5331.03913 C549.539417,5331.03913 550.78475,5332.98823 550.78475,5335.73512 L550.78475,5335.73512 Z M527.019639,5348.28587 L527.019639,5351.80137 C527.019639,5352.33 526.594799,5352.76133 526.066181,5352.76133 L510.411951,5352.76133 C509.883333,5352.76133 509.452007,5352.33 509.452007,5351.80137 L509.452007,5331.99909 C509.452007,5331.46722 509.883333,5331.03913 510.411951,5331.03913 L525.904028,5331.03913 C526.432646,5331.03913 526.863972,5331.46722 526.863972,5331.99909 L526.863972,5335.19353 C526.863972,5335.72215 526.432646,5336.15024 525.904028,5336.15024 L517.215882,5336.15024 C516.684021,5336.15024 516.255937,5336.58157 516.255937,5337.11019 L516.255937,5338.19663 C516.255937,5338.72525 516.684021,5339.15334 517.215882,5339.15334 L521.464285,5339.15334 C521.992903,5339.15334 522.424229,5339.58142 522.424229,5340.11005 L522.424229,5343.30449 C522.424229,5343.83311 521.992903,5344.26444 521.464285,5344.26444 L517.215882,5344.26444 C516.684021,5344.26444 516.255937,5344.69253 516.255937,5345.22115 L516.255937,5346.37245 C516.255937,5346.90107 516.684021,5347.32916 517.215882,5347.32916 L526.066181,5347.32916 C526.594799,5347.32916 527.019639,5347.75725 527.019639,5348.28587 L527.019639,5348.28587 Z M495.017167,5337.11019 L495.017167,5339.4744 C495.017167,5340.00303 495.44525,5340.43436 495.977111,5340.43436 L500.225514,5340.43436 C500.754132,5340.43436 501.182215,5340.8592 501.182215,5341.38782 L501.182215,5344.58551 C501.182215,5345.11413 500.754132,5345.54222 500.225514,5345.54222 L495.977111,5345.54222 C495.44525,5345.54222 495.017167,5345.97355 495.017167,5346.50217 L495.017167,5351.80137 C495.017167,5352.33 494.58584,5352.76133 494.057222,5352.76133 L489.173181,5352.76133 C488.641319,5352.76133 488.213236,5352.33 488.213236,5351.80137 L488.213236,5331.99909 C488.213236,5331.46722 488.641319,5331.03913 489.173181,5331.03913 L504.662014,5331.03913 C505.193875,5331.03913 505.621958,5331.46722 505.621958,5331.99909 L505.621958,5335.19353 C505.621958,5335.72215 505.193875,5336.15024 504.662014,5336.15024 L495.977111,5336.15024 C495.44525,5336.15024 495.017167,5336.58157 495.017167,5337.11019 L495.017167,5337.11019 Z M475.75666,5339.4744 C475.75666,5341.03757 475.279931,5341.07 473.810826,5341.07 L470.966667,5341.07 C470.438049,5341.07 470.006722,5340.64191 470.006722,5340.11329 L470.006722,5336.4713 C470.006722,5335.94268 470.438049,5335.51135 470.966667,5335.51135 L473.810826,5335.51135 C475.341549,5335.51135 475.75666,5335.60864 475.75666,5337.23667 L475.75666,5339.4744 Z M479.99209,5345.22764 C481.496868,5344.75415 482.56059,5343.66447 482.56059,5341.38782 L482.56059,5335.29082 C482.56059,5331.96666 480.806097,5331.03913 477.099285,5331.03913 L464.162736,5331.03913 C463.634118,5331.03913 463.206035,5331.46722 463.206035,5331.99909 L463.206035,5351.80137 C463.206035,5352.33 463.634118,5352.76133 464.162736,5352.76133 L469.050021,5352.76133 C469.578639,5352.76133 470.006722,5352.33 470.006722,5351.80137 L470.006722,5346.50217 C470.006722,5345.97355 470.438049,5345.54222 470.966667,5345.54222 L471.346104,5345.54222 C471.70284,5345.54222 472.027146,5345.74005 472.195785,5346.05787 L475.425868,5352.24568 C475.591264,5352.5635 475.918812,5352.76133 476.275549,5352.76133 L481.552,5352.76133 C482.301146,5352.76133 482.76166,5351.93758 482.36925,5351.30194 L479.512118,5346.65135 C479.191056,5346.12922 479.411583,5345.41249 479.99209,5345.22764 L479.99209,5345.22764 Z M447.649097,5337.11019 L447.649097,5338.19663 C447.649097,5338.72525 448.080424,5339.15334 448.609042,5339.15334 L452.857444,5339.15334 C453.386062,5339.15334 453.817389,5339.58142 453.817389,5340.11005 L453.817389,5343.30449 C453.817389,5343.83311 453.386062,5344.26444 452.857444,5344.26444 L448.609042,5344.26444 C448.080424,5344.26444 447.649097,5344.69253 447.649097,5345.22115 L447.649097,5346.37245 C447.649097,5346.90107 448.080424,5347.32916 448.609042,5347.32916 L457.456097,5347.32916 C457.984715,5347.32916 458.416042,5347.75725 458.416042,5348.28587 L458.416042,5351.80137 C458.416042,5352.33 457.984715,5352.76133 457.456097,5352.76133 L441.805111,5352.76133 C441.276493,5352.76133 440.84841,5352.33 440.84841,5351.80137 L440.84841,5331.99909 C440.84841,5331.46722 441.276493,5331.03913 441.805111,5331.03913 L457.297187,5331.03913 C457.829049,5331.03913 458.253889,5331.46722 458.253889,5331.99909 L458.253889,5335.19353 C458.253889,5335.72215 457.829049,5336.15024 457.297187,5336.15024 L448.609042,5336.15024 C448.080424,5336.15024 447.649097,5336.58157 447.649097,5337.11019 L447.649097,5337.11019 Z M428.933424,5339.4744 C428.933424,5341.03757 428.456694,5341.07 426.98759,5341.07 L424.143431,5341.07 C423.614813,5341.07 423.183486,5340.64191 423.183486,5340.11329 L423.183486,5336.4713 C423.183486,5335.94268 423.614813,5335.51135 424.143431,5335.51135 L426.98759,5335.51135 C428.518312,5335.51135 428.933424,5335.60864 428.933424,5337.23667 L428.933424,5339.4744 Z M435.740597,5341.38782 L435.740597,5335.29082 C435.740597,5331.96666 433.982861,5331.03913 430.276049,5331.03913 L417.3395,5331.03913 C416.810882,5331.03913 416.382799,5331.46722 416.382799,5331.99909 L416.382799,5351.80137 C416.382799,5352.33 416.810882,5352.76133 417.3395,5352.76133 L422.226785,5352.76133 C422.755403,5352.76133 423.183486,5352.33 423.183486,5351.80137 L423.183486,5346.50217 C423.183486,5345.97355 423.614813,5345.54222 424.143431,5345.54222 L430.72359,5345.54222 C433.405597,5345.54222 435.740597,5344.74442 435.740597,5341.38782 L435.740597,5341.38782 Z M812.126382,5274.1781 L812.680944,5274.56727 C818.732486,5278.78977 822.34525,5285.70403 822.34525,5293.06584 C822.34525,5300.41791 818.732486,5307.32893 812.680944,5311.55143 L812.126382,5311.9406 C810.498368,5313.07568 810.498368,5315.48529 812.126382,5316.61713 L812.680944,5317.00954 C818.732486,5321.2288 822.34525,5328.14306 822.34525,5335.50486 C822.34525,5342.86018 818.732486,5349.76796 812.680944,5353.99046 L812.126382,5354.37963 C810.498368,5355.51471 810.498368,5357.92432 812.126382,5359.0594 L812.680944,5359.44857 C823.172229,5366.76822 826.330965,5382.18261 816.053722,5393.97771 C815.891569,5394.16581 815.700229,5394.33121 815.49916,5394.47391 L812.126382,5396.81866 C810.498368,5397.95374 810.495125,5400.36335 812.123139,5401.49843 L812.680944,5401.89084 C818.732486,5406.1101 822.34525,5413.02436 822.34525,5420.38941 C822.34525,5427.74797 818.719514,5434.66548 812.648514,5438.88473 L812.084222,5439.2739 C810.449722,5440.41222 810.452965,5442.83157 812.093951,5443.96016 L812.658243,5444.35257 C813.816014,5445.15686 814.853792,5446.01303 815.748875,5446.91137 C819.942146,5451.09171 822.34525,5456.89359 822.34525,5462.82844 C822.34525,5468.76004 819.938903,5474.56841 815.748875,5478.76172 C811.56209,5482.9453 805.760264,5485.34519 799.828715,5485.34519 C793.897167,5485.34519 788.088854,5482.9453 783.895583,5478.76496 C782.394049,5477.25693 781.103313,5475.51539 780.059049,5473.58576 L779.640694,5472.81714 C778.564,5470.82913 775.710111,5470.82913 774.626931,5472.8139 L774.208576,5473.57927 C767.553826,5485.8057 750.599132,5490.22927 737.464757,5478.44714 C737.215042,5478.22661 737.007486,5477.95419 736.845333,5477.66231 L734.218458,5472.84957 C733.138521,5470.86481 730.291118,5470.86481 729.211181,5472.84957 L728.792826,5473.6117 C722.141319,5485.80246 705.189868,5490.2163 692.078194,5478.4666 C691.828479,5478.24607 691.617681,5477.97689 691.458771,5477.68502 L688.805951,5472.84309 C687.722771,5470.86481 684.881854,5470.86805 683.801917,5472.84957 L683.386806,5473.6117 C676.738542,5485.79922 659.793576,5490.20982 646.675417,5478.47957 C646.425701,5478.25904 646.214903,5477.98987 646.055993,5477.69475 L643.399931,5472.84633 C642.319993,5470.86481 639.475833,5470.86805 638.395896,5472.84957 L637.980785,5473.6117 C631.322792,5485.81543 614.348639,5490.22603 601.240208,5478.42444 C600.993736,5478.20391 600.786181,5477.93473 600.627271,5477.64286 L598.010125,5472.84957 C596.930188,5470.86805 594.086028,5470.86481 593.002847,5472.84633 L592.587736,5473.60846 C585.894069,5485.83489 568.877757,5490.24225 555.795271,5478.36606 C555.552042,5478.14229 555.344486,5477.87636 555.188819,5477.59097 L552.600861,5472.84957 C551.520924,5470.86805 548.680007,5470.86481 547.596826,5472.84633 L547.178472,5473.60846 C540.488049,5485.83165 523.484708,5490.239 510.402222,5478.38228 C510.158993,5478.15851 509.954681,5477.89257 509.795771,5477.60394 L507.191597,5472.84633 C506.108417,5470.86805 503.270743,5470.86805 502.187563,5472.84633 L501.769208,5473.60846 C495.082028,5485.83165 478.081931,5490.239 464.999444,5478.38552 C464.756215,5478.16175 464.551903,5477.89582 464.392993,5477.60718 L461.782333,5472.84309 C460.699153,5470.86481 457.858236,5470.86805 456.778299,5472.84957 L456.359944,5473.6117 C449.711681,5485.80246 432.760229,5490.2163 419.645313,5478.46984 C419.395597,5478.24607 419.184799,5477.97689 419.025889,5477.68177 L416.373069,5472.8139 C415.293132,5470.82913 412.439243,5470.83237 411.362549,5472.82039 L410.944194,5473.589 C409.896688,5475.51863 408.605951,5477.26017 407.104417,5478.76172 C402.917632,5482.9453 397.115806,5485.34519 391.184257,5485.34519 C385.255951,5485.34519 379.444396,5482.9453 375.251125,5478.76172 C371.057854,5474.56841 368.651507,5468.76004 368.651507,5462.82844 C368.651507,5456.89359 371.057854,5451.09171 375.251125,5446.90813 C376.146208,5446.01303 377.187229,5445.15686 378.345,5444.35257 L378.912535,5443.9634 C380.550278,5442.83157 380.553521,5440.41222 378.915778,5439.2739 L378.351486,5438.88149 C372.280486,5434.66548 368.651507,5427.75121 368.651507,5420.38941 C368.651507,5413.02436 372.264271,5406.1101 378.315812,5401.89084 L378.873618,5401.50167 C380.501632,5400.36335 380.501632,5397.95698 378.873618,5396.8219 L378.315812,5396.43273 C372.264271,5392.21023 368.651507,5385.29921 368.651507,5377.94714 C368.651507,5370.58533 372.264271,5363.67107 378.315812,5359.44857 L378.873618,5359.0594 C380.501632,5357.92432 380.501632,5355.51471 378.873618,5354.37963 L378.315812,5353.99046 C372.264271,5349.76796 368.651507,5342.86018 368.651507,5335.50486 C368.651507,5328.14306 372.264271,5321.2288 378.315812,5317.00954 L378.873618,5316.61713 C380.501632,5315.48529 380.501632,5313.07568 378.873618,5311.9406 L378.315812,5311.55143 C372.264271,5307.32893 368.651507,5300.41791 368.651507,5293.06584 C368.651507,5285.70403 372.264271,5278.78977 378.315812,5274.56727 L378.873618,5274.1781 C380.501632,5273.04302 380.501632,5270.63665 378.873618,5269.49833 L378.315812,5269.10916 C372.264271,5264.8899 368.651507,5257.9724 368.651507,5250.61059 C368.651507,5243.25203 372.280486,5236.33777 378.354729,5232.11851 L378.919021,5231.7261 C380.550278,5230.59102 380.550278,5228.17168 378.912535,5227.03984 L378.348243,5226.65067 C377.183986,5225.84638 376.142965,5224.98372 375.247882,5224.08863 C371.057854,5219.90829 368.651507,5214.10641 368.651507,5208.17156 C368.651507,5202.23671 371.057854,5196.43483 375.251125,5192.25125 C379.444396,5188.05794 385.252708,5185.65481 391.184257,5185.65481 C397.106076,5185.65481 402.911146,5188.05794 407.10766,5192.25774 C408.609194,5193.7528 409.896688,5195.48785 410.944194,5197.41424 L411.359306,5198.18286 C412.436,5200.17087 415.289889,5200.17411 416.369826,5198.18934 L416.788181,5197.42073 C423.45266,5185.18132 440.439785,5180.761 453.551458,5192.58853 C453.797931,5192.80906 454.005486,5193.07824 454.167639,5193.37012 L456.775056,5198.1634 C457.854993,5200.14817 460.702396,5200.14817 461.782333,5198.16664 L462.200688,5197.40452 C466.160458,5190.15622 473.742722,5185.65481 481.986569,5185.65481 C490.230417,5185.65481 497.812681,5190.15622 501.769208,5197.40452 L502.187563,5198.16988 C503.270743,5200.15141 506.114903,5200.14817 507.19484,5198.16664 L509.789285,5193.40255 C509.944951,5193.11391 510.152507,5192.84474 510.398979,5192.62421 C523.487951,5180.75775 540.494535,5185.16835 547.178472,5197.40452 L547.596826,5198.16988 C548.676764,5200.15141 551.524167,5200.14817 552.600861,5198.16664 L553.019215,5197.40127 C559.65775,5185.21375 576.573528,5180.79018 589.70466,5192.49124 C589.954375,5192.71826 590.168417,5192.99067 590.330569,5193.2858 L592.986632,5198.16664 C594.066569,5200.14817 596.913972,5200.15141 597.99391,5198.16988 L598.412264,5197.40452 C605.083229,5185.19105 622.054139,5180.77397 635.15284,5192.55934 C635.402556,5192.78312 635.610111,5193.05229 635.772264,5193.34741 L638.395896,5198.16664 C639.475833,5200.14817 642.319993,5200.15141 643.403174,5198.16988 L643.821528,5197.40452 C650.505465,5185.16835 667.508806,5180.75775 680.601021,5192.62421 C680.84425,5192.84474 681.051806,5193.11391 681.207472,5193.40255 L683.801917,5198.1634 C684.878611,5200.14817 687.726014,5200.14817 688.809194,5198.16664 L689.224306,5197.40452 C693.187319,5190.15622 700.769583,5185.65481 709.013431,5185.65481 C717.257278,5185.65481 724.836299,5190.15622 728.792826,5197.40452 L729.211181,5198.16988 C730.294361,5200.15141 733.138521,5200.14817 734.218458,5198.16664 L734.636813,5197.40127 C741.281833,5185.20402 758.217069,5180.7837 771.348201,5192.51718 C771.597917,5192.74096 771.811958,5193.01338 771.974111,5193.3085 L774.630174,5198.19259 C775.710111,5200.17735 778.564,5200.17411 779.640694,5198.1861 L780.059049,5197.42073 C781.103313,5195.49109 782.394049,5193.7528 783.895583,5192.25125 C788.085611,5188.05794 793.893924,5185.65481 799.828715,5185.65481 C805.763507,5185.65481 811.565333,5188.05794 815.748875,5192.25774 C819.942146,5196.43483 822.34525,5202.23671 822.34525,5208.17156 C822.34525,5214.10317 819.938903,5219.91154 815.748875,5224.10485 C814.853792,5224.99345 813.819257,5225.84963 812.661486,5226.65391 L812.093951,5227.04308 C810.456208,5228.17168 810.452965,5230.59102 812.087465,5231.72934 L812.651757,5232.12176 C818.719514,5236.34101 822.34525,5243.25527 822.34525,5250.61059 C822.34525,5257.9724 818.732486,5264.8899 812.680944,5269.10916 L812.126382,5269.49833 C810.498368,5270.63665 810.498368,5273.04302 812.126382,5274.1781 L812.126382,5274.1781 Z M829,5250.61059 C829,5242.53855 825.636951,5234.88162 819.835125,5229.40729 C820.045924,5229.20946 820.250236,5229.01164 820.451306,5228.81056 C825.883424,5223.37839 829,5215.85443 829,5208.17156 C829,5200.4822 825.883424,5192.96149 820.454549,5187.54878 C815.038646,5182.11661 807.521243,5179 799.828715,5179 C792.142674,5179 784.618785,5182.11336 779.186667,5187.54553 C779.180181,5187.55526 779.173694,5187.56175 779.167208,5187.56823 C778.028896,5188.7098 776.219271,5188.71953 775.084201,5187.57472 C769.684514,5182.16201 762.287104,5179 754.419451,5179 C746.555042,5179 739.164118,5182.15228 733.767674,5187.55526 C732.622875,5188.70331 730.800278,5188.70331 729.655479,5187.55526 C724.255792,5182.15228 716.868111,5179 709.013431,5179 C701.15875,5179 693.767826,5182.15228 688.368139,5187.55526 C687.220097,5188.70656 685.400743,5188.70331 684.252701,5187.55526 C678.8595,5182.15228 671.468576,5179 663.604167,5179 C655.749486,5179 648.361806,5182.15228 642.958875,5187.55526 C641.814076,5188.70331 639.991479,5188.70331 638.846681,5187.55526 C633.453479,5182.15228 626.065799,5179 618.211118,5179 C610.349951,5179 602.955785,5182.15228 597.552854,5187.55526 C596.404813,5188.70331 594.585458,5188.70331 593.437417,5187.55526 C588.047458,5182.15228 580.659778,5179 572.801854,5179 C564.937444,5179 557.546521,5182.15228 552.153319,5187.55526 C551.002035,5188.70331 549.182681,5188.70331 548.034639,5187.55526 C542.638194,5182.15228 535.250514,5179 527.395833,5179 C519.528181,5179 512.1405,5182.15228 506.744056,5187.55526 C505.596014,5188.70331 503.77666,5188.70331 502.628618,5187.55526 C497.228931,5182.15228 489.84125,5179 481.986569,5179 C474.131889,5179 466.744208,5182.15228 461.344521,5187.55526 C460.196479,5188.70656 458.373882,5188.70331 457.22584,5187.55526 C451.832639,5182.15228 444.441715,5179 436.577306,5179 C428.712896,5179 421.318729,5182.16201 415.919042,5187.57472 C414.780729,5188.71629 412.971104,5188.7098 411.829549,5187.56823 L411.81009,5187.54553 C406.377972,5182.11336 398.857326,5179 391.184257,5179 C383.501458,5179 375.977569,5182.11336 370.548694,5187.54229 C365.116576,5192.96473 362,5200.4822 362,5208.17156 C362,5215.86092 365.116576,5223.37839 370.545451,5228.79759 C370.746521,5229.00191 370.957319,5229.20298 371.171361,5229.40081 C365.366292,5234.87514 362,5242.53531 362,5250.61059 C362,5257.79403 364.652819,5264.64343 369.309847,5269.92641 C370.279521,5271.02906 370.279521,5272.65061 369.309847,5273.75326 C364.652819,5279.033 362,5285.88564 362,5293.06584 C362,5300.23954 364.652819,5307.08894 369.306604,5312.36544 C370.276278,5313.46809 370.276278,5315.09288 369.306604,5316.19228 C364.652819,5321.47203 362,5328.32467 362,5335.50486 C362,5342.68181 364.652819,5349.52797 369.306604,5354.80772 C370.276278,5355.90712 370.276278,5357.53191 369.306604,5358.63456 C364.652819,5363.9143 362,5370.76694 362,5377.94714 C362,5385.12084 364.652819,5391.97024 369.306604,5397.24674 C370.276278,5398.34939 370.276278,5399.97418 369.306604,5401.07359 C364.652819,5406.35657 362,5413.20597 362,5420.38941 C362,5428.46794 365.363049,5436.12486 371.168118,5441.59919 C370.954076,5441.79702 370.749764,5441.99809 370.548694,5442.19916 C365.116576,5447.61836 362,5455.13908 362,5462.82844 C362,5470.51131 365.113333,5478.03203 370.548694,5483.47068 C375.987299,5488.88988 383.507944,5492 391.184257,5492 C398.867056,5492 406.384458,5488.88988 411.81009,5483.46744 C411.816576,5483.45771 411.823062,5483.45122 411.829549,5483.44474 C412.974347,5482.29993 414.787215,5482.29344 415.932014,5483.43501 C421.328458,5488.84123 428.719382,5492 436.577306,5492 C444.441715,5492 451.832639,5488.84772 457.229083,5483.44798 C458.373882,5482.29993 460.193236,5482.29993 461.344521,5483.44798 C466.744208,5488.84772 474.131889,5492 481.986569,5492 C489.84125,5492 497.232174,5488.84448 502.631861,5483.44474 C503.779903,5482.29669 505.599257,5482.29669 506.747299,5483.44474 C512.146986,5488.84448 519.53791,5492 527.395833,5492 C535.247271,5492 542.634951,5488.84772 548.037882,5483.44798 C549.185924,5482.29993 551.002035,5482.30317 552.153319,5483.44798 C557.546521,5488.84772 564.940687,5492 572.801854,5492 C580.656535,5492 588.044215,5488.84772 593.443903,5483.44798 C594.591944,5482.29993 596.411299,5482.30317 597.55934,5483.44798 C602.955785,5488.84772 610.346708,5492 618.211118,5492 C626.065799,5492 633.453479,5488.84772 638.846681,5483.45122 C639.994722,5482.30317 641.814076,5482.30317 642.958875,5483.44798 C648.361806,5488.84772 655.752729,5492 663.604167,5492 C671.468576,5492 678.8595,5488.84772 684.255944,5483.44798 C685.400743,5482.30317 687.220097,5482.29993 688.368139,5483.44798 C693.767826,5488.84772 701.15875,5492 709.013431,5492 C716.871354,5492 724.262278,5488.84772 729.658722,5483.45122 C730.803521,5482.30641 732.622875,5482.30641 733.770917,5483.45122 C739.167361,5488.84772 746.558285,5492 754.419451,5492 C762.283861,5492 769.678028,5488.84448 775.074472,5483.43501 C776.216028,5482.29344 778.028896,5482.29993 779.167208,5483.44798 C779.176938,5483.45447 779.183424,5483.46095 779.18991,5483.47068 C784.628514,5488.88988 792.14916,5492 799.828715,5492 C807.514757,5492 815.028917,5488.88988 820.451306,5483.4642 C825.883424,5478.03203 829,5470.51131 829,5462.82844 C829,5455.13908 825.883424,5447.61836 820.454549,5442.20565 C820.250236,5442.00134 820.045924,5441.80027 819.831882,5441.60244 C825.636951,5436.12486 829,5428.46794 829,5420.38941 C829,5413.20922 826.347181,5406.35982 821.696639,5401.07683 C820.723722,5399.97418 820.723722,5398.35264 821.696639,5397.24999 C826.347181,5391.97673 829,5385.13057 829,5377.94714 C829,5370.76694 826.343938,5363.9143 821.690153,5358.63456 C820.720479,5357.53191 820.720479,5355.90712 821.693396,5354.80772 C826.343938,5349.52797 829,5342.68181 829,5335.50486 C829,5328.32467 826.343938,5321.47203 821.690153,5316.19228 C820.720479,5315.09288 820.720479,5313.46809 821.693396,5312.36544 C826.343938,5307.08894 829,5300.23954 829,5293.06584 C829,5285.88564 826.343938,5279.033 821.690153,5273.75326 C820.720479,5272.65061 820.720479,5271.02906 821.690153,5269.92641 C826.343938,5264.64343 829,5257.79403 829,5250.61059 L829,5250.61059 Z" id="higher_standard"></path></g></g></svg> 