<?xml version="1.0" encoding="UTF-8"?> <svg xmlns="http://www.w3.org/2000/svg" xmlns:xlink="http://www.w3.org/1999/xlink" width="2501px" height="2501px" viewBox="0 0 2501 2501"><!-- Generator: Sketch 55.2 (78181) - https://sketchapp.com --><title>tiktok-share-icon-black-seeklogo.com 2</title><desc>Created with Sketch.</desc><g id="Page-1" stroke="none" stroke-width="1" fill="none" fill-rule="evenodd"><g id="tiktok-share-icon-black-seeklogo.com-2" transform="translate(0.095238, 0.095238)" fill="#FFFFFF" fill-rule="nonzero"><path d="M2202.38095,0 L297.619048,0 C133.511905,0 0,133.511905 0,297.619048 L0,2202.38095 C0,2366.4881 133.511905,2500 297.619048,2500 L2202.38095,2500 C2366.4881,2500 2500,2366.4881 2500,2202.38095 L2500,297.619048 C2500,133.511905 2366.4881,0 2202.38095,0 M1964.64286,1090.65476 C1950.99176,1091.98126 1937.28668,1092.67645 1923.57143,1092.7381 C1773.13341,1092.7591 1632.82425,1016.93083 1550.41667,891.071429 L1550.41667,1577.79762 C1550.41667,1858.115 1323.17453,2085.35714 1042.85714,2085.35714 C762.539758,2085.35714 535.297619,1858.115 535.297619,1577.79762 C535.297619,1297.48023 762.539758,1070.2381 1042.85714,1070.2381 C1053.45238,1070.2381 1063.80952,1071.19048 1074.22619,1071.84524 L1074.22619,1321.96429 C1063.80952,1320.71429 1053.57143,1318.80952 1042.85714,1318.80952 C899.789093,1318.80952 783.809524,1434.78909 783.809524,1577.85714 C783.809524,1720.92519 899.789093,1836.90476 1042.85714,1836.90476 C1185.95238,1836.90476 1312.32143,1724.16667 1312.32143,1581.07143 L1314.82143,414.761905 L1554.10714,414.761905 C1576.67091,629.341358 1749.69266,796.947563 1964.88095,812.678571 L1964.88095,1090.65476" id="Shape"></path></g></g></svg> 