<?xml version="1.0" encoding="UTF-8"?>
<svg width="352px" height="122px" viewBox="0 0 352 122" version="1.1" xmlns="http://www.w3.org/2000/svg" xmlns:xlink="http://www.w3.org/1999/xlink">
    <!-- Generator: Sketch 55.2 (78181) - https://sketchapp.com -->
    <title>Group 26</title>
    <desc>Created with Sketch.</desc>
    <defs>
        <polygon id="path-1" points="0.7293 0.3169 58.383 0.3169 58.383 47.9999 0.7293 47.9999"></polygon>
    </defs>
    <g id="Final-Designs" stroke="none" stroke-width="1" fill="none" fill-rule="evenodd">
        <g id="1-Home" transform="translate(-124.000000, -911.000000)">
            <g id="Group-26" transform="translate(124.000000, 911.000000)">
                <path d="M40.9934,96.7773 L19.1394,73.3833 C12.3634,79.7453 5.9514,86.5173 0.0004,93.6403 L24.8584,97.1973 L33.1904,121.5333 C40.5674,112.7033 48.8014,104.5213 57.6564,97.2163 L50.4624,88.4483 C47.2334,91.1173 44.0704,93.8873 40.9934,96.7773" id="Fill-1" fill="#EBE3D9"></path>
                <g id="Group-5" transform="translate(293.000000, 73.977000)">
                    <mask id="mask-2" fill="white">
                        <use xlink:href="#path-1"></use>
                    </mask>
                    <g id="Clip-4"></g>
                    <path d="M39.7493,0.3169 L18.1933,23.2439 C14.9743,20.2009 11.6623,17.2859 8.2753,14.4849 L0.7293,23.6809 C9.5853,30.9859 17.8163,39.1699 25.1963,47.9999 L33.5273,23.6639 L58.3833,20.1039 C52.5803,13.1589 46.3403,6.5419 39.7493,0.3169" id="Fill-3" fill="#EBE3D9" mask="url(#mask-2)"></path>
                </g>
                <path d="M223.1331,20.9228 L219.8781,20.2108 L218.8371,24.9688 L222.0921,25.6818 C223.3501,25.9558 223.7671,26.0198 224.0601,24.6798 L224.4791,22.7648 C224.7831,21.3698 224.4461,21.2098 223.1331,20.9228" id="Fill-6" fill="#FEFEFE"></path>
                <polygon id="Fill-8" fill="#FEFEFE" points="237.2307 35.3476 243.3007 37.3296 246.3437 28.0116 240.2737 26.0296"></polygon>
                <path d="M170.3889,16.3164 L167.2529,16.3894 L167.4859,26.1894 L170.6209,26.1154 C173.9249,26.0374 174.0629,24.7454 173.9699,20.8254 C173.8839,17.1844 173.6089,16.2394 170.3889,16.3164" id="Fill-10" fill="#FEFEFE"></path>
                <polygon id="Fill-12" fill="#FEFEFE" points="72.3186 50.0546 76.0236 48.0206 71.1956 43.6446"></polygon>
                <path d="M130.2131,21.9941 C129.8981,20.6011 129.5251,20.5991 128.2131,20.8961 L124.9631,21.6321 L126.0391,26.3851 L129.2891,25.6491 C130.5451,25.3651 130.9481,25.2441 130.6461,23.9061 L130.2131,21.9941 Z" id="Fill-14" fill="#FEFEFE"></path>
                <path d="M202.843,17.3945 L199.534,16.9955 L198.95,21.8325 L202.259,22.2325 C203.538,22.3865 203.958,22.4105 204.123,21.0465 L204.358,19.1005 C204.529,17.6825 204.178,17.5555 202.843,17.3945" id="Fill-16" fill="#FEFEFE"></path>
                <path d="M318.9622,70.1542 L309.4992,81.2172 L304.9672,77.3412 L314.4312,66.2782 L311.1122,63.4392 L314.0242,60.0362 L325.1922,69.5902 L322.2802,72.9942 L318.9622,70.1542 Z M303.3082,69.8002 C301.9052,71.7572 299.2402,72.6382 296.1902,70.4512 L292.0252,67.4652 C288.7242,65.0982 288.2542,62.0052 290.0822,59.4552 L295.1912,52.3312 C297.2302,49.4862 300.2312,49.9142 303.0992,51.9702 L307.7432,55.3002 C310.7932,57.4862 310.6852,59.5102 309.2812,61.4682 L307.9112,63.3812 L302.5562,60.6102 L304.2212,58.2892 L300.2832,55.4652 L294.5712,63.4322 L298.5092,66.2562 L300.4832,63.5012 L304.5982,68.0022 L303.3082,69.8002 Z M279.4702,59.3292 L275.1582,56.8302 C271.6442,54.7952 270.8922,51.7372 272.4642,49.0232 L279.3002,37.2242 L284.4622,40.2142 L277.3022,52.5712 L282.1002,55.3502 L289.2592,42.9942 L294.4202,45.9842 L287.5832,57.7832 C286.0112,60.4972 282.9602,61.3512 279.4702,59.3292 L279.4702,59.3292 Z M260.1062,49.1832 L250.7902,44.9842 L258.6132,27.6292 L267.9292,31.8282 C273.7482,34.4512 274.3702,37.7712 271.7362,43.6172 C269.0552,49.5632 265.9252,51.8072 260.1062,49.1832 L260.1062,49.1832 Z M241.5572,41.7692 L236.0192,39.9612 C232.1582,38.7002 230.7862,35.8652 231.7602,32.8832 L234.4632,24.6032 C235.4552,21.5682 238.0972,20.6042 241.9312,21.8562 L247.4682,23.6652 C251.3022,24.9172 252.8672,27.2542 251.8762,30.2902 L249.1712,38.5702 C248.1972,41.5512 245.3912,43.0212 241.5572,41.7692 L241.5572,41.7692 Z M230.6682,22.3702 L229.5252,27.5932 C228.9932,30.0282 227.3862,30.5642 225.5322,30.3882 L227.9972,37.4612 L221.5162,36.0442 L219.6412,29.1562 L218.0002,28.7982 L216.6482,34.9782 L210.8222,33.7052 L214.8922,15.1072 L226.7872,17.7102 C229.9602,18.4042 231.2902,19.5262 230.6682,22.3702 L230.6682,22.3702 Z M210.4852,18.1202 L209.8442,23.4302 C209.4912,26.3502 207.3782,26.8002 205.0422,26.5182 L198.4802,25.7262 L197.7212,32.0092 L191.7982,31.2952 L194.0822,12.3862 L206.1772,13.8472 C209.4022,14.2372 210.8352,15.2282 210.4852,18.1202 L210.4852,18.1202 Z M171.8552,30.8482 L161.6342,31.0912 L161.1832,12.0512 L171.4032,11.8082 C177.7862,11.6572 179.7842,14.3832 179.9372,20.7952 C180.0922,27.3192 178.2382,30.6972 171.8552,30.8482 L171.8552,30.8482 Z M142.8012,33.3422 L140.4142,14.4582 L155.5502,12.5452 L156.1112,16.9892 L146.8922,18.1542 L147.2212,20.7642 L152.5812,20.0882 L153.1432,24.5312 L147.7822,25.2082 L148.1192,27.8752 L157.4792,26.6912 L158.0752,31.4132 L142.8012,33.3422 Z M133.1622,35.2802 L128.5422,29.8372 L126.9032,30.2082 L128.3002,36.3812 L122.4832,37.6962 L118.2812,19.1242 L130.1622,16.4362 C133.3302,15.7192 135.0122,16.1722 135.6542,19.0122 L136.8342,24.2292 C137.3842,26.6602 136.1552,27.8282 134.4012,28.4542 L139.6352,33.8162 L133.1622,35.2802 Z M112.9852,40.6932 L108.2652,42.2922 C104.4202,43.5942 101.6232,42.1472 100.6172,39.1772 L96.2422,26.2632 L101.8902,24.3502 L106.4732,37.8742 L111.7232,36.0952 L107.1412,22.5712 L112.7892,20.6582 L117.1642,33.5722 C118.1712,36.5422 116.8032,39.3992 112.9852,40.6932 L112.9852,40.6932 Z M90.8542,49.3532 L84.9472,36.0472 L80.9562,37.8192 L79.1392,33.7242 L92.5732,27.7612 L94.3912,31.8562 L90.3992,33.6282 L96.3042,46.9342 L90.8542,49.3532 Z M82.0532,53.6532 L79.4302,51.2602 L73.2212,54.6682 L73.8562,58.1512 L68.8992,60.8722 L66.0232,40.7362 L71.7892,37.5702 L87.8942,50.4472 L82.0532,53.6532 Z M54.3652,70.9832 L43.5152,55.3322 L56.0592,46.6352 L58.6122,50.3182 L50.9712,55.6152 L52.4712,57.7792 L56.9132,54.6992 L59.4662,58.3832 L55.0242,61.4622 L56.5552,63.6722 L64.3132,58.2942 L67.0252,62.2072 L54.3652,70.9832 Z M45.7912,77.9252 L41.1752,81.7032 L29.1152,66.9662 L40.9262,57.3002 L43.7642,60.7682 L36.5692,66.6572 L38.9452,69.5602 L43.1282,66.1372 L45.9652,69.6052 L41.7832,73.0282 L45.7912,77.9252 Z M175.8562,0.0002 C114.5472,0.0002 56.1492,23.1292 11.4262,65.1282 L40.9932,96.7772 C77.6742,62.3332 125.5672,43.3652 175.8562,43.3652 C226.3792,43.3652 274.4432,62.4902 311.1932,97.2202 L340.8582,65.6692 C296.0542,23.3192 237.4552,0.0002 175.8562,0.0002 L175.8562,0.0002 Z" id="Fill-18" fill="#FEFEFE"></path>
                <path d="M265.0667,35.4511 L262.2087,34.1631 L258.1817,43.0971 L261.0407,44.3851 C264.0527,45.7421 264.7347,44.6381 266.3447,41.0641 C267.8407,37.7461 268.0027,36.7741 265.0667,35.4511" id="Fill-20" fill="#FEFEFE"></path>
                <path d="M40.9934,96.7773 L57.6564,97.2163 L50.4684,88.4433 C47.2364,91.1143 44.0724,93.8863 40.9934,96.7773" id="Fill-22" fill="#BAB29E"></path>
                <path d="M293.7297,97.6582 L311.1937,97.2212 C307.9727,94.1772 304.6607,91.2612 301.2727,88.4592 L293.7297,97.6582 Z" id="Fill-24" fill="#BAB29E"></path>
            </g>
        </g>
    </g>
</svg>