<?xml version="1.0" encoding="utf-8"?>
<!-- Generator: Adobe Illustrator 22.1.0, SVG Export Plug-In . SVG Version: 6.00 Build 0)  -->
<svg version="1.1" id="Layer_1" xmlns="http://www.w3.org/2000/svg" xmlns:xlink="http://www.w3.org/1999/xlink" x="0px" y="0px"
	 viewBox="0 0 287 89" style="enable-background:new 0 0 287 89;" xml:space="preserve">
<style type="text/css">
	.st0{fill:none;stroke:#FEAB87;stroke-miterlimit:10;}
</style>
<path id="Line-7-Copy-3" class="st0" d="M9.5,89.1V0.3"/>
<path id="Line-7-Copy-4" class="st0" d="M23.5,89.1V0.3"/>
<path id="Line-7-Copy-13" class="st0" d="M152.5,89.1V0.3"/>
<path id="Line-7-Copy-20" class="st0" d="M253.5,89.1V0.3"/>
<path id="Line-7-Copy-5" class="st0" d="M38.5,89.1V0.3"/>
<path id="Line-7-Copy-14" class="st0" d="M167.5,89.1V0.3"/>
<path id="Line-7-Copy-21" class="st0" d="M267.5,89.1V0.3"/>
<path id="Line-7-Copy-6" class="st0" d="M52.5,89.1V0.3"/>
<path id="Line-7-Copy-15" class="st0" d="M181.5,89.1V0.3"/>
<path id="Line-7-Copy-22" class="st0" d="M281.5,89.1V0.3"/>
<path id="Line-7-Copy-7" class="st0" d="M66.5,89.1V0.3"/>
<path id="Line-7-Copy-16" class="st0" d="M195.5,89.1V0.3"/>
<path id="Line-7-Copy-8" class="st0" d="M81.5,89.1V0.3"/>
<path id="Line-7-Copy-17" class="st0" d="M210.5,89.1V0.3"/>
<path id="Line-7-Copy-9" class="st0" d="M95.5,89.1V0.3"/>
<path id="Line-7-Copy-18" class="st0" d="M224.5,89.1V0.3"/>
<path id="Line-7-Copy-10" class="st0" d="M109.5,89.1V0.3"/>
<path id="Line-7-Copy-11" class="st0" d="M124.5,89.1V0.3"/>
<path id="Line-7-Copy-12" class="st0" d="M138.5,89.1V0.3"/>
<path id="Line-7-Copy-19" class="st0" d="M238.5,89.1V0.3"/>
<path id="Line-7-Copy-2" class="st0" d="M2.5,89.1V0.3"/>
<path id="Line-7-Copy-3_1_" class="st0" d="M16.5,89.1V0.3"/>
<path id="Line-7-Copy-4_1_" class="st0" d="M31.5,89.1V0.3"/>
<path id="Line-7-Copy-13_1_" class="st0" d="M160.5,89.1V0.3"/>
<path id="Line-7-Copy-20_1_" class="st0" d="M260.5,89.1V0.3"/>
<path id="Line-7-Copy-5_1_" class="st0" d="M45.5,89.1V0.3"/>
<path id="Line-7-Copy-14_1_" class="st0" d="M174.5,89.1V0.3"/>
<path id="Line-7-Copy-21_1_" class="st0" d="M274.5,89.1V0.3"/>
<path id="Line-7-Copy-6_1_" class="st0" d="M59.5,89.1V0.3"/>
<path id="Line-7-Copy-15_1_" class="st0" d="M188.5,89.1V0.3"/>
<path id="Line-7-Copy-7_1_" class="st0" d="M74.5,89.1V0.3"/>
<path id="Line-7-Copy-16_1_" class="st0" d="M203.5,89.1V0.3"/>
<path id="Line-7-Copy-8_1_" class="st0" d="M88.5,89.1V0.3"/>
<path id="Line-7-Copy-17_1_" class="st0" d="M217.5,89.1V0.3"/>
<path id="Line-7-Copy-9_1_" class="st0" d="M102.5,89.1V0.3"/>
<path id="Line-7-Copy-18_1_" class="st0" d="M231.5,89.1V0.3"/>
<path id="Line-7-Copy-10_1_" class="st0" d="M117.5,89.1V0.3"/>
<path id="Line-7-Copy-11_1_" class="st0" d="M131.5,89.1V0.3"/>
<path id="Line-7-Copy-12_1_" class="st0" d="M145.5,89.1V0.3"/>
<path id="Line-7-Copy-19_1_" class="st0" d="M246.5,89.1V0.3"/>
</svg>
