<?xml version="1.0" encoding="UTF-8"?>
<svg width="6px" height="24px" viewBox="0 0 6 24" version="1.1" xmlns="http://www.w3.org/2000/svg" xmlns:xlink="http://www.w3.org/1999/xlink">
    <!-- Generator: Sketch 54.1 (76490) - https://sketchapp.com -->
    <title>Group 36</title>
    <desc>Created with Sketch.</desc>
    <g id="Final-Designs" stroke="none" stroke-width="1" fill="none" fill-rule="evenodd">
        <g id="Group-36">
            <path d="M0.0224215077,9.25926003e-13 C0.275035897,2.80325001 2.63097872,5 5.5,5 C5.66854485,5 5.83531898,4.99241869 6,4.97757849 L6,18.0224215 C5.83531898,18.0075813 5.66854485,18 5.5,18 C2.46243388,18 4.4408921e-13,20.4624339 4.4408921e-13,23.5 C4.4408921e-13,23.6685448 0.00758130641,23.835319 0.0224215077,24 L4.4408921e-13,24 L4.4408921e-13,-5.32907052e-15 L0.0224215077,-5.32907052e-15 Z" id="Combined-Shape" fill="#FBF4EC"></path>
            <path d="M0.0224215077,0 L6,0 L6,4.97757849 C5.83531898,4.99241869 5.66854485,5 5.5,5 C2.63097872,5 0.275035897,2.80325001 0.0224215077,9.31255073e-13 Z M6,18.0224215 L6,24 L0.0224215077,24 C0.00758130641,23.835319 2.22488694e-13,23.6685448 2.22488694e-13,23.5 C2.22488694e-13,20.4624339 2.46243388,18 5.5,18 C5.66854485,18 5.83531898,18.0075813 6,18.0224215 Z" id="Combined-Shape" fill="#004D71"></path>
        </g>
    </g>
</svg>