<?xml version="1.0" encoding="UTF-8"?>
<svg width="1036px" height="480px" viewBox="0 0 1036 480" version="1.1" xmlns="http://www.w3.org/2000/svg" xmlns:xlink="http://www.w3.org/1999/xlink">
    <!-- Generator: Sketch 54.1 (76490) - https://sketchapp.com -->
    <title>Slice</title>
    <desc>Created with Sketch.</desc>
    <defs>
        <polygon id="path-1" points="0 0.494307197 102.735304 0.494307197 102.735304 51.4638722 0 51.4638722"></polygon>
        <polygon id="path-3" points="0 0.806174089 175.547704 0.806174089 175.547704 83.9333123 0 83.9333123"></polygon>
    </defs>
    <g id="Final-Designs" stroke="none" stroke-width="1" fill="none" fill-rule="evenodd">
        <g id="Group-8" transform="translate(833.810320, 155.841905) rotate(16.000000) translate(-833.810320, -155.841905) translate(751.310320, 106.841905)">
            <path d="M137.284765,73.4223649 C138.414348,73.1445276 139.543932,72.588853 139.826328,71.4775037 C140.108724,70.3661544 139.261536,69.2548052 138.131952,68.6991305 C137.002369,68.1434559 135.872785,68.1434559 134.743202,68.4212932 C132.201639,68.4212932 129.660076,68.6991305 127.118513,68.6991305 C126.271325,68.6991305 125.141742,68.6991305 124.57695,67.8656186 C124.294554,67.5877812 124.294554,67.0321066 124.012158,66.7542693 C123.447366,65.9207573 122.600179,65.64292 121.470595,65.3650827 C119.493824,65.0872454 117.517053,64.5315707 115.822677,65.3650827 C114.410698,65.9207573 113.281114,66.7542693 111.869135,67.0321066 C109.609968,67.3099439 108.480384,63.6980588 106.503613,62.5867095 C103.96205,60.9196856 100.855696,59.8083363 97.7493408,60.0861736 C93.2310066,60.3640109 88.9950683,64.5315707 89.842256,68.9769678 C89.842256,69.8104798 90.1246518,70.3661544 90.1246518,71.1996664 C89.842256,72.588853 88.1478806,73.1445276 87.0182971,73.4223649 C83.9119423,73.9780396 80.8055876,74.5337142 78.8288164,77.0342501 C78.2640246,77.5899247 77.9816287,78.4234367 77.1344411,78.9791113 C75.1576699,80.6461353 72.333711,78.9791113 69.792148,78.701274 C65.8386056,78.1455994 61.8850632,81.7574845 62.1674591,85.647207 C62.1674591,86.7585563 62.449855,88.1477429 61.8850632,89.2590922 C61.3202715,90.0926041 60.4730838,90.3704414 59.6258961,90.6482788 C57.9315208,91.2039534 55.9547496,91.2039534 53.9779784,91.4817907 C52.8483949,91.759628 46.6356854,95.3715132 49.7420401,96.4828625 C53.9779784,98.1498864 58.7787085,95.6493505 63.2970427,94.8158385 C67.2505851,93.9823266 71.4865234,94.8158385 75.7224616,93.7044893 C79.6760041,92.59314 83.3471506,89.8147668 87.300693,88.9812548 C90.4070477,88.4255802 93.5134025,88.9812548 96.6197572,88.1477429 C101.420487,87.0363936 105.091634,82.8688338 109.892364,82.0353218 C118.929032,79.8126233 128.530492,76.7564128 137.284765,73.4223649" id="Fill-1" fill="#FFFFFF"></path>
            <g id="Group-5" transform="translate(0.936559, 0.592602)">
                <mask id="mask-2" fill="white">
                    <use xlink:href="#path-1"></use>
                </mask>
                <g id="Clip-4"></g>
                <path d="M89.1608249,28.8158754 C89.7291807,28.5366058 90.2975366,28.2573362 90.8658925,27.9780666 C92.57096,26.8609882 93.7076717,24.906101 95.4127393,23.7890226 C96.549451,23.2304834 97.6861627,22.6719441 98.8228744,22.3926745 C99.9595861,21.8341353 101.096298,21.2755961 101.948832,20.4377873 C104.222255,17.6450913 101.096298,15.9694737 98.5386965,16.2487433 C96.8336289,16.5280129 95.1285614,17.3658217 93.4234938,17.9243609 C89.7291807,19.0414393 86.0348677,19.0414393 82.3405546,19.8792481 C78.3620636,20.7170569 74.6677506,21.8341353 70.6892596,22.3926745 C69.5525479,22.3926745 67.8474803,22.3926745 67.5633024,20.9963265 C67.2791244,20.1585177 68.1316582,19.0414393 68.984192,18.7621697 C70.9734375,17.9243609 75.2361064,16.2487433 75.5202843,13.7353169 C75.8044623,12.6182385 74.9519285,11.2218904 73.8152168,10.6633512 C70.9734375,8.98773362 67.5633024,10.104812 64.7215231,9.26700322 C62.4480997,8.70846402 60.7430321,6.4743072 60.4588542,4.24015038 C60.4588542,3.40234157 60.4588542,2.56453276 59.8904983,2.00599356 C59.6063204,1.72672395 59.0379645,1.44745435 58.7537866,1.16818475 C54.7752956,-0.507432868 52.2176943,1.16818475 49.091737,3.68161117 C45.9657798,6.19503759 40.8505771,6.4743072 37.1562641,7.312116 C35.1670186,7.87065521 33.1777731,8.14992481 32.0410614,9.54627282 C30.6201717,10.9426208 30.3359938,13.4560473 32.0410614,14.5731257 C32.3252393,14.5731257 32.3252393,14.8523953 32.6094172,14.8523953 C33.7461289,15.6902041 33.461951,17.6450913 32.3252393,18.7621697 C31.1885276,19.8792481 29.767638,20.1585177 28.3467483,20.9963265 C26.0733249,22.1134049 26.6416807,24.0682922 25.504969,25.4646402 C23.7999015,27.1402578 20.1055884,26.302449 18.1163429,26.5817186 C16.1270974,26.8609882 14.1378519,27.9780666 13.2853181,29.6536842 C12.7169623,31.6085714 13.853674,33.5634586 14.9903857,34.9598067 C15.5587416,35.5183459 16.1270974,36.3561547 16.1270974,37.1939635 C16.1270974,38.3110419 15.2745636,39.1488507 14.4220298,39.7073899 C10.7277168,42.2208163 5.61251408,41.3830075 2.20237894,43.8964339 C-0.639400338,45.8513212 -0.923578266,50.3196348 2.48655687,51.1574436 C6.74922579,52.274522 11.2960726,50.0403652 15.5587416,49.2025564 C19.5372325,48.3647476 23.7999015,49.2025564 28.0625704,48.085478 C32.0410614,46.9683996 35.7353744,44.1757035 39.7138654,43.3378947 C42.8398226,42.7793555 45.9657798,43.3378947 49.091737,42.5000859 C52.7860501,41.6622771 55.3436515,39.1488507 58.4696087,37.7525027 C62.4480997,35.7976155 67.2791244,35.2390763 71.2576154,33.8427282 C72.3943271,33.5634586 73.2468609,33.284189 74.3835726,32.7256498 C77.2253519,31.3293018 78.6462416,29.095145 81.7721988,28.5366058 C84.0456222,29.095145 86.8874015,29.6536842 89.1608249,28.8158754" id="Fill-3" fill="#FFFFFF" mask="url(#mask-2)"></path>
            </g>
            <path d="M120.910478,42.1697238 C119.178881,42.4757699 113.11829,44.6180926 112.541091,41.5576316 C111.963892,38.1911244 117.735883,37.8850783 119.46748,37.2729861 C122.353476,36.0488017 124.085073,32.6822946 127.836867,32.6822946 C130.145663,32.6822946 132.454459,33.6004329 134.186057,32.3762485 C135.051855,31.7641563 135.629054,30.5399718 136.494853,29.9278796 C138.51505,27.7855569 143.421242,26.5613725 146.307237,26.5613725 C148.616034,26.5613725 151.21343,27.7855569 153.522226,27.4795108 C156.696821,27.4795108 159.871416,25.3371881 163.046011,26.5613725 C163.33461,26.8674186 163.911809,26.8674186 164.200409,27.4795108 C164.777608,28.3976491 164.489008,29.6218335 163.62321,30.5399718 C162.757411,31.4581102 161.891613,31.7641563 160.737214,32.0702024 C147.461636,35.7427556 134.186057,38.8032167 120.910478,42.1697238" id="Fill-6" fill="#FFFFFF"></path>
        </g>
        <g id="Group-8-Copy-3" transform="translate(224.860671, 270.088677) rotate(14.000000) translate(-224.860671, -270.088677) translate(86.360671, 189.588677)">
            <path d="M230.79785,121.296965 C232.721866,120.838909 234.645882,119.922796 235.126886,118.090572 C235.60789,116.258348 234.164878,114.426123 232.240862,113.510011 C230.316847,112.593899 228.392831,112.593899 226.468815,113.051955 C222.139779,113.051955 217.810743,113.510011 213.481707,113.510011 C212.038695,113.510011 210.114679,113.510011 209.152671,112.135842 C208.671667,111.677786 208.671667,110.761674 208.190663,110.303618 C207.228655,108.92945 205.785643,108.471393 203.861628,108.013337 C200.4946,107.555281 197.127572,106.639169 194.241548,108.013337 C191.836528,108.92945 189.912512,110.303618 187.507492,110.761674 C183.65946,111.21973 181.735444,105.265001 178.368416,103.432776 C174.039381,100.684439 168.748337,98.8522149 163.457293,99.310271 C155.761229,99.7683271 148.54617,106.639169 149.989182,113.968067 C149.989182,115.342235 150.470186,116.258348 150.470186,117.632516 C149.989182,119.922796 147.103158,120.838909 145.179142,121.296965 C139.888098,122.213077 134.597054,123.129189 131.230026,127.251694 C130.268018,128.167807 129.787014,129.541975 128.344002,130.458087 C124.976975,133.206424 120.166935,130.458087 115.837899,130.000031 C109.103843,129.083919 102.369787,135.038648 102.850791,141.451434 C102.850791,143.283659 103.331795,145.573939 102.369787,147.406164 C101.407779,148.780332 99.9647675,149.238388 98.5217555,149.696444 C95.6357316,150.612557 92.2687038,150.612557 88.9016759,151.070613 C86.97766,151.528669 76.3955724,157.483398 81.6866162,159.315623 C88.9016759,162.06396 97.0787436,157.941455 104.774807,156.567286 C111.508863,155.193118 118.723923,156.567286 125.938982,154.735062 C132.673038,152.902837 138.92609,148.322276 145.660146,146.948108 C150.95119,146.031995 156.242233,146.948108 161.533277,145.573939 C169.710345,143.741715 175.963397,136.870873 184.140464,135.496705 C199.532592,131.832256 215.886727,126.793638 230.79785,121.296965" id="Fill-1" fill="#FFFFFF"></path>
            <g id="Group-5" transform="translate(0.046288, 0.504475)">
                <mask id="mask-4" fill="white">
                    <use xlink:href="#path-3"></use>
                </mask>
                <g id="Clip-4"></g>
                <path d="M152.352477,46.9963057 C153.323649,46.5408401 154.29482,46.0853745 155.265991,45.6299089 C158.179505,43.8080466 160.121847,40.6197874 163.03536,38.7979251 C164.977703,37.8869939 166.920045,36.9760628 168.862387,36.5205972 C170.80473,35.609666 172.747072,34.6987348 174.203829,33.3323381 C178.088514,28.7776822 172.747072,26.0448887 168.376802,26.5003543 C165.463288,26.9558198 162.549775,28.3222166 159.636261,29.2331478 C153.323649,31.0550101 147.011036,31.0550101 140.698423,32.4214069 C133.900225,33.7878036 127.587613,35.609666 120.789414,36.5205972 C118.847072,36.5205972 115.933559,36.5205972 115.447973,34.2432692 C114.962387,32.8768725 116.419144,31.0550101 117.875901,30.5995445 C121.275,29.2331478 128.558784,26.5003543 129.044369,22.401164 C129.529955,20.5793016 128.073198,18.3019737 126.130856,17.3910425 C121.275,14.658249 115.447973,16.4801113 110.592117,15.1137146 C106.707432,14.2027834 103.793919,10.5590587 103.308333,6.91533401 C103.308333,5.54893725 103.308333,4.18254049 102.337162,3.27160931 C101.851577,2.81614372 100.880405,2.36067814 100.39482,1.90521255 C93.5966216,-0.827580972 89.2263514,1.90521255 83.8849099,6.00440283 C78.5434685,10.1035931 69.8029279,10.5590587 63.4903153,11.9254555 C60.0912162,12.8363866 56.6921171,13.2918522 54.7497748,15.5691802 C52.3218468,17.8465081 51.8362613,21.9456984 54.7497748,23.7675607 C55.2353604,23.7675607 55.2353604,24.2230263 55.7209459,24.2230263 C57.6632883,25.5894231 57.1777027,28.7776822 55.2353604,30.5995445 C53.293018,32.4214069 50.8650901,32.8768725 48.4371622,34.2432692 C44.5524775,36.0651316 45.5236486,39.2533907 43.5813063,41.5307186 C40.6677928,44.2635121 34.3551802,42.8971154 30.9560811,43.352581 C27.556982,43.8080466 24.1578829,45.6299089 22.7011261,48.3627024 C21.729955,51.5509615 23.6722973,54.7392206 25.6146396,57.0165486 C26.5858108,57.9274798 27.556982,59.2938765 27.556982,60.6602733 C27.556982,62.4821356 26.1002252,63.8485324 24.6434685,64.7594636 C18.3308559,68.8586538 9.59031532,67.4922571 3.76328829,71.5914474 C-1.09256757,74.7797065 -1.57815315,82.0671559 4.24887387,83.4335526 C11.5326577,85.255415 19.302027,81.6116903 26.5858108,80.2452935 C33.384009,78.8788968 40.6677928,80.2452935 47.9515766,78.4234312 C54.7497748,76.6015688 61.0623874,72.046913 67.8605856,70.6805162 C73.202027,69.769585 78.5434685,70.6805162 83.8849099,69.3141194 C90.1975225,67.9477227 94.5677928,63.8485324 99.9092342,61.5712045 C106.707432,58.3829453 114.962387,57.4720142 121.760586,55.1946862 C123.702928,54.7392206 125.159685,54.2837551 127.102027,53.3728239 C131.957883,51.095496 134.385811,47.4517713 139.727252,46.5408401 C143.611937,47.4517713 148.467793,48.3627024 152.352477,46.9963057" id="Fill-3" fill="#FFFFFF" mask="url(#mask-4)"></path>
            </g>
            <path d="M204.588786,68.0684205 C201.72499,68.5544937 191.701706,71.9570063 190.747108,67.096274 C189.792509,61.7494686 199.338494,61.2633954 202.20229,60.2912489 C206.975282,58.346956 209.839077,53.0001505 216.043968,53.0001505 C219.862362,53.0001505 223.680755,54.4583702 226.544551,52.5140773 C227.976449,51.5419309 228.931047,49.597638 230.362945,48.6254915 C233.704039,45.222979 241.818127,43.2786861 246.591119,43.2786861 C250.409513,43.2786861 254.705206,45.222979 258.5236,44.7369057 C263.773892,44.7369057 269.024183,41.3343932 274.274475,43.2786861 C274.751774,43.7647593 275.706373,43.7647593 276.183672,44.7369057 C277.13827,46.1951254 276.660971,48.1394183 275.229073,49.597638 C273.797176,51.0558576 272.365278,51.5419309 270.456081,52.0280041 C248.500316,57.8608828 226.544551,62.721615 204.588786,68.0684205" id="Fill-6" fill="#FFFFFF"></path>
        </g>
    </g>
</svg>