<?xml version="1.0" encoding="UTF-8"?>
<svg width="152px" height="55px" viewBox="0 0 152 55" version="1.1" xmlns="http://www.w3.org/2000/svg" xmlns:xlink="http://www.w3.org/1999/xlink">
    <!-- Generator: Sketch 54.1 (76490) - https://sketchapp.com -->
    <title>ltd-logo</title>
    <desc>Created with Sketch.</desc>
    <g id="Ian-From-Wireframes" stroke="none" stroke-width="1" fill="none" fill-rule="evenodd">
        <g id="1-Home" transform="translate(-53.000000, -877.000000)">
            <g id="ltd-logo" transform="translate(53.000000, 877.000000)">
                <path d="M0,0 L152,0 L143.207319,39.3603181 C141.165459,48.5006735 133.054058,55 123.688414,55 L0,55 L0,0 Z" id="Rectangle" fill="#EA0029"></path>
                <path d="M127.40466,28.5935078 C127.71532,28.5935078 127.845797,28.4847485 127.845797,28.1710541 C127.845797,27.8816284 127.762363,27.7494992 127.417087,27.7494992 L127.071811,27.7494992 L127.071811,28.5935078 L127.40466,28.5935078 Z M127.071811,29.7143585 L127.441052,29.7143585 L127.441052,30.0756913 L126.03687,30.0756913 L126.03687,29.7143585 L126.392797,29.7143585 L126.392797,27.7620829 L126.03687,27.7620829 L126.03687,27.3998513 L127.51206,27.3998513 C128.310011,27.3998513 128.583392,27.7494992 128.583392,28.0991471 C128.583392,28.4245263 128.381907,28.6896835 127.750824,28.7624893 L127.750824,28.7858591 C128.262081,28.8343964 128.404984,29.0393314 128.441376,29.3647106 L128.464454,29.5103223 C128.475992,29.6900899 128.499958,29.7269422 128.583392,29.7269422 C128.643749,29.7269422 128.690791,29.6658213 128.738722,29.4851549 L128.988137,29.5579607 C128.903815,29.88334 128.75026,30.1359134 128.36948,30.1359134 C127.94077,30.1359134 127.750824,29.9076086 127.750824,29.4617851 L127.750824,29.3287571 C127.750824,29.0510162 127.679816,28.930572 127.393121,28.930572 L127.071811,28.930572 L127.071811,29.7143585 Z M129.488743,28.7624893 C129.488743,27.4483886 128.631322,26.5324729 127.322114,26.5324729 C126.024444,26.5324729 125.167023,27.4483886 125.167023,28.7624893 C125.167023,30.0873762 126.024444,30.9916069 127.322114,30.9916069 C128.631322,30.9916069 129.488743,30.0873762 129.488743,28.7624893 L129.488743,28.7624893 Z M124.668192,28.7624893 C124.668192,27.2191849 125.798106,26.0983343 127.322114,26.0983343 C128.85766,26.0983343 130,27.2191849 130,28.7624893 C130,30.3165798 128.85766,31.4374304 127.322114,31.4374304 C125.798106,31.4374304 124.668192,30.3165798 124.668192,28.7624893 L124.668192,28.7624893 Z M99.9254801,17.1827628 C100.149155,17.1773698 100.370167,17.0937779 100.524609,16.9292906 C101.004801,16.4196496 100.662187,15.5756409 99.9689725,15.5522712 L23.8369359,13.0004708 C23.2466825,12.9806964 22.8348365,13.5874119 23.0647247,14.1383994 L24.6348875,17.9144167 C24.8931788,18.5346148 25.499409,18.931901 26.1651083,18.9166208 L46.6295929,18.4357426 L27.7317207,43.6849934 C27.3269755,44.2260937 27.7095307,45.0026895 28.3805556,44.999993 L33.0155981,44.9811174 C34.1428489,44.9775221 35.1866654,44.3788961 35.7715932,43.404556 L50.7942078,18.3377693 L99.9254801,17.1827628 Z M114.017891,18.1256436 C114.796315,18.749437 116.368253,20.5183496 114.972947,23.9240458 C114.773238,24.4112159 115.366154,24.8300742 115.745159,24.4687415 C119.114485,21.2544977 118.480739,17.8362178 117.902024,16.2389832 C117.722729,15.7446224 117.136026,15.5486758 116.699328,15.8363039 L114.039193,17.591734 C113.852797,17.7148747 113.843921,17.9854249 114.017891,18.1256436 L114.017891,18.1256436 Z M91.1719779,36.2183483 C91.3432845,35.5163561 91.7178513,34.6283044 92.3853259,33.5011619 C93.5640574,31.512034 95.2043406,29.8383981 96.5721308,29.0006813 C97.4952338,28.4425031 98.1431811,28.631259 97.9843009,29.3152745 C97.2830976,32.3075054 93.4841735,34.8637999 91.1719779,36.2183483 L91.1719779,36.2183483 Z M121.338808,32.2958205 C120.914536,30.1179366 121.539405,28.9539418 122.648904,27.5472607 C123.109568,26.9630162 122.631152,26.1091203 121.900658,26.2214751 C120.390852,26.4551729 118.46565,26.6403334 117.594028,26.7185323 C117.305558,26.7436998 117.05348,26.9261638 116.930991,27.1922198 C115.268518,30.8199289 113.495983,33.8418214 110.486134,36.6479928 C109.142309,37.8029993 107.509127,38.8384603 105.986007,38.8384603 C105.571498,38.8384603 105.335397,38.4906101 105.39309,37.9665877 C105.466761,37.3032455 106.08098,36.4322717 106.4875,35.8740935 C108.247609,33.361842 110.318378,30.8495906 111.346218,29.3494304 C112.578205,27.5706305 112.188549,26.4192194 110.466607,26.4192194 C109.087278,26.4192194 107.123021,26.7329137 106.028611,26.9773976 C106.750229,25.4421827 106.2585,24.2907716 104.914675,24.2907716 C103.226461,24.2907716 102.358389,26.2097902 103.187407,27.745005 C102.518157,30.0469285 101.220487,32.4198601 99.7941154,34.4080891 C99.6441112,34.6220125 99.5384869,34.7712196 99.4062346,34.9500883 C96.9901899,37.981868 94.3628966,39.2743966 92.3214187,38.7341952 C91.8829448,38.6200428 91.4311568,38.3746601 91.2039315,37.8605249 C95.0951659,35.9576854 99.3050483,33.1605024 100.138504,29.4545944 C100.499757,27.8519667 99.7639371,26.3140553 97.5937573,26.3140553 C94.3895246,26.3140553 90.1166226,29.7341329 88.1017727,33.9200203 C87.3144723,35.5163561 86.9887234,36.967979 87.0641693,38.164332 C85.7451971,38.6640858 84.5043336,39.0182279 83.6726532,38.8384603 C83.066423,38.7090277 82.5995459,37.8623226 84.0001773,35.4902898 C84.5096591,34.6175183 87.4413989,29.9426633 87.7751362,29.4195397 C88.8136271,27.8142155 88.5908398,26.4192194 86.3505397,26.4192194 C83.4223503,26.4192194 79.949175,30.0819831 78.193504,32.2445867 C79.7157365,29.6981794 81.1616354,27.5355758 81.2930001,27.291092 C81.5841326,26.8371789 81.4430043,26.5585392 81.0293831,26.5585392 L78.58316,26.5585392 C78.2387716,26.5585392 77.9130227,26.6978591 77.6680454,27.0466081 C77.5508823,27.2075001 75.465912,30.5376939 73.5628996,33.9901296 C72.5714514,35.2655803 69.5749169,38.8384603 67.7109588,38.8384603 C67.2973376,38.8384603 67.0612363,38.4906101 67.1189302,37.9665877 C67.1926009,37.3032455 67.8059319,36.4322717 68.2124523,35.8740935 C69.9734489,33.361842 72.04333,30.8495906 73.0720573,29.3494304 C74.3031572,27.5706305 73.9143888,26.4192194 72.191559,26.4192194 C70.8131176,26.4192194 68.8488608,26.7329137 67.7544512,26.9773976 C68.4760692,25.4421827 67.9834517,24.2907716 66.6405143,24.2907716 C64.9514132,24.2907716 64.0842289,26.2097902 64.9123589,27.745005 C64.2431092,30.0469285 62.9463269,32.4198601 61.5190676,34.4080891 C61.2882918,34.7370638 61.1640279,34.9132359 60.8817714,35.2817594 C59.6116171,36.8259626 57.7254691,38.8384603 56.5485127,38.8384603 C55.6191964,38.8384603 56.6594626,36.6057474 57.3003091,35.4902898 C57.8106786,34.6175183 62.0844682,27.7791609 62.3800387,27.291092 C62.6711712,26.8371789 62.5300429,26.5585392 62.1164218,26.5585392 L59.6701987,26.5585392 C59.3604266,26.5585392 59.0000614,26.6978591 58.755084,27.0466081 C58.593541,27.2560373 56.1499807,30.9547546 54.5079224,33.6404817 C53.0078799,35.9783587 51.1057551,38.8384603 49.4512704,38.8384603 C49.1077695,38.8384603 48.5760977,38.6829614 48.4456206,38.1409622 C48.2219456,37.2070698 49.0332112,36.2219437 49.4592588,35.4902898 C49.9696282,34.6175183 54.2088015,27.7791609 54.5389883,27.291092 C54.7955045,26.8371789 54.6889926,26.5585392 54.2753714,26.5585392 L51.3019145,26.5585392 C50.957526,26.5585392 50.6317772,26.6978591 50.3859122,27.0466081 C50.1480357,27.3261466 45.9168508,33.7807004 44.8614955,35.8390388 C43.011739,39.4676467 44.9857594,41.4558758 47.293517,41.4558758 C48.9471141,41.4558758 50.7862194,40.1651448 52.2578587,38.6991405 C52.0599241,40.4788392 52.9510736,41.4558758 54.535438,41.4558758 C58.172819,41.4558758 62.2717516,35.3977095 63.0013581,34.2597809 C64.0611514,32.7829905 65.2292318,31.0725023 66.189614,29.5633538 L67.4455667,29.7017748 C67.8165831,29.7431213 68.0056417,30.1754623 67.7855171,30.4810671 C66.3662462,32.4486229 64.6283272,34.9689639 64.1436981,35.9082493 C62.2087321,39.6761771 63.3892389,41.4558758 65.6632677,41.4558758 C67.6186485,41.4558758 69.7240335,39.8766179 71.421123,38.1796123 C70.9835366,39.1431663 70.6560126,39.9907703 70.5095587,40.618159 C70.3906205,41.0720721 70.5699155,41.3156571 71.1211145,41.3156571 L73.0853713,41.3156571 C73.601954,41.3156571 73.8779973,41.0019628 74.2277113,40.3386205 C74.6688481,39.4676467 75.0948956,38.7341952 75.6514203,37.7571585 C78.0949805,33.4319514 81.5148998,30.2572565 83.0042911,29.8725539 C83.4294511,29.7682888 83.6247229,29.8725539 83.2102141,30.5008415 C82.1362192,32.1052669 80.6361767,34.4431438 79.9296479,35.8390388 C78.0798914,39.4676467 79.3527084,41.3237467 81.6560281,41.4909305 C83.5341878,41.6257561 85.6253712,40.7889382 87.4866665,39.7804423 C88.001474,40.7691638 88.960081,41.3875641 90.2914796,41.4909305 C93.7584416,41.8100179 97.3558807,39.4397828 99.9884996,35.9972343 C100.004476,35.9792575 100.020453,35.9630784 100.037318,35.943304 C101.329662,34.2382088 103.105748,31.6971945 104.463774,29.5633538 L105.719727,29.7017748 C106.090743,29.7431213 106.279802,30.1754623 106.059677,30.4810671 C104.641294,32.4486229 102.903375,34.9689639 102.417858,35.9082493 C100.48378,39.6761771 101.664287,41.4558758 103.938316,41.4558758 C106.651706,41.4558758 109.027809,39.9485249 110.818096,38.2964612 L110.818096,38.29736 C114.52471,35.067836 115.967058,32.4953624 117.268279,30.4433159 C117.364139,30.2923112 117.595803,30.3866891 117.562074,30.5637602 C116.803177,34.5734753 120.034925,36.4933927 118.363576,38.4600496 C117.061468,39.992568 114.41731,39.3418095 116.128601,36.6848451 C115.304022,35.8498249 112.723771,37.0650535 112.911055,39.0766523 C113.22704,42.4670683 118.363576,42.2270786 120.951815,39.2285559 C123.081165,36.7612463 121.763968,34.4737043 121.338808,32.2958205 L121.338808,32.2958205 Z" id="Fill-1" fill="#FFFFFF"></path>
            </g>
        </g>
    </g>
</svg>