<?xml version="1.0" encoding="UTF-8"?>
<svg width="352px" height="122px" viewBox="0 0 352 122" version="1.1" xmlns="http://www.w3.org/2000/svg" xmlns:xlink="http://www.w3.org/1999/xlink">
    <!-- Generator: Sketch 54.1 (76490) - https://sketchapp.com -->
    <title>ltd_banner</title>
    <desc>Created with Sketch.</desc>
    <defs>
        <polygon id="path-1" points="0 0.702942857 351.382644 0.702942857 351.382644 59 0 59"></polygon>
    </defs>
    <g id="Ian-From-Wireframes" stroke="none" stroke-width="1" fill="none" fill-rule="evenodd">
        <g id="1-Home" transform="translate(-124.000000, -911.000000)">
            <g id="ltd_banner" transform="translate(124.400000, 911.023186)">
                <g id="Group-3" transform="translate(0.000000, 62.976814)">
                    <mask id="mask-2" fill="white">
                        <use xlink:href="#path-1"></use>
                    </mask>
                    <g id="Clip-2"></g>
                    <path d="M318.19504,59.0005619 L326.526961,34.6644667 L351.382644,31.1048 C342.297096,20.2319429 332.152548,10.1513714 321.243167,1.14684762 L293.728779,34.6813238 C302.584596,41.9860857 310.81566,50.1702286 318.19504,59.0005619 M33.1895643,58.5566571 L24.8576437,34.2205619 L-0.00084047619,30.6637048 C9.08750873,19.7880381 19.2292548,9.70746667 30.1414373,0.702942857 L57.6558262,34.2402286 C48.8000087,41.5449905 40.5661437,49.7263238 33.1895643,58.5566571" id="Fill-1" fill="#ECE4DA" mask="url(#mask-2)"></path>
                </g>
                <path d="M322,64.4210011 L294.495226,97.9768139 L311.710565,97.0575151 L322,64.4210011 Z M31,63.9768139 L58.5047735,97.5326267 L41.2894347,96.6133279 L31,63.9768139 Z" id="Fill-4" fill="#BAB29E"></path>
                <path d="M311.192743,97.2209167 C274.442415,62.4909444 226.378482,43.3654722 175.854827,43.3654722 C125.56623,43.3654722 77.672995,62.3338333 40.9926252,96.7776389 L11.4255832,65.1281667 C56.1483227,23.129 114.546449,-1.27897692e-13 175.854827,-1.27897692e-13 C237.45423,-1.27897692e-13 296.053835,23.3197778 340.857726,65.6696389 L311.192743,97.2209167 Z M302.318612,50.1697157 C301.86822,49.8459527 301.238789,49.9473046 300.914283,50.4033882 L290.650373,64.7812801 C290.323069,65.2401789 290.429373,65.8708129 290.879765,66.1973912 L293.649259,68.1990911 C294.099651,68.5284847 294.731879,68.4215022 295.053588,67.9654187 L298.684701,62.8809321 C299.246992,62.0898243 300.486271,62.4755245 300.50865,63.4496288 L300.72965,72.8246788 C300.738043,73.1399958 300.891903,73.4384208 301.14927,73.6242326 L304.142561,75.7864063 C304.592954,76.1129846 305.222384,76.0088174 305.54689,75.5555492 L315.8108,61.1692113 C316.135307,60.7159431 316.0318,60.0824938 315.581408,59.7559155 L312.811915,57.7542156 C312.358725,57.4276373 311.732092,57.5318045 311.407586,57.987888 L307.801649,63.0357753 C307.236561,63.8325138 305.991688,63.4383675 305.9777,62.4614479 L305.843422,53.2215338 C305.837827,52.9005861 305.683966,52.5993458 305.423802,52.413534 L302.318612,50.1697157 Z M282.685981,54.280098 C282.414627,54.7699655 281.804779,54.944516 281.318019,54.6742442 L277.334425,52.4529486 C276.850463,52.1826769 276.674223,51.5633042 276.942779,51.0734368 L280.85364,43.9788044 C281.122197,43.4889369 281.73764,43.3115711 282.221602,43.5818428 L286.205196,45.8059537 C286.691956,46.0762255 286.865399,46.6955981 286.596842,47.1826503 L282.685981,54.280098 Z M274.332742,56.411303 L279.569602,59.3336159 C283.197918,61.3578384 286.317095,60.4147028 287.88088,57.5768498 L292.22255,49.6939249 C293.814309,46.8082113 292.695322,44.1252015 289.067006,42.100979 L283.830146,39.1786662 C280.20183,37.1544437 277.348412,37.6133425 275.753856,40.5018714 L271.412185,48.3847963 C269.845603,51.2226493 270.679249,54.3730039 274.332742,56.411303 Z M266.592148,30.7608285 C266.085806,30.5327868 265.489945,30.7636439 265.26335,31.276034 L258.118617,47.4472913 C257.89482,47.9596814 258.121414,48.5593468 258.630554,48.7845732 L262.401541,50.4709561 C262.91068,50.6989978 263.503743,50.4681407 263.733135,49.958566 L270.875071,33.7873086 C271.101666,33.2749185 270.872274,32.6752532 270.365932,32.4500267 L266.592148,30.7608285 Z M248.400213,44.657299 C248.92334,44.8459261 249.499618,44.5756544 249.689846,44.0491876 L254.09306,31.7715321 C254.280491,31.2450654 254.859567,30.9719783 255.382693,31.1606054 L257.712984,32.0108352 C258.236111,32.1994623 258.812389,31.9263753 259.002617,31.3999085 L259.883819,28.9421252 C260.07125,28.4128431 259.802693,27.832885 259.279566,27.6442579 L246.942732,23.162252 C246.419606,22.9736249 245.843327,23.2467119 245.653099,23.7703634 L244.771897,26.2281467 C244.584467,26.7574288 244.853024,27.3373869 245.378948,27.526014 L247.712036,28.3762438 C248.235162,28.5648709 248.506517,29.1448289 248.319086,29.674111 L243.913074,41.9517665 C243.725644,42.4782333 243.994201,43.0581914 244.517327,43.2496338 L248.400213,44.657299 Z M235.215746,19.7219184 C234.68143,19.5698905 234.127531,19.8852075 233.976468,20.4257509 L229.245949,37.472576 C229.097684,38.0131194 229.411,38.5705548 229.945316,38.7225827 L233.920518,39.8402688 C234.457632,39.9894813 235.011531,39.6741643 235.162594,39.1364362 L239.890315,22.0867958 C240.041379,21.5490677 239.728062,20.988817 239.193746,20.8396045 L235.215746,19.7219184 Z M214.780242,30.2146545 L211.602318,29.6262504 L213.43466,19.6318278 L216.609786,20.2230472 C219.871634,20.8255279 219.949963,21.8418621 219.270178,25.5552828 C218.540039,29.5530518 218.131609,30.8368425 214.780242,30.2146545 Z M208.043939,14.9414875 L204.857623,32.3655668 C204.756914,32.9145562 205.117787,33.4438383 205.666091,33.5451902 L215.029217,35.2794337 C221.496963,36.4787644 224.076228,33.4438383 225.295924,26.7883975 C226.487646,20.2512005 225.04695,17.0614312 218.582001,15.8621005 L209.216078,14.127857 C208.667774,14.0265051 208.144648,14.3924981 208.043939,14.9414875 Z M186.117385,11.97976 C185.563486,11.93753 185.079524,12.3541989 185.040359,12.9144497 L183.731144,30.5693861 C183.69198,31.1268215 184.106005,31.6138736 184.659904,31.6561036 L198.465408,32.6921451 C199.022105,32.7343751 199.506067,32.3148909 199.545231,31.7574555 L199.760636,28.8576652 C199.802598,28.2974145 199.388573,27.8131777 198.831877,27.7709477 L190.145738,27.1206064 L190.355549,24.3418754 L194.898637,24.6825304 C195.452535,24.7247603 195.936497,24.3052761 195.978459,23.7478407 L196.168687,21.1380295 C196.210649,20.5805941 195.793826,20.093542 195.239928,20.0541273 L190.694042,19.7134724 L190.89546,16.991048 L199.438927,17.6329433 C199.992826,17.6751732 200.476788,17.2585043 200.515953,16.6982536 L200.711775,14.0912577 C200.753737,13.531007 200.336915,13.0439549 199.783016,13.0045402 L186.117385,11.97976 Z M157.409767,27.3965088 L154.195477,27.6695959 L153.347844,17.5597447 L156.562135,17.2866576 C159.863147,17.0079399 160.204438,17.9679676 160.517754,21.7236182 C160.856248,25.7664326 160.797501,27.1121604 157.409767,27.3965088 Z M146.93325,14.4656967 L148.410313,32.0868491 C148.45787,32.6442845 148.944629,33.0609534 149.498528,33.0130928 L158.970755,32.2107237 C165.511235,31.6532882 167.203703,28.0496654 166.641412,21.321026 C166.087513,14.7049997 163.869121,12.013544 157.323046,12.5709794 L147.850819,13.3733485 C147.29692,13.4183938 146.885693,13.9082613 146.93325,14.4656967 Z M124.917176,17.4274242 C124.37167,17.5344067 124.016391,18.0693195 124.122695,18.6183089 L127.510429,35.9663743 C127.61953,36.5153637 128.148252,36.8729107 128.693758,36.7659281 L142.264275,34.0829183 C142.806984,33.9759358 143.16506,33.4438383 143.055959,32.8920336 L142.499263,30.04855 C142.392959,29.4995606 141.864238,29.1420136 141.315934,29.2489962 L132.783656,30.935379 L132.24934,28.2045086 L136.714099,27.3233102 C137.259605,27.2163277 137.614884,26.6814149 137.50858,26.1352408 L137.01063,23.5732902 C136.901529,23.0214855 136.372808,22.6639385 135.827301,22.7737364 L131.362543,23.6549348 L130.836619,20.9831864 L139.234618,19.3249568 C139.777326,19.2151589 140.135402,18.6830615 140.026301,18.1340721 L139.525554,15.5721215 C139.41925,15.0231321 138.890529,14.6655851 138.345023,14.7725677 L124.917176,17.4274242 Z M118.166886,39.5840737 C118.701202,39.4264152 119.006126,38.8605339 118.849468,38.3228058 L115.162405,25.7945859 C115.005747,25.2568578 115.307873,24.6937917 115.84219,24.5361332 L118.222835,23.82667 C118.757151,23.6661961 119.062076,23.1031301 118.905417,22.565402 L118.164088,20.0569427 C118.004633,19.5192146 117.445139,19.2123436 116.91362,19.3728174 L104.325014,23.1256527 C103.790697,23.2833112 103.488571,23.8463773 103.645229,24.3841054 L104.386558,26.8925647 C104.543216,27.4302928 105.10271,27.7343484 105.637026,27.57669 L108.020469,26.8672267 C108.551988,26.7067529 109.114279,27.0136239 109.270937,27.551352 L112.958,40.0795719 C113.114658,40.6144846 113.674152,40.924171 114.208468,40.7636971 L118.166886,39.5840737 Z M92.9001544,27.3570942 C92.3798253,27.5569826 92.1168633,28.139756 92.3126861,28.6634075 L98.5174702,45.2034731 C98.713293,45.7271245 99.2951663,45.9917655 99.8154954,45.7918771 L103.670406,44.3307207 C104.190735,44.1308322 104.453697,43.5452435 104.255077,43.0244074 L98.050293,26.4843418 C97.8544703,25.957875 97.2725969,25.6960493 96.7522679,25.8931224 L92.9001544,27.3570942 Z M82.7984973,50.9636389 L83.3272187,44.3363513 L83.5845858,41.0395995 L83.6377377,41.0142615 C83.7608263,41.5998503 84.1189022,43.5227209 84.9329654,45.1893964 L87.285636,50.0120572 C87.5290157,50.5160014 88.1332688,50.7215205 88.6312181,50.4765867 L92.3378633,48.6494374 C92.8386101,48.4016883 93.0428252,47.7935769 92.7994455,47.2924482 L85.050459,31.3886472 C84.8070793,30.8847031 84.2028262,30.679184 83.7048769,30.926933 L79.318447,33.091922 C78.9995357,33.2467652 78.7869281,33.5620822 78.7561559,33.9168138 L78.2078522,40.4962408 C78.1435104,41.2591953 77.2958776,41.6786795 76.6580549,41.2648259 L71.1274606,37.6780951 C70.8281315,37.4866527 70.4560683,37.46413 70.1371569,37.6217885 L66.4780687,39.4292306 C65.9801194,39.6741643 65.7731068,40.2822757 66.0164865,40.7834045 L73.765473,56.6843901 C74.0116501,57.1883342 74.6159032,57.3966687 75.1138526,57.1489196 L78.1742826,55.6370872 C78.6750294,55.3921535 78.8792445,54.7868575 78.6358648,54.2829133 L76.3503334,49.5897577 C75.5334728,47.9202668 74.2410425,46.4591104 73.8577894,46.0030269 L73.9109413,45.9748736 L76.6580549,47.7879463 L82.1271049,51.2958479 L82.7984973,50.9636389 Z M54.4825257,46.7096748 C54.0097536,47.0024691 53.8614878,47.6274725 54.1524245,48.1060786 L63.342107,63.1962491 C63.6330437,63.6720399 64.2512841,63.8240678 64.7268537,63.5284581 L68.243271,61.3606537 C68.7160431,61.0678594 68.8643089,60.4428561 68.5733723,59.9642499 L59.3836898,44.8740794 C59.0927531,44.3982886 58.4717152,44.2462608 57.9989431,44.5418704 L54.4825257,46.7096748 Z M37.4179707,58.4862015 C36.9675783,58.8127798 36.864072,59.4490445 37.1913758,59.9023126 L47.4888556,74.2492359 C47.8133619,74.7025041 48.4455897,74.8066713 48.8959821,74.4772777 L58.572424,67.4445826 C59.0228164,67.1180042 59.1235252,66.4817396 58.7990189,66.0284714 L57.1093482,63.6748553 C56.7848419,63.2215871 56.1554116,63.1174199 55.7050193,63.4468135 L51.0024755,66.8618092 C50.5520831,67.1912028 49.9226528,67.0870356 49.5981465,66.6337674 L42.1680714,56.2846132 C41.8435651,55.831345 41.2141348,55.7299931 40.7637425,56.0565714 L37.4179707,58.4862015 Z" id="Combined-Shape" fill="#FEFEFE"></path>
            </g>
        </g>
    </g>
</svg>