<?xml version="1.0" encoding="UTF-8"?>
<svg width="113px" height="22px" viewBox="0 0 113 22" version="1.1" xmlns="http://www.w3.org/2000/svg" xmlns:xlink="http://www.w3.org/1999/xlink">
    <!-- Generator: Sketch 54.1 (76490) - https://sketchapp.com -->
    <title>Group 35</title>
    <desc>Created with Sketch.</desc>
    <g id="Ian-From-Wireframes" stroke="none" stroke-width="1" fill="none" fill-rule="evenodd">
        <g id="Group-35" transform="translate(2.000000, 2.000000)" fill="#F7D80E" fill-rule="nonzero">
            <path d="M13.155,8.486 L18.353,8.486 L18.353,10.671 L16.766,10.671 C16.007,11.982 15.041,13.224 14.19,14.075 C14.903,14.995 15.248,15.225 15.777,15.225 C16.352,15.225 16.651,14.857 16.95,13.73 L18.353,14.098 C17.939,16.168 17.065,17.87 14.742,17.87 C13.224,17.87 12.327,17.41 11.246,16.122 C10.027,17.318 8.601,17.87 6.899,17.87 C3.978,17.87 2,16.26 2,13.753 C2,11.499 3.725,10.441 5.473,9.797 C4.323,8.67 3.817,7.911 3.817,6.554 C3.817,4.645 5.68,2.782 8.624,2.782 C11.476,2.782 12.856,4.507 12.856,6.048 C12.856,7.842 11.522,8.578 9.889,9.199 C11.154,10.418 12.097,11.476 13.086,12.787 C13.684,12.12 14.213,11.361 14.65,10.625 L13.155,10.625 L13.155,8.486 Z M8.256,15.547 C8.877,15.547 9.544,15.386 10.234,14.972 C8.969,13.339 7.589,11.867 6.508,10.809 C6.025,11.338 5.749,12.051 5.749,13.063 C5.749,14.627 6.692,15.547 8.256,15.547 Z M7.244,5.68 C7.244,6.6 7.796,7.244 8.9,8.279 C9.682,7.658 9.981,6.968 9.981,6.048 C9.981,5.105 9.521,4.392 8.532,4.392 C7.819,4.392 7.244,4.898 7.244,5.68 Z M28.50111,17.502 L28.50111,15.294 L30.31811,15.294 L30.31811,4.576 L28.50111,4.576 L28.50111,2.368 L36.22911,2.368 L39.24211,10.901 L39.33411,10.901 L42.02511,2.368 L49.61511,2.368 L49.61511,4.576 L47.75211,4.576 L47.75211,15.294 L49.61511,15.294 L49.61511,17.502 L41.56511,17.502 L41.56511,15.294 L43.40511,15.294 L43.40511,5.174 L43.19811,5.174 L38.92011,17.525 L37.21811,17.525 L32.73311,5.174 L32.52611,5.174 L32.52611,15.294 L34.32011,15.294 L34.32011,17.502 L28.50111,17.502 Z M61.485665,17.87 C56.816665,17.87 53.550665,14.857 53.550665,9.981 C53.550665,5.128 56.931665,2 61.485665,2 C66.154665,2 69.420665,5.036 69.420665,9.889 C69.420665,14.765 66.039665,17.87 61.485665,17.87 Z M61.577665,15.823 C63.762665,15.823 64.751665,14.19 64.751665,9.935 C64.751665,5.703 63.578665,4.047 61.393665,4.047 C59.208665,4.047 58.219665,5.703 58.219665,9.935 C58.219665,14.19 59.392665,15.823 61.577665,15.823 Z M79.56622,10.947 L79.56622,15.294 L81.56722,15.294 L81.56722,17.502 L73.35622,17.502 L73.35622,15.294 L75.21922,15.294 L75.21922,4.576 L73.35622,4.576 L73.35622,2.368 L82.07322,2.368 C86.62722,2.368 88.28322,4.254 88.28322,6.163 C88.28322,8.095 87.06422,9.544 83.24622,9.912 L83.24622,10.05 C86.35122,10.211 87.40922,11.545 87.47822,13.431 L87.50122,14.006 C87.54722,15.064 87.75422,15.294 88.21422,15.294 C88.53622,15.294 88.81222,14.949 89.11122,13.753 L90.60622,14.167 C90.19222,16.237 89.24922,17.847 86.83422,17.847 C84.00522,17.847 83.06222,16.329 83.06222,13.638 L83.06222,13.293 C83.06222,11.568 82.64822,10.947 81.15322,10.947 L79.56622,10.947 Z M79.56622,8.854 L81.38322,8.854 C82.90122,8.854 83.70622,8.348 83.70622,6.646 C83.70622,5.128 83.26922,4.461 81.38322,4.461 L79.56622,4.461 L79.56622,8.854 Z M93.092775,17.502 L93.092775,15.294 L94.955775,15.294 L94.955775,4.576 L93.092775,4.576 L93.092775,2.368 L107.927775,2.368 L107.927775,7.957 L105.558775,7.957 C105.075775,4.99 104.684775,4.507 102.683775,4.507 L99.302775,4.507 L99.302775,8.808 L100.406775,8.808 C101.510775,8.808 101.602775,8.555 101.855775,6.784 L103.902775,6.784 L103.902775,12.971 L101.855775,12.971 C101.648775,11.223 101.487775,10.947 100.406775,10.947 L99.302775,10.947 L99.302775,15.363 L102.591775,15.363 C105.052775,15.363 105.351775,14.489 105.765775,11.269 L108.134775,11.269 L108.134775,17.502 L93.092775,17.502 Z" id="&amp;MORE" stroke="#5D3734" stroke-width="4" stroke-linejoin="round"></path>
            <path d="M11.155,6.486 L16.353,6.486 L16.353,8.671 L14.766,8.671 C14.007,9.982 13.041,11.224 12.19,12.075 C12.903,12.995 13.248,13.225 13.777,13.225 C14.352,13.225 14.651,12.857 14.95,11.73 L16.353,12.098 C15.939,14.168 15.065,15.87 12.742,15.87 C11.224,15.87 10.327,15.41 9.246,14.122 C8.027,15.318 6.601,15.87 4.899,15.87 C1.978,15.87 -4.33431069e-13,14.26 -4.33431069e-13,11.753 C-4.33431069e-13,9.499 1.725,8.441 3.473,7.797 C2.323,6.67 1.817,5.911 1.817,4.554 C1.817,2.645 3.68,0.782 6.624,0.782 C9.476,0.782 10.856,2.507 10.856,4.048 C10.856,5.842 9.522,6.578 7.889,7.199 C9.154,8.418 10.097,9.476 11.086,10.787 C11.684,10.12 12.213,9.361 12.65,8.625 L11.155,8.625 L11.155,6.486 Z M6.256,13.547 C6.877,13.547 7.544,13.386 8.234,12.972 C6.969,11.339 5.589,9.867 4.508,8.809 C4.025,9.338 3.749,10.051 3.749,11.063 C3.749,12.627 4.692,13.547 6.256,13.547 Z M5.244,3.68 C5.244,4.6 5.796,5.244 6.9,6.279 C7.682,5.658 7.981,4.968 7.981,4.048 C7.981,3.105 7.521,2.392 6.532,2.392 C5.819,2.392 5.244,2.898 5.244,3.68 Z M26.50111,15.502 L26.50111,13.294 L28.31811,13.294 L28.31811,2.576 L26.50111,2.576 L26.50111,0.368 L34.22911,0.368 L37.24211,8.901 L37.33411,8.901 L40.02511,0.368 L47.61511,0.368 L47.61511,2.576 L45.75211,2.576 L45.75211,13.294 L47.61511,13.294 L47.61511,15.502 L39.56511,15.502 L39.56511,13.294 L41.40511,13.294 L41.40511,3.174 L41.19811,3.174 L36.92011,15.525 L35.21811,15.525 L30.73311,3.174 L30.52611,3.174 L30.52611,13.294 L32.32011,13.294 L32.32011,15.502 L26.50111,15.502 Z M59.485665,15.87 C54.816665,15.87 51.550665,12.857 51.550665,7.981 C51.550665,3.128 54.931665,0 59.485665,0 C64.154665,0 67.420665,3.036 67.420665,7.889 C67.420665,12.765 64.039665,15.87 59.485665,15.87 Z M59.577665,13.823 C61.762665,13.823 62.751665,12.19 62.751665,7.935 C62.751665,3.703 61.578665,2.047 59.393665,2.047 C57.208665,2.047 56.219665,3.703 56.219665,7.935 C56.219665,12.19 57.392665,13.823 59.577665,13.823 Z M77.56622,8.947 L77.56622,13.294 L79.56722,13.294 L79.56722,15.502 L71.35622,15.502 L71.35622,13.294 L73.21922,13.294 L73.21922,2.576 L71.35622,2.576 L71.35622,0.368 L80.07322,0.368 C84.62722,0.368 86.28322,2.254 86.28322,4.163 C86.28322,6.095 85.06422,7.544 81.24622,7.912 L81.24622,8.05 C84.35122,8.211 85.40922,9.545 85.47822,11.431 L85.50122,12.006 C85.54722,13.064 85.75422,13.294 86.21422,13.294 C86.53622,13.294 86.81222,12.949 87.11122,11.753 L88.60622,12.167 C88.19222,14.237 87.24922,15.847 84.83422,15.847 C82.00522,15.847 81.06222,14.329 81.06222,11.638 L81.06222,11.293 C81.06222,9.568 80.64822,8.947 79.15322,8.947 L77.56622,8.947 Z M77.56622,6.854 L79.38322,6.854 C80.90122,6.854 81.70622,6.348 81.70622,4.646 C81.70622,3.128 81.26922,2.461 79.38322,2.461 L77.56622,2.461 L77.56622,6.854 Z M91.092775,15.502 L91.092775,13.294 L92.955775,13.294 L92.955775,2.576 L91.092775,2.576 L91.092775,0.368 L105.927775,0.368 L105.927775,5.957 L103.558775,5.957 C103.075775,2.99 102.684775,2.507 100.683775,2.507 L97.302775,2.507 L97.302775,6.808 L98.406775,6.808 C99.510775,6.808 99.602775,6.555 99.855775,4.784 L101.902775,4.784 L101.902775,10.971 L99.855775,10.971 C99.648775,9.223 99.487775,8.947 98.406775,8.947 L97.302775,8.947 L97.302775,13.363 L100.591775,13.363 C103.052775,13.363 103.351775,12.489 103.765775,9.269 L106.134775,9.269 L106.134775,15.502 L91.092775,15.502 Z" id="&amp;MORE" stroke="#5D3734" stroke-width="4" stroke-linejoin="round"></path>
            <path d="M11.155,6.486 L16.353,6.486 L16.353,8.671 L14.766,8.671 C14.007,9.982 13.041,11.224 12.19,12.075 C12.903,12.995 13.248,13.225 13.777,13.225 C14.352,13.225 14.651,12.857 14.95,11.73 L16.353,12.098 C15.939,14.168 15.065,15.87 12.742,15.87 C11.224,15.87 10.327,15.41 9.246,14.122 C8.027,15.318 6.601,15.87 4.899,15.87 C1.978,15.87 -4.54747351e-13,14.26 -4.54747351e-13,11.753 C-4.54747351e-13,9.499 1.725,8.441 3.473,7.797 C2.323,6.67 1.817,5.911 1.817,4.554 C1.817,2.645 3.68,0.782 6.624,0.782 C9.476,0.782 10.856,2.507 10.856,4.048 C10.856,5.842 9.522,6.578 7.889,7.199 C9.154,8.418 10.097,9.476 11.086,10.787 C11.684,10.12 12.213,9.361 12.65,8.625 L11.155,8.625 L11.155,6.486 Z M6.256,13.547 C6.877,13.547 7.544,13.386 8.234,12.972 C6.969,11.339 5.589,9.867 4.508,8.809 C4.025,9.338 3.749,10.051 3.749,11.063 C3.749,12.627 4.692,13.547 6.256,13.547 Z M5.244,3.68 C5.244,4.6 5.796,5.244 6.9,6.279 C7.682,5.658 7.981,4.968 7.981,4.048 C7.981,3.105 7.521,2.392 6.532,2.392 C5.819,2.392 5.244,2.898 5.244,3.68 Z M26.50111,15.502 L26.50111,13.294 L28.31811,13.294 L28.31811,2.576 L26.50111,2.576 L26.50111,0.368 L34.22911,0.368 L37.24211,8.901 L37.33411,8.901 L40.02511,0.368 L47.61511,0.368 L47.61511,2.576 L45.75211,2.576 L45.75211,13.294 L47.61511,13.294 L47.61511,15.502 L39.56511,15.502 L39.56511,13.294 L41.40511,13.294 L41.40511,3.174 L41.19811,3.174 L36.92011,15.525 L35.21811,15.525 L30.73311,3.174 L30.52611,3.174 L30.52611,13.294 L32.32011,13.294 L32.32011,15.502 L26.50111,15.502 Z M59.485665,15.87 C54.816665,15.87 51.550665,12.857 51.550665,7.981 C51.550665,3.128 54.931665,0 59.485665,0 C64.154665,0 67.420665,3.036 67.420665,7.889 C67.420665,12.765 64.039665,15.87 59.485665,15.87 Z M59.577665,13.823 C61.762665,13.823 62.751665,12.19 62.751665,7.935 C62.751665,3.703 61.578665,2.047 59.393665,2.047 C57.208665,2.047 56.219665,3.703 56.219665,7.935 C56.219665,12.19 57.392665,13.823 59.577665,13.823 Z M77.56622,8.947 L77.56622,13.294 L79.56722,13.294 L79.56722,15.502 L71.35622,15.502 L71.35622,13.294 L73.21922,13.294 L73.21922,2.576 L71.35622,2.576 L71.35622,0.368 L80.07322,0.368 C84.62722,0.368 86.28322,2.254 86.28322,4.163 C86.28322,6.095 85.06422,7.544 81.24622,7.912 L81.24622,8.05 C84.35122,8.211 85.40922,9.545 85.47822,11.431 L85.50122,12.006 C85.54722,13.064 85.75422,13.294 86.21422,13.294 C86.53622,13.294 86.81222,12.949 87.11122,11.753 L88.60622,12.167 C88.19222,14.237 87.24922,15.847 84.83422,15.847 C82.00522,15.847 81.06222,14.329 81.06222,11.638 L81.06222,11.293 C81.06222,9.568 80.64822,8.947 79.15322,8.947 L77.56622,8.947 Z M77.56622,6.854 L79.38322,6.854 C80.90122,6.854 81.70622,6.348 81.70622,4.646 C81.70622,3.128 81.26922,2.461 79.38322,2.461 L77.56622,2.461 L77.56622,6.854 Z M91.092775,15.502 L91.092775,13.294 L92.955775,13.294 L92.955775,2.576 L91.092775,2.576 L91.092775,0.368 L105.927775,0.368 L105.927775,5.957 L103.558775,5.957 C103.075775,2.99 102.684775,2.507 100.683775,2.507 L97.302775,2.507 L97.302775,6.808 L98.406775,6.808 C99.510775,6.808 99.602775,6.555 99.855775,4.784 L101.902775,4.784 L101.902775,10.971 L99.855775,10.971 C99.648775,9.223 99.487775,8.947 98.406775,8.947 L97.302775,8.947 L97.302775,13.363 L100.591775,13.363 C103.052775,13.363 103.351775,12.489 103.765775,9.269 L106.134775,9.269 L106.134775,15.502 L91.092775,15.502 Z" id="&amp;MORE"></path>
        </g>
    </g>
</svg>