<?xml version="1.0" encoding="UTF-8"?>
<svg width="63px" height="63px" viewBox="0 0 63 63" version="1.1" xmlns="http://www.w3.org/2000/svg" xmlns:xlink="http://www.w3.org/1999/xlink">
    <!-- Generator: Sketch 54.1 (76490) - https://sketchapp.com -->
    <title>pa_seal</title>
    <desc>Created with Sketch.</desc>
    <g id="Ian-From-Wireframes" stroke="none" stroke-width="1" fill="none" fill-rule="evenodd">
        <g id="1-Home" transform="translate(-175.000000, -660.000000)" fill="#FA0000">
            <g id="Group-9" transform="translate(161.000000, 652.000000)">
                <g id="Group-3" transform="translate(14.151591, 8.491096)">
                    <path d="M54.6812275,39.0735063 L54.4533755,39.6891313 C54.4052577,39.8193325 54.259489,39.8858483 54.1292879,39.8377304 L51.8408611,38.991423 C51.71066,38.9433052 51.6441442,38.7975365 51.692262,38.6659201 L51.920114,38.0517103 C51.9682318,37.9215092 52.1140005,37.8549934 52.2442017,37.9031112 L54.5326284,38.7494187 C54.6628295,38.7975365 54.7293453,38.9433052 54.6812275,39.0735063 L54.6812275,39.0735063 Z M55.2091083,37.089354 L52.7565149,36.1821917 C51.8564287,35.8481974 51.1374919,36.2911644 50.7171686,37.4261787 L50.3718525,38.3574 C49.9515293,39.4924144 50.2105163,40.2976802 51.1091873,40.6302592 L53.5617807,41.5388368 C54.4448841,41.8657549 55.31242,41.4864733 55.7355738,40.3429675 L56.0794746,39.4117462 C56.5012131,38.2767319 56.0922117,37.4176873 55.2091083,37.089354 L55.2091083,37.089354 Z M52.7083971,42.6328095 C52.3899703,42.4134488 52.0573913,42.2889086 51.6469746,42.5606327 C51.4813928,42.6710207 51.273354,42.5606327 51.267693,42.3610853 C51.2606169,42.0992678 51.150229,41.872831 50.8997333,41.6987577 L50.4157247,41.3647635 C49.7647189,40.9147204 49.2014574,40.9755753 48.6905594,41.7157405 L47.561206,43.3489158 C46.9201068,44.2758913 47.1295609,44.7273497 47.7791514,45.1759775 C47.8895393,45.2538152 47.9574704,45.2891959 48.0239862,45.3259919 L48.9707749,44.3792031 C49.0825781,44.2674 49.0655953,44.0820048 48.9353942,43.9928454 L48.8802002,43.9546342 C48.7655666,43.8753813 48.737262,43.7182908 48.8165149,43.6036572 L49.0938999,43.2017319 C49.1604157,43.1054962 49.3755307,42.8238655 49.6387634,43.0050149 L49.9430379,43.2172994 C50.0576715,43.295137 50.0859761,43.4536428 50.0067232,43.5668612 L49.7151859,43.9900149 C49.635933,44.1046485 49.6642376,44.261739 49.7788712,44.3409919 L50.4015724,44.7712218 C50.516206,44.8504747 50.6732965,44.8221701 50.7525494,44.7075365 L51.1077721,44.1952232 C51.2351428,44.0084129 51.3568525,43.8782117 51.6144244,44.0551155 L51.8691657,44.2320192 C52.0772045,44.3749574 52.1210767,44.5178957 51.9441729,44.7740523 L51.4842232,45.4392103 C51.4063856,45.5524287 51.2478798,45.5821485 51.1332462,45.5014804 L51.0822979,45.4675149 C50.953512,45.3783554 50.775193,45.4264732 50.7100925,45.5679962 L50.1185264,46.8360422 C50.2359905,46.9478454 50.301091,47.0030393 50.3902505,47.0638942 C51.0341801,47.5096916 51.6866011,47.4389301 52.1989143,46.6987649 L53.4570537,44.8787793 C53.9438927,44.1739948 53.8561485,43.4281686 53.206558,42.9781255 L52.7083971,42.6328095 Z M46.3879804,48.3970408 C45.8799129,48.8385925 45.7567879,48.8017965 45.5586557,48.5725293 L45.1383324,48.0899359 C44.9402002,47.8606686 44.9133109,47.7403741 45.3760911,47.3370336 L45.5091227,47.2209847 C45.9719028,46.8190594 46.0879517,46.8615163 46.2874991,47.0907836 L46.7064071,47.573377 C46.9059546,47.801229 46.717729,48.1097491 46.3879804,48.3970408 L46.3879804,48.3970408 Z M47.7664143,46.0604962 C46.7884905,44.9382189 46.2521183,45.0132261 44.8821758,46.2062649 L44.4505307,46.5813008 C43.0805882,47.7743396 42.93765,48.2894833 43.9141586,49.4117606 L44.1745609,49.7103741 C45.1128583,50.7887792 45.9025566,50.491581 46.7913209,49.7188655 C47.1338066,49.4216672 47.469216,48.8838798 47.4847836,48.4918612 L47.5088425,48.4692175 C48.0282318,49.3226011 47.7904732,49.752831 46.8691586,50.5538511 C46.7389574,50.6670695 46.5931887,50.7817031 46.4375135,50.8821844 C46.2705163,50.9897419 46.2903296,51.2388223 46.4700637,51.3209057 L47.296558,51.6987721 C47.3814718,51.7383985 47.4791227,51.7270767 47.5541298,51.6704675 C47.6418741,51.6039517 47.733864,51.5303597 47.8145321,51.4595982 C49.4830882,50.0075724 50.1241873,48.7706614 48.1853224,46.5430896 L47.7664143,46.0604962 Z M44.2056959,52.4332764 C44.1434258,52.3087361 43.990581,52.2577879 43.8660408,52.320058 L43.3622189,52.5719689 C43.2376787,52.634239 43.0862491,52.5832907 43.023979,52.4587505 L41.2846615,48.977285 C41.2153152,48.8385925 41.0369962,48.7947203 40.9110408,48.8852951 L38.9339646,50.3090163 C38.8320681,50.381193 38.7995178,50.5156399 38.8547118,50.6260278 L39.1052075,51.1270192 C39.1674776,51.2501442 39.3189072,51.3025077 39.4434474,51.2388223 L39.9925566,50.9642678 C40.1170968,50.9019976 40.2685264,50.9529459 40.3307965,51.0774861 L41.4205235,53.2597706 C41.4827937,53.3843108 41.4332606,53.5357404 41.3087204,53.5980106 L40.5402506,53.9815379 C40.4157103,54.043808 40.364762,54.1952376 40.4270322,54.3197778 L40.8416945,55.1476873 C40.9039646,55.2722275 41.0553942,55.3231758 41.1799345,55.2609057 L44.5057247,53.5994258 C44.6302649,53.5371557 44.6812132,53.3857261 44.6189431,53.2611858 L44.2056959,52.4332764 Z M35.3322046,51.1340953 L31.2761558,51.56291 C31.1374632,51.5770623 31.0369819,51.7016025 31.0511342,51.840295 L31.5988282,57.0242821 C31.6143957,57.1629746 31.7375207,57.2634559 31.8762132,57.2493036 L35.9733037,56.8162433 C36.1119963,56.802091 36.2124776,56.6775508 36.1983253,56.5388582 L36.1020897,55.6189588 C36.0865221,55.4802663 35.9619819,55.379785 35.8232894,55.3953525 L33.5079733,55.6401873 C33.3692808,55.6543396 33.2447405,55.5538583 33.2305882,55.4151657 L33.1980379,55.1137218 C33.1838856,54.9750292 33.284367,54.850489 33.4230595,54.8363367 L34.5354302,54.7188726 C34.6727075,54.7047203 34.774604,54.5801801 34.7590365,54.4414876 L34.6712922,53.6065019 C34.6571399,53.4663942 34.5325997,53.3673281 34.3939072,53.3814804 L33.2815365,53.4989445 C33.142844,53.5130968 33.0183037,53.4126154 33.0041514,53.2739229 L32.9744316,52.9894617 C32.9588641,52.8507692 33.0593454,52.726229 33.1980379,52.7120767 L35.4723124,52.4729028 C35.6110049,52.4587505 35.7114862,52.3342103 35.6973339,52.1955177 L35.6081744,51.3591169 C35.5940221,51.2204244 35.4708971,51.119943 35.3322046,51.1340953 L35.3322046,51.1340953 Z M28.9311199,51.3959129 L27.2370897,51.1298496 C26.1898196,50.9670982 25.3279446,51.2572203 25.1651931,52.2959991 L24.7590222,54.8957764 C24.6132535,55.8255824 25.158117,56.592637 26.3624776,56.7808626 L27.8824345,57.0186212 C28.9962204,57.1926945 29.590617,56.5954674 29.7024201,55.8807764 L29.7731816,55.4279028 C29.7929949,55.3090235 29.7250638,55.1943899 29.6146759,55.151933 L28.3848411,54.6849071 C28.2348268,54.6282979 28.0706601,54.7245335 28.0466012,54.8816241 L27.9758397,55.3302519 C27.9546112,55.4675292 27.8258253,55.5623496 27.6871328,55.5411212 L26.7488354,55.3939373 C26.6115581,55.3727088 26.5181529,55.2439229 26.5393814,55.1066456 L26.9158325,52.6965091 C26.937061,52.5592318 27.0658469,52.4644114 27.2031242,52.4870551 L28.1428368,52.634239 C28.2801141,52.6554675 28.3749345,52.7842534 28.3522908,52.9215307 L28.304173,53.231466 C28.2801141,53.3828956 28.3975782,53.5201729 28.550423,53.5230034 L29.8510193,53.5371557 C29.9755595,53.5371557 30.083117,53.446581 30.1029302,53.323456 L30.1779374,52.8408626 C30.2897405,52.1261715 30.0449058,51.5685709 28.9311199,51.3959129 L28.9311199,51.3959129 Z M24.5311702,50.5637577 L23.5546615,50.1108841 C23.4287061,50.0514445 23.2786917,50.1066384 23.2206673,50.2325939 L22.3913426,52.018614 C22.289446,52.2393899 21.9639432,52.2011787 21.9158253,51.96342 L21.3454877,49.1980609 C21.3299202,49.118808 21.2775567,49.0537074 21.2053799,49.0197419 L20.1382966,48.5244114 C20.0109259,48.4649718 19.8609116,48.5201658 19.8028871,48.6461212 L17.6078656,53.3758195 C17.5484259,53.5017749 17.6036199,53.6517893 17.7309906,53.7112289 L18.706084,54.1641025 C18.8320394,54.2235422 18.9820538,54.1683482 19.0414935,54.0423927 L19.8750639,52.246466 C19.9769604,52.0256902 20.2996328,52.0624861 20.3505811,52.2988295 L20.953469,55.096739 C20.9704518,55.1731614 21.0214001,55.2396772 21.0935768,55.2722275 L22.1238641,55.7505752 C22.2498196,55.8100149 22.399834,55.7548209 22.4578584,55.6274502 L24.6542952,50.8991672 C24.7137348,50.7732117 24.6585408,50.6231974 24.5311702,50.5637577 L24.5311702,50.5637577 Z M19.0966874,47.6823497 L18.0678153,46.9096341 C17.9574274,46.8261356 17.7989216,46.8487793 17.7154231,46.9591672 L14.5835193,51.1270192 C14.4986055,51.2388223 14.5212492,51.3973281 14.6330524,51.4808267 L15.6605093,52.2535422 C15.7723124,52.3370407 15.9308182,52.3143971 16.0143167,52.2025939 L19.1462205,48.0361571 C19.2311343,47.924354 19.2084906,47.7672635 19.0966874,47.6823497 L19.0966874,47.6823497 Z M14.7080596,46.7780178 L13.7315509,45.6769689 C13.639561,45.5722419 13.6480524,45.4123209 13.7527794,45.320331 L14.0924346,45.018887 C14.1971616,44.9268971 14.3556673,44.9368037 14.4490725,45.0401155 L14.9727076,45.6316816 C15.0661127,45.7364086 15.0562061,45.8949143 14.9528943,45.9883195 L14.9019461,46.0321916 C14.784482,46.1369186 14.7901429,46.323729 14.9132679,46.4199646 L15.9676142,47.2450436 C16.028469,47.2025867 16.0921544,47.1572994 16.1926357,47.0681399 C16.7842018,46.5445048 16.9370466,46.0704028 16.18839,45.2283411 L14.815617,43.6800796 C14.21839,43.0078454 13.6522981,43.0149215 13.060732,43.5399718 L12.2682033,44.2433411 C11.7148484,44.7344258 11.6766372,45.2623066 12.2738642,45.935956 L13.2730165,47.062479 C13.3664216,47.1657908 13.356515,47.3257117 13.2532033,47.4177017 L12.8682607,47.7587721 C12.7635337,47.850762 12.605028,47.8408554 12.513038,47.7375436 L11.8195754,46.957752 C11.7275854,46.853025 11.7374921,46.693104 11.8408038,46.601114 L11.8889216,46.5600724 C12.0049705,46.4553454 12.0007248,46.2713655 11.879015,46.1737146 L10.7864576,45.2991025 C10.6505955,45.3854316 10.5826645,45.4363798 10.5076573,45.5014804 C9.9160912,46.0279459 9.82976217,46.6775364 10.425574,47.3511859 L11.9398699,49.0551226 C12.5201142,49.7103741 13.2645251,49.802364 13.8560912,49.2773137 L14.7618383,48.4734632 C15.3788785,47.9257692 15.166594,47.2945767 14.7080596,46.7780178 L14.7080596,46.7780178 Z M53.4542232,29.233413 C52.7494387,29.3735207 51.9894603,29.0239589 51.7700996,27.9257405 L51.4700709,26.4270121 C51.2323123,25.2396342 51.760193,24.4697492 52.677262,24.2871845 L55.2416585,23.7734561 C56.2648697,23.569663 56.8309617,24.2730322 57.0375853,25.3047348 L57.3715795,26.9761213 C57.5909401,28.0743397 57.1564646,28.4918325 56.4516801,28.6333555 L56.0256959,28.7182693 L55.4213927,27.0256543 L55.9959761,26.9110207 L55.7723697,25.7915739 C55.7398195,25.6274072 55.5784833,25.5198498 55.4143166,25.5538153 L53.1442879,26.0081041 C52.9801212,26.0406543 52.8725637,26.2005753 52.9065292,26.3661572 L53.0692807,27.1855753 C53.1032462,27.349742 53.2631672,27.4572995 53.4287491,27.4247492 L53.4542232,27.4190883 C53.6183899,27.386538 53.7259473,27.2252018 53.6919818,27.0610351 L53.6707534,26.9534776 C53.6382031,26.789311 53.7443453,26.6279747 53.9099272,26.5954245 L54.5411197,26.469469 C54.7067016,26.4355035 54.8666226,26.543061 54.8991729,26.7072276 L55.2699631,28.5597635 C55.3025134,28.7253454 55.1963712,28.8852664 55.0322045,28.9178167 L53.4542232,29.233413 Z M53.5377218,16.7100438 L54.0429588,17.6724001 C54.0882462,17.7587291 54.0896614,17.8606256 54.0472045,17.9469547 L52.9121902,20.300482 C52.7834042,20.5637147 53.0664502,20.8382693 53.3268525,20.7024072 L54.8652074,19.894311 C55.0138065,19.8164733 55.1977864,19.8744978 55.2756241,20.0230969 L55.7228367,20.8736501 C55.8020896,21.0222492 55.7440651,21.2062291 55.595466,21.2840667 L51.1063568,23.6390092 C50.9577577,23.7168469 50.7737778,23.6602377 50.6959402,23.5116386 L50.2091011,22.584663 C50.165229,22.4997492 50.1623985,22.3992679 50.2034402,22.3129388 L51.3356241,19.912709 C51.4615795,19.6494762 51.1785336,19.3777521 50.9195465,19.5136141 L49.3684545,20.3273713 C49.2198554,20.405209 49.0358755,20.3485998 48.9580379,20.2000006 L48.5108252,19.3480322 C48.4329876,19.1994331 48.4895968,19.0154532 48.6396112,18.9376156 L53.1273051,16.5826731 C53.2759042,16.5048354 53.4598841,16.5614446 53.5377218,16.7100438 L53.5377218,16.7100438 Z M51.0624847,13.5937076 L51.8182175,14.4881328 C51.9257749,14.6169188 51.9102074,14.80939 51.7814215,14.9183627 L47.9008612,18.1875437 C47.7720752,18.2951012 47.579604,18.2795337 47.4720465,18.1507478 L46.717729,17.2549073 C46.6087563,17.1261213 46.625739,16.9336501 46.754525,16.8260926 L50.6336701,13.5569116 C50.762456,13.4479389 50.9549272,13.4649216 51.0624847,13.5937076 L51.0624847,13.5937076 Z M45.4242089,8.65030959 L46.2874991,9.3140524 C46.3653367,9.37207683 46.4092089,9.46406677 46.4077936,9.5603024 L46.3639215,12.1756472 C46.3596758,12.4685998 46.7318813,12.5973857 46.9102002,12.365288 L47.967377,10.9840237 C48.0706887,10.8509921 48.2617448,10.8269331 48.3947764,10.9288297 L49.1590005,11.5133196 C49.2906169,11.6166314 49.316091,11.8062722 49.2141945,11.9407191 L46.1289933,15.9656328 C46.0256816,16.1000797 45.8360408,16.1241386 45.7015939,16.022242 L44.870854,15.3853886 C44.7944316,15.3273642 44.7505594,15.2367894 44.7519747,15.1405538 L44.7717879,12.4841673 C44.7732031,12.19263 44.4024129,12.0652593 44.2255092,12.297357 L43.1584258,13.688528 C43.0565293,13.8229748 42.864058,13.8470337 42.7310264,13.7451372 L41.9682175,13.159232 C41.8337707,13.0573354 41.8097118,12.8662794 41.9116083,12.7332478 L44.9982247,8.70691879 C45.1001212,8.57388718 45.2911773,8.54841304 45.4242089,8.65030959 L45.4242089,8.65030959 Z M38.2589,5.46179667 L39.2764503,5.84532397 C39.367025,5.87928949 39.4363712,5.95429667 39.4618454,6.04770184 L40.1793669,8.56398057 C40.260035,8.84561131 40.6534689,8.86117884 40.7567807,8.58662425 L41.3695753,6.95910989 C41.4290149,6.80201937 41.6045034,6.7227665 41.7615939,6.78079092 L42.6616801,7.12044609 C42.8187707,7.17988575 42.8980235,7.35537425 42.8385839,7.51246477 L41.0525638,12.260561 C40.9931241,12.4176515 40.8176356,12.4969044 40.6605451,12.4374647 L39.6783756,12.0680897 C39.5892161,12.0341242 39.521285,11.9605323 39.4943957,11.8685423 L38.7429086,9.32112855 C38.6608253,9.04091304 38.2688066,9.02676074 38.16691,9.29990011 L37.5498698,10.9415668 C37.4904302,11.0972421 37.3149417,11.1779102 37.1564359,11.1184705 L36.2563497,10.7788153 C36.0992592,10.7207909 36.0185911,10.5453024 36.0780307,10.3867967 L37.8668813,5.63870041 C37.926321,5.48302512 38.1018095,5.40235702 38.2589,5.46179667 L38.2589,5.46179667 Z M34.3316371,4.7810711 L35.4892951,4.946653 C35.6562922,4.97071191 35.7723411,5.12497196 35.7482822,5.29055386 L35.0307606,10.3132047 C35.0067017,10.4802018 34.8524417,10.5948354 34.6868598,10.5721918 L33.5263713,10.4066099 C33.3607894,10.382551 33.2447405,10.2282909 33.2687994,10.0612938 L33.986321,5.03864294 C34.0103799,4.87164581 34.1646399,4.75701219 34.3316371,4.7810711 L34.3316371,4.7810711 Z M25.1283972,5.06836277 L26.3086989,4.94948346 C26.4530523,4.93391593 26.5874992,5.02449064 26.6299561,5.1645984 L27.0587707,6.57699782 C27.1535911,6.89117885 27.6107104,6.85296764 27.651752,6.52746477 L27.8413928,5.03298202 C27.8583756,4.89287426 27.971594,4.78390156 28.113117,4.76833403 L29.1745394,4.66360702 C29.3132319,4.64945472 29.4434331,4.73153806 29.4915509,4.86456966 L30.0081098,6.32225644 C30.1170825,6.63077655 30.5685408,6.57275213 30.5982607,6.24724926 L30.7284618,4.75559696 C30.7411989,4.60982829 30.8558325,4.49377944 31.0016012,4.47962714 L31.9894316,4.38056105 C32.1847333,4.36216306 32.3474848,4.52916018 32.3220106,4.72446191 L31.6313785,9.89429666 C31.6129805,10.0344044 31.5011773,10.1433771 31.3596543,10.1575294 L30.1793526,10.2749935 C30.0406601,10.2891458 29.9104589,10.2070625 29.8623411,10.0768613 L29.3217233,8.58379379 C29.2113354,8.28234982 28.7726141,8.33188287 28.7329877,8.65030959 L28.5433469,10.2014015 C28.5263641,10.3415093 28.4131457,10.4518972 28.2716227,10.4660495 L27.0092377,10.592005 C26.8705451,10.6061573 26.740344,10.5254892 26.6936414,10.395288 L24.8736558,5.47594897 C24.8043095,5.28913863 24.930265,5.08676076 25.1283972,5.06836277 L25.1283972,5.06836277 Z M20.4906889,11.5670984 C21.3568095,11.0972421 21.2167018,10.7363584 20.657686,9.70890154 C20.1411271,8.75645183 19.9387492,8.54133689 19.0952722,8.99987137 L18.5419173,9.30131534 C18.3933182,9.38198344 18.3395394,9.56596332 18.4187923,9.71456246 L19.5240868,11.7468326 C19.6033397,11.8940165 19.7887348,11.9492104 19.9359187,11.8685423 L20.4906889,11.5670984 Z M16.2195251,9.38905959 C16.138857,9.24187568 16.1940509,9.0578958 16.3412348,8.97581246 L18.7513713,7.66814006 C20.424173,6.75956247 21.3242593,7.20960557 22.2370825,8.88948344 C23.1654733,10.5990811 23.1343383,11.7468326 21.4615366,12.6554101 L19.0514001,13.9644978 C18.9042162,14.0451659 18.718821,13.9899719 18.6395682,13.842788 L16.2195251,9.38905959 Z M14.2948124,14.1640452 C14.5651213,13.8923211 14.6472047,13.7960854 14.3556673,13.5087938 L13.9395897,13.0983771 C13.6381458,12.7997636 13.5433254,12.8592033 13.2616946,13.1436645 L12.777686,13.6347492 C12.6602219,13.7536285 12.6602219,13.947515 12.7805165,14.0649791 L13.3805739,14.6579604 C13.5008685,14.7754245 13.6933397,14.7740093 13.8122191,14.65513 L14.2948124,14.1640452 Z M10.7001285,14.5093613 C10.579834,14.390482 10.5784188,14.1980107 10.6972981,14.0777162 L13.0338426,11.7114518 C13.7145682,11.0222349 14.2098986,10.8651444 14.8269389,11.4751084 L15.9619532,12.5959705 C16.3638785,12.9922349 16.3893527,13.3715165 16.2308469,13.7239087 C16.1501788,13.8965668 16.2520754,14.0989446 16.4374705,14.1414015 L17.6757966,14.4301084 C17.9078943,14.4838872 17.9899777,14.7711788 17.8229805,14.9395912 L16.9441228,15.8297708 C16.8648699,15.9104389 16.7474058,15.9401587 16.6384331,15.9061932 L14.95714,15.3910495 C14.8481673,15.357084 14.7307032,15.3868038 14.6514504,15.4674719 L14.4292593,15.6924935 L15.5557823,16.8048642 C15.6746616,16.9223282 15.6746616,17.1147995 15.5571975,17.2336788 L14.7363642,18.0672492 C14.6174849,18.1861285 14.4250136,18.1875437 14.3061343,18.0700797 L10.7001285,14.5093613 Z M10.4779375,20.5835279 L10.6689935,20.2212291 C10.7666444,20.0372492 10.653426,19.8108124 10.4468024,19.7782621 L9.82410125,19.6806113 C9.53822482,19.6367391 9.35707539,19.9792248 9.55520758,20.190094 L9.98685269,20.6486285 C10.1297909,20.8014733 10.3788714,20.7675078 10.4779375,20.5835279 L10.4779375,20.5835279 Z M12.1479087,20.2863297 L11.3624561,21.7680753 C11.300186,21.8841242 11.3199992,22.0256472 11.4105739,22.1204676 L11.8379734,22.5676802 C11.9285481,22.6625006 11.9469461,22.8054388 11.8860912,22.9200725 L11.4034978,23.8300653 C11.3044317,24.0168756 11.0482751,24.0480107 10.9067521,23.8880897 L7.3205596,19.8235495 C7.2356458,19.7301443 7.22007828,19.5914518 7.27951793,19.4796486 L8.00553086,18.1097061 C8.06355528,18.0021486 8.18101936,17.9384633 8.30272913,17.9497851 L13.7740078,18.4620983 C13.990538,18.4819116 14.1164935,18.7154245 14.0145969,18.9064805 L13.3989719,20.0683843 C13.338117,20.1844331 13.2093311,20.2481185 13.0805452,20.22689 L12.4649202,20.1278239 C12.3375495,20.1080107 12.2087636,20.171696 12.1479087,20.2863297 L12.1479087,20.2863297 Z M4.3981099,30.1136859 L4.59341162,28.9432908 C4.61747053,28.8003526 4.7391803,28.6942104 4.88494897,28.6899647 L6.36103374,28.6460926 C6.68936707,28.6376012 6.7714504,28.1875581 6.46859121,28.0616026 L5.07742024,27.4856041 C4.94580386,27.4318253 4.86938145,27.294548 4.89344035,27.1558555 L5.06892886,26.1043397 C5.09157254,25.9656472 5.20762139,25.8623354 5.34631392,25.8510135 L6.88749925,25.7349647 C7.21441736,25.7109058 7.2781027,25.2594475 6.97099782,25.1462291 L5.56708978,24.6282549 C5.43122771,24.5787219 5.34914437,24.4371989 5.37320328,24.2942607 L5.53595472,23.3149216 C5.56850501,23.1210351 5.77371334,23.0078167 5.95486276,23.0842391 L10.7609834,25.1080179 C10.8911846,25.1617966 10.9661918,25.2990739 10.9435481,25.4377664 L10.7482464,26.6067463 C10.7241875,26.7454388 10.6109691,26.8487506 10.4722765,26.8614877 L8.89004953,26.9916888 C8.57020758,27.017163 8.50369178,27.4558842 8.79947482,27.5761788 L10.2458398,28.1663296 C10.3774561,28.2215236 10.4538785,28.3588009 10.4298196,28.4989086 L10.2203656,29.7499719 C10.1977219,29.8858339 10.0859188,29.9905609 9.94864148,30.0018828 L4.725028,30.4660782 C4.52689581,30.4844762 4.36414438,30.3104029 4.3981099,30.1136859 L4.3981099,30.1136859 Z M8.28291591,35.1221845 L8.21923057,34.7174287 C8.18668028,34.5108052 7.9602435,34.399002 7.77484839,34.4980681 L7.22007828,34.7938512 C6.96392167,34.9311285 7.02619178,35.3132405 7.31065299,35.3613583 L7.93052367,35.4689158 C8.13714724,35.5057118 8.3154662,35.3273928 8.28291591,35.1221845 L8.28291591,35.1221845 Z M9.43915873,33.8810279 L9.70239148,35.5354316 C9.7222047,35.6656328 9.82410125,35.7675293 9.95288717,35.7887578 L10.5628513,35.8892391 C10.6916372,35.9104675 10.7921185,36.0123641 10.8133469,36.14115 L10.9746831,37.1558698 C11.0086487,37.3653238 10.8218383,37.545058 10.6137995,37.5026011 L5.30668748,36.4142894 C5.18214725,36.3888152 5.08732685,36.2883339 5.06751363,36.1637937 L4.82409409,34.6339302 C4.80428087,34.5122204 4.86089007,34.3905106 4.96561708,34.3268253 L9.64012137,31.4468325 C9.82551648,31.3321989 10.0661056,31.444002 10.1014863,31.6577017 L10.3066946,32.9554675 C10.3279231,33.0842535 10.2642377,33.2102089 10.1481889,33.2710638 L9.59766447,33.5640164 C9.48303085,33.6248713 9.41934551,33.752242 9.43915873,33.8810279 L9.43915873,33.8810279 Z M54.5326284,32.1742606 C54.1151356,32.2464374 53.83492,32.6455322 53.908512,33.063025 C53.9821039,33.4819331 54.3811988,33.7607333 54.7986916,33.6871414 C55.2161844,33.6135494 55.4963999,33.2144546 55.4213927,32.7969618 C55.349216,32.379469 54.9501212,32.0992535 54.5326284,32.1742606 L54.5326284,32.1742606 Z M9.51133545,40.1108698 C9.09525787,40.185877 8.81504235,40.5835566 8.8886343,41.0010494 C8.96222626,41.4199574 9.36132108,41.6987577 9.7788139,41.6251658 C10.1963067,41.5515738 10.4765222,41.152479 10.401515,40.7349862 C10.3293383,40.3160781 9.93024349,40.0386931 9.51133545,40.1108698 L9.51133545,40.1108698 Z M26.4488066,2.10911709 C10.4411415,4.69615731 -0.477357038,19.8235495 2.10968318,35.8312147 C4.6967234,51.840295 19.8241156,62.7573783 35.8317807,60.1717533 C51.8394459,57.5847131 62.7579444,42.4573209 60.1709042,26.4496558 C57.583864,10.4419906 42.4564718,-0.47792313 26.4488066,2.10911709 L26.4488066,2.10911709 Z M36.1063353,61.8785206 C19.1575423,64.6184056 3.14138576,53.0559775 0.401500717,36.1071845 C-2.3369691,19.1583914 9.22262855,3.14081967 26.1728368,0.400934625 C43.1230451,-2.33753519 59.1392016,9.22347769 61.8790867,26.173686 C64.6175565,43.122479 53.0565436,59.1400508 36.1063353,61.8785206 L36.1063353,61.8785206 Z M42.1762563,42.7035709 L24.7250567,45.7802807 C24.4844676,45.8227376 24.246709,45.6967821 24.1476429,45.4731758 L17.1748052,29.812242 C17.0332823,29.4966457 17.2271688,29.1343469 17.5668239,29.073492 L20.2458541,28.6022204 C20.571357,28.544196 20.7666587,28.2059561 20.6534403,27.8960207 L18.4258685,21.8190236 C18.3126501,21.5090883 18.5065366,21.1722636 18.8320394,21.1142391 L39.2778655,17.5096486 C39.6019531,17.4516242 39.9005666,17.7021199 39.9005666,18.0332837 L39.8849991,24.5051299 C39.8849991,24.8348785 40.1836126,25.0853742 40.5077003,25.028765 L43.1881457,24.5560782 C43.5278008,24.4966385 43.8334905,24.7711931 43.8094316,25.115094 L42.6135623,42.2181471 C42.5965796,42.4615666 42.4154301,42.6611141 42.1762563,42.7035709 L42.1762563,42.7035709 Z M41.4643957,22.6271199 L41.4771327,16.1552736 C41.478548,15.8255251 41.1799345,15.5750294 40.8544316,15.6316386 L16.7063642,19.8900653 C16.3822765,19.9466745 16.1869748,20.2849144 16.3001932,20.5948498 L18.527765,26.6718469 C18.6409834,26.9817822 18.4470969,27.3186069 18.121594,27.3766314 L15.308117,27.8719618 C14.9684619,27.9328167 14.7759906,28.2965308 14.9160984,28.6107118 L23.2093455,47.2393827 C23.3084115,47.4615738 23.5461702,47.5875293 23.785344,47.5450724 L43.6622477,44.0409632 C43.9014215,43.9985063 44.0825709,43.7975436 44.0981385,43.5555393 L45.5218597,23.2144403 C45.5445034,22.8705394 45.240229,22.5945696 44.8991586,22.6554245 L42.0870968,23.1521702 C41.7615939,23.2087794 41.4629804,22.9582837 41.4643957,22.6271199 L41.4643957,22.6271199 Z M35.6534618,20.5495624 L36.1233181,20.4674791 C36.2676715,20.4405897 36.4049488,20.5382406 36.430423,20.682594 L37.0969963,24.4640883 C37.1224704,24.6084417 37.2597477,24.7060926 37.4041011,24.6806184 L38.1088856,24.5560782 C38.2645609,24.5277736 38.4089144,24.640992 38.4202362,24.7994977 L38.4442951,25.15189 C38.4527865,25.2877521 38.3593813,25.4080466 38.2249345,25.4306903 L36.5648698,25.7236429 C36.4205164,25.749117 36.2832391,25.6528814 36.2577649,25.5085279 L35.4369316,20.8566673 C35.4114575,20.7123139 35.5091083,20.5750366 35.6534618,20.5495624 L35.6534618,20.5495624 Z M33.9070681,24.0168756 C33.721673,23.3701156 33.4428727,22.3794547 33.3013497,21.8926156 L33.2631385,21.8996917 C33.3098411,22.2591601 33.3905092,23.4451227 33.4343813,24.1003742 L33.9070681,24.0168756 Z M33.5221256,25.2311429 L33.5787348,26.0081041 C33.5900566,26.1439661 33.4952362,26.2656759 33.3607894,26.2883196 L32.8810264,26.3732334 C32.7225207,26.401538 32.5753368,26.2826587 32.5696759,26.1213225 L32.4055092,21.353413 C32.4012635,21.2217966 32.4946687,21.107163 32.6248698,21.0845193 L33.653742,20.9019547 C33.7825279,20.879311 33.9098986,20.9557334 33.9523555,21.0802736 L35.4482534,25.6132549 C35.4992017,25.7660998 35.4015509,25.9288512 35.2416299,25.9571558 L34.7448842,26.0449 C34.6118526,26.0689589 34.4830667,25.9882908 34.4448555,25.8609202 L34.2155882,25.1037722 C34.177377,24.9749862 34.0471759,24.8957334 33.9155595,24.9197923 L33.740071,24.9509273 C33.6056241,24.973571 33.512219,25.0952808 33.5221256,25.2311429 L33.5221256,25.2311429 Z M31.6710049,24.8433699 L31.7205379,25.1221702 C31.8351716,25.7745911 31.8592305,26.6336357 30.6718526,26.8430897 C29.7958253,26.9973497 29.3330451,26.5996702 29.1646328,25.64439 L28.7174201,23.108298 C28.5589144,22.2082118 28.9254589,21.6562722 29.7547836,21.5090883 C30.8487563,21.316617 31.1530308,21.9987578 31.2733253,22.6808986 L31.3313497,23.0078167 L30.329367,23.1833052 L30.2529446,22.7417535 C30.2019963,22.4544618 30.114252,22.3185998 29.904798,22.3553957 C29.7024201,22.3907765 29.6571328,22.5422061 29.7094963,22.8379891 L30.1920897,25.5750437 C30.2402075,25.8467679 30.3208756,26.0335782 30.5458971,25.9939518 C30.7638425,25.9543253 30.7963928,25.7802521 30.7397836,25.4547492 L30.661946,25.0216888 L31.6710049,24.8433699 Z M26.1700064,23.5342822 L26.6370322,26.1793469 C26.6922262,26.4963584 26.8309187,26.647788 27.0559403,26.6081615 C27.2894532,26.5685351 27.3616299,26.3944618 27.3021903,26.0533914 L26.8351644,23.4083268 C26.7785552,23.0828239 26.6639216,22.9342248 26.4162564,22.9780969 C26.1997262,23.0163081 26.1091515,23.1847205 26.1700064,23.5342822 L26.1700064,23.5342822 Z M27.8725279,23.3460567 L28.2956816,25.7505322 C28.4768311,26.7737434 28.0734905,27.3016242 27.1663282,27.4615451 C26.3058684,27.6129747 25.7836486,27.2407693 25.6067449,26.2331256 L25.176515,23.797515 C24.9996112,22.7969475 25.4737133,22.264821 26.2733181,22.123298 C27.072923,21.9831903 27.6899632,22.3143541 27.8725279,23.3460567 L27.8725279,23.3460567 Z M22.3064288,22.9030897 L22.7762851,22.8210064 C22.9206386,22.7955322 23.0579159,22.8903526 23.08339,23.0347061 L23.7513785,26.8176156 C23.7768526,26.961969 23.9141299,27.0582046 24.0584834,27.0327305 L24.7618526,26.9096055 C24.9175279,26.8813009 25.0618814,26.9945193 25.0732032,27.153025 L25.0972621,27.5054173 C25.1071687,27.6398641 25.0123483,27.7601587 24.8779015,27.7842176 L23.2178368,28.0771701 C23.0748986,28.1026443 22.9362061,28.0064087 22.9107319,27.8620552 L22.0913138,23.2116098 C22.0658397,23.0658411 22.1606601,22.9285638 22.3064288,22.9030897 L22.3064288,22.9030897 Z M36.3426787,35.7321486 C36.5917592,35.6882764 36.6894101,35.525525 36.6356313,35.3712649 C36.2761629,34.3254101 35.728469,32.6044905 35.3888138,31.5260854 C35.3421112,31.3789015 35.1227506,31.4171127 35.1298267,31.5727879 C35.180775,32.7021414 35.2557822,34.5079747 35.2727649,35.611854 C35.2755954,35.7746055 35.4227793,35.8934848 35.5827003,35.8651802 L36.3426787,35.7321486 Z M35.3336198,38.4932621 L35.3690006,40.6613942 C35.371831,40.7915954 35.2798411,40.9033985 35.1510552,40.9274574 L32.9673555,41.3124 C32.8031888,41.3407046 32.6531744,41.2119187 32.6560049,41.0449215 L32.8909331,29.3084201 C32.8923483,29.1810495 32.9843382,29.073492 33.1102937,29.0508483 L36.5139215,28.4522061 C36.6370465,28.4295624 36.7601715,28.4989086 36.8068741,28.6163727 L41.0752074,39.5603454 C41.1360623,39.7160207 41.0384115,39.8886787 40.8742448,39.9183985 L38.5844029,40.3217391 C38.4570322,40.3429675 38.3310767,40.2707908 38.2886198,40.1476658 L37.5654373,38.0984129 C37.5229805,37.9752879 37.397025,37.901696 37.2696543,37.9243396 L35.5515652,38.2271988 C35.4241945,38.2498425 35.3307894,38.3630609 35.3336198,38.4932621 L35.3336198,38.4932621 Z M26.937061,35.1816241 C26.9625351,35.3259776 27.0998124,35.4222132 27.2441658,35.3967391 L27.6857176,35.3189014 C28.6353368,35.1519043 28.9070609,34.6325149 28.7075135,33.5074072 C28.5122118,32.4006974 27.9645178,32.0610423 27.2073699,32.1954891 L26.6964719,32.2860638 C26.5521184,32.3115379 26.4544676,32.4488152 26.4799417,32.5931687 L26.937061,35.1816241 Z M23.4131386,31.0307549 C23.3876644,30.8864015 23.4853153,30.7491242 23.6282535,30.72365 L27.26964,30.0811357 C29.325969,29.7188368 31.0058469,30.600525 31.4360767,33.044627 C31.8733828,35.5226945 30.7595969,36.916696 28.4202219,37.3285279 L27.6107104,37.4714661 C27.4663569,37.4969402 27.3701213,37.6342175 27.3941802,37.778571 L28.1201931,41.8968899 C28.1456673,42.0412434 28.0508469,42.1785207 27.9064934,42.2039948 L25.7213785,42.5889373 C25.577025,42.6144115 25.4383325,42.5181758 25.4142736,42.3752376 L23.4131386,31.0307549 Z" id="pa_seal"></path>
                </g>
            </g>
        </g>
    </g>
</svg>