<?xml version="1.0" encoding="UTF-8"?>
<svg width="287px" height="89px" viewBox="0 0 287 89" version="1.1" xmlns="http://www.w3.org/2000/svg" xmlns:xlink="http://www.w3.org/1999/xlink">
    <!-- Generator: Sketch 54.1 (76490) - https://sketchapp.com -->
    <title>tea-button</title>
    <desc>Created with Sketch.</desc>
    <defs>
        <path d="M8.42953968,88.0608187 L1.0588576,36.6888545 C1.0127457,36.3674651 0.977080835,36.0446633 0.951919383,35.7209591 C0.309921289,27.4616015 6.48501128,20.2456269 14.7443689,19.6036289 L266.211543,0.0571394441 C267.396312,-0.0349524114 268.587109,-0.0156907644 269.768279,0.114671201 C280.198359,1.26580487 287.72043,10.6542328 286.569296,21.0843119 L279.177319,88.0608187 L8.42953968,88.0608187 Z" id="path-1"></path>
    </defs>
    <g id="Ian-From-Wireframes" stroke="none" stroke-width="1" fill="none" fill-rule="evenodd">
        <g id="tea-button">
            <path d="M8.42953968,88.0608187 L1.0588576,36.6888545 C1.0127457,36.3674651 0.977080835,36.0446633 0.951919383,35.7209591 C0.309921289,27.4616015 6.48501128,20.2456269 14.7443689,19.6036289 L266.211543,0.0571394441 C267.396312,-0.0349524115 268.587109,-0.0156907644 269.768279,0.114671201 C280.198359,1.26580487 287.72043,10.6542328 286.569296,21.0843119 L279.177319,88.0608187 L8.42953968,88.0608187 Z" id="Combined-Shape" fill="#FEFEFE"></path>
            <g id="Group-4">
                <mask id="mask-2" fill="white">
                    <use xlink:href="#path-1"></use>
                </mask>
                <use id="Mask" fill="#FEFEFE" xlink:href="#path-1"></use>
                <g opacity="0.468819754" mask="url(#mask-2)" stroke="#FD4F01" stroke-linecap="square">
                    <g transform="translate(-34.000000, 0.060819)">
                        <path d="M43.5,89 L43.5,0.217971169" id="Line-7-Copy-3"></path>
                        <path d="M57.5,89 L57.5,0.217971169" id="Line-7-Copy-4"></path>
                        <path d="M186.5,89 L186.5,0.217971169" id="Line-7-Copy-13"></path>
                        <path d="M287.5,89 L287.5,0.217971169" id="Line-7-Copy-20"></path>
                        <path d="M72.5,89 L72.5,0.217971169" id="Line-7-Copy-5"></path>
                        <path d="M201.5,89 L201.5,0.217971169" id="Line-7-Copy-14"></path>
                        <path d="M301.5,89 L301.5,0.217971169" id="Line-7-Copy-21"></path>
                        <path d="M86.5,89 L86.5,0.217971169" id="Line-7-Copy-6"></path>
                        <path d="M215.5,89 L215.5,0.217971169" id="Line-7-Copy-15"></path>
                        <path d="M315.5,89 L315.5,0.217971169" id="Line-7-Copy-22"></path>
                        <path d="M100.5,89 L100.5,0.217971169" id="Line-7-Copy-7"></path>
                        <path d="M229.5,89 L229.5,0.217971169" id="Line-7-Copy-16"></path>
                        <path d="M115.5,89 L115.5,0.217971169" id="Line-7-Copy-8"></path>
                        <path d="M244.5,89 L244.5,0.217971169" id="Line-7-Copy-17"></path>
                        <path d="M129.5,89 L129.5,0.217971169" id="Line-7-Copy-9"></path>
                        <path d="M258.5,89 L258.5,0.217971169" id="Line-7-Copy-18"></path>
                        <path d="M143.5,89 L143.5,0.217971169" id="Line-7-Copy-10"></path>
                        <path d="M158.5,89 L158.5,0.217971169" id="Line-7-Copy-11"></path>
                        <path d="M172.5,89 L172.5,0.217971169" id="Line-7-Copy-12"></path>
                        <path d="M272.5,89 L272.5,0.217971169" id="Line-7-Copy-19"></path>
                        <path d="M36.5,89 L36.5,0.217971169" id="Line-7-Copy-2"></path>
                        <path d="M50.5,89 L50.5,0.217971169" id="Line-7-Copy-3"></path>
                        <path d="M65.5,89 L65.5,0.217971169" id="Line-7-Copy-4"></path>
                        <path d="M194.5,89 L194.5,0.217971169" id="Line-7-Copy-13"></path>
                        <path d="M294.5,89 L294.5,0.217971169" id="Line-7-Copy-20"></path>
                        <path d="M79.5,89 L79.5,0.217971169" id="Line-7-Copy-5"></path>
                        <path d="M208.5,89 L208.5,0.217971169" id="Line-7-Copy-14"></path>
                        <path d="M308.5,89 L308.5,0.217971169" id="Line-7-Copy-21"></path>
                        <path d="M93.5,89 L93.5,0.217971169" id="Line-7-Copy-6"></path>
                        <path d="M222.5,89 L222.5,0.217971169" id="Line-7-Copy-15"></path>
                        <path d="M108.5,89 L108.5,0.217971169" id="Line-7-Copy-7"></path>
                        <path d="M237.5,89 L237.5,0.217971169" id="Line-7-Copy-16"></path>
                        <path d="M122.5,89 L122.5,0.217971169" id="Line-7-Copy-8"></path>
                        <path d="M251.5,89 L251.5,0.217971169" id="Line-7-Copy-17"></path>
                        <path d="M136.5,89 L136.5,0.217971169" id="Line-7-Copy-9"></path>
                        <path d="M265.5,89 L265.5,0.217971169" id="Line-7-Copy-18"></path>
                        <path d="M151.5,89 L151.5,0.217971169" id="Line-7-Copy-10"></path>
                        <path d="M165.5,89 L165.5,0.217971169" id="Line-7-Copy-11"></path>
                        <path d="M179.5,89 L179.5,0.217971169" id="Line-7-Copy-12"></path>
                        <path d="M280.5,89 L280.5,0.217971169" id="Line-7-Copy-19"></path>
                    </g>
                </g>
            </g>
        </g>
    </g>
</svg>